<svg xmlns="http://www.w3.org/2000/svg" width="560" height="140" viewBox="0 0 560 140" fill="none"><g clip-path="url(#clip0_3174_41979)"><path fill-rule="evenodd" clip-rule="evenodd" d="M289.771 93.3662C289.014 94.1234 287.878 94.1234 287.121 93.3662C284.092 91.0944 283.335 89.5799 281.441 87.3082L280.684 85.7937C274.248 92.2303 269.704 94.1234 261.753 94.1234C252.287 94.1234 244.715 88.4441 244.715 76.3281C244.715 67.2411 249.637 61.1831 256.831 57.7755C263.748 55.2595 271.052 53.9779 278.412 53.9892V51.7175C278.412 49.0671 278.412 46.4167 276.898 44.145C275.762 41.8732 273.112 41.116 270.461 41.116C266.296 41.116 262.51 43.3877 261.374 47.9312C261.374 49.0671 260.238 50.203 259.481 50.203L248.122 49.0671C247.365 48.6885 246.229 47.9312 246.608 46.4167C249.258 33.5435 261.374 29 271.976 29C277.655 29 284.849 30.5145 289.393 34.6794C294.315 39.6015 294.315 46.0381 294.315 52.8533V72.1632C294.315 77.4639 296.586 79.7357 298.48 82.7647L299.237 83.9006C299.237 84.6578 299.237 85.4151 298.48 85.7937L289.771 93.3662ZM278.412 65.348V66.1052C278.412 70.2701 278.412 73.6777 276.141 77.464C274.248 80.8716 271.219 82.7647 268.19 82.7647C263.646 82.7647 261.374 79.3571 261.374 74.435C261.374 64.5907 270.083 63.0762 278.034 63.0762V65.348H278.412Z" fill="#2A2A4B"></path><path d="M159.912 93.3702H171.271C172.407 93.3702 173.543 92.613 173.543 91.0985V59.294C173.543 52.4788 173.543 44.149 181.115 44.149C188.688 44.149 188.688 51.7215 188.688 58.1581V91.0985C188.688 92.2344 189.445 93.3702 190.581 93.3702H201.94C203.076 93.3702 204.211 92.613 204.211 91.0985V59.294C204.211 55.8864 204.211 51.7215 205.347 49.0711C205.87 47.6692 206.796 46.4535 208.009 45.5775C209.222 44.7015 210.667 44.2044 212.163 44.149C215.192 44.149 217.842 45.2849 218.599 49.0711L218.978 58.5368V91.0985C218.978 92.2344 220.114 93.3702 221.25 93.3702H232.608C233.744 93.3702 234.88 92.613 234.88 91.0985V54.3719V51.7215C234.88 46.0421 234.88 40.3628 231.851 35.8193C230.265 33.8496 228.241 32.2766 225.941 31.2251C223.64 30.1735 221.127 29.6723 218.599 29.7613C211.784 29.7613 205.347 33.5475 202.697 40.7414C199.668 33.1689 195.124 29.7613 187.552 29.7613C180.737 29.7613 175.815 33.5475 172.786 40.7414V33.1689C172.786 32.033 171.65 31.2758 170.514 31.2758H159.912C158.777 31.2758 157.641 32.033 157.641 33.1689V91.8557C157.641 92.9916 158.777 93.7488 159.912 93.7488V93.3702ZM308.333 41.12V32.7903C308.333 31.6544 309.09 30.8972 310.226 30.8972H348.089C349.225 30.8972 350.361 31.6544 350.361 32.7903V39.9842C350.361 41.12 349.225 42.6345 347.332 45.2849L327.643 72.9245C335.216 72.9245 342.788 74.0604 349.225 77.8466C350.739 78.6039 351.118 79.7397 351.118 80.8756V89.9626C351.118 91.0985 349.982 92.613 348.467 91.8557C337.109 85.7977 321.585 85.0405 308.712 91.8557C307.576 92.613 306.061 91.0985 306.061 89.9626V81.6329C306.061 80.1184 306.061 77.8466 307.576 75.5749L330.293 43.3918H310.226C309.692 43.3014 309.207 43.0228 308.86 42.6061C308.512 42.1895 308.326 41.6623 308.333 41.12V41.12ZM307.955 105.108C315.527 103.972 330.293 102.457 332.944 105.865C335.594 109.272 330.293 122.146 327.643 128.961L327.264 130.475C326.507 132.369 328.022 133.126 329.915 131.611C341.274 122.146 344.303 101.7 342.031 99.0496C339.759 96.0206 319.313 93.3702 307.197 102.079C305.304 103.214 305.683 105.108 307.955 105.108Z" fill="#2A2A4B"></path><path d="M244.354 140.318C271.236 140.318 302.284 131.989 323.865 116.086C327.651 113.436 324.622 109.65 320.836 111.164C293.414 122.668 263.709 127.696 234.029 125.857C204.348 124.018 175.491 115.363 149.698 100.563C147.426 99.0482 145.912 101.32 147.805 103.213C174.217 127.217 208.664 140.455 244.354 140.318V140.318Z" fill="#2A2A4B"></path><path fill-rule="evenodd" clip-rule="evenodd" d="M382.549 29.7512C399.587 29.7512 408.674 44.139 408.674 62.6916C408.674 80.4869 398.451 94.8747 382.171 94.8747C365.89 94.8747 356.803 80.1083 356.803 61.9343C356.803 43.7603 365.89 29.7512 382.549 29.7512ZM382.549 41.11C374.219 41.11 373.462 52.4687 373.462 60.0412C373.462 67.6137 373.462 82.38 382.549 82.38C391.258 82.38 391.636 69.8854 391.636 62.6916C391.636 57.3908 391.636 51.3328 390.122 46.7893C388.986 43.0031 386.335 41.11 382.549 41.11V41.11Z" fill="#2A2A4B"></path><path d="M419.283 93.3617H430.642C431.778 93.3617 432.914 92.6045 432.914 91.4686V59.6641C432.914 55.8779 432.914 52.0917 434.807 48.684C436.322 45.655 438.593 44.1405 441.622 44.1405C448.816 44.1405 448.816 51.713 448.438 58.1497V91.4686C448.438 92.6045 449.573 93.3617 450.709 93.3617H462.068C463.204 93.3617 464.34 92.6045 464.34 91.4686V54.742C464.34 49.0627 464.34 41.1115 461.311 36.1894C459.832 34.0773 457.839 32.3776 455.52 31.2512C453.201 30.1248 450.633 29.6091 448.059 29.7528C440.108 29.7528 435.564 33.5391 431.778 41.4902V32.4032C431.778 31.2673 430.642 30.8887 429.506 30.8887H418.905C417.769 30.8887 417.012 31.6459 417.012 32.7818V91.4686C417.012 92.6045 417.769 93.3617 418.905 93.3617H419.283Z" fill="#2A2A4B"></path><path fill-rule="evenodd" clip-rule="evenodd" d="M137.202 93.7448L139.852 93.3662L142.881 90.7158L148.939 85.7937C149.696 85.0364 149.696 83.9006 148.939 82.7647C146.667 79.7357 144.774 77.4639 144.774 72.1632V54.3678V52.8533C144.774 45.6595 144.774 39.6015 139.473 34.6794C135.308 30.5145 128.115 29 122.435 29C111.076 29 99.3391 32.7862 96.6887 46.4167C96.6887 47.9312 97.446 48.6885 98.2032 49.0671L109.562 50.203C110.319 50.203 111.076 49.0671 111.455 47.9312C112.591 43.3877 116.377 41.116 120.542 41.116C123.192 41.116 125.843 41.8732 126.979 44.145C128.493 46.4167 128.493 49.0671 128.493 51.7175V53.6106H125.464C119.406 54.3678 112.212 55.1251 106.912 57.3968C103.202 58.9392 100.052 61.5796 97.8867 64.9636C95.7209 68.3477 94.6423 72.3133 94.7956 76.3281C94.7956 87.6868 102.368 93.7448 111.834 93.7448C120.163 93.7448 124.707 91.8517 130.765 85.4151C133.037 88.4441 133.415 89.9586 137.202 92.9876V93.7448ZM128.872 66.1052V63.0762C120.542 63.0762 111.834 64.5907 111.834 74.4349C111.834 79.3571 114.484 82.7647 118.649 82.7647C122.057 82.7647 124.707 80.8716 126.6 77.4639C128.872 73.6777 128.872 70.2701 128.872 66.1052Z" fill="#2A2A4B"></path></g><defs><clipPath id="clip0_3174_41979"><rect width="560" height="140" fill="white"></rect></clipPath></defs></svg>