<svg xmlns="http://www.w3.org/2000/svg" xmlns:xlink="http://www.w3.org/1999/xlink" id="Layer_1" x="0px" y="0px" viewBox="0 0 560 140" style="enable-background:new 0 0 560 140;" xml:space="preserve"><style type="text/css">	.st0{fill:#2A2A4B;}</style><g>	<path class="st0" d="M315.2,75.4c-10.9,0-19.7,8.8-19.7,19.7c0,10.9,8.8,19.7,19.7,19.7c10.9,0,19.6-8.8,19.6-19.7  C334.8,84.2,326,75.4,315.2,75.4z M315.2,105.7c-6,0-10.7-4.9-10.7-10.7c0-5.8,4.8-10.6,10.7-10.6c5.8,0,10.6,4.8,10.6,10.6  C325.8,100.9,321.1,105.7,315.2,105.7z"></path>	<path class="st0" d="M243.1,74.9c-4.3,0-8.8,0.9-12.3,2.3c-2.9-1.7-5.6-2.3-9.6-2.3c-5,0-10,0.6-15.6,2.5l-1,0.3v36.1h9.8V84.3  c2-0.6,3.6-0.9,5.5-0.9c4.9,0,6.3,1.5,6.3,6.6v23.9h10V89.3c0-2.2-0.1-3.6-0.4-5c2-0.6,3.6-1,5.3-1c4.6,0,6.7,2.1,6.7,6.6v23.9h9.8  V89.2c0-4.9-0.8-7.7-3-10.2C252.4,76.4,248.2,74.9,243.1,74.9z"></path>	<path class="st0" d="M282.6,106.1c-6.5,0-10.3-4.1-10.3-11.2c0-7.3,3.8-11.4,10.4-11.4c1.4,0,2.5,0.1,3.6,0.4c0,0,2,0.6,3.8,2  l4.2-7.1c-2.3-1.9-5-2.7-5.8-2.9c-2.5-0.8-6.3-0.9-6.3-0.9c-11.8,0-19.7,8.2-19.7,20.4c0,11.7,7.6,19.3,19.2,19.3  c0,0,7.8,0.3,13.1-4.5l-4.9-6.3C287.1,105.6,285.2,106.1,282.6,106.1z"></path>	<path class="st0" d="M154.3,75.2c-14,0-20.6,6.2-20.6,19.4V114h10V95.4v-0.9c0-6.6,3.7-10.7,9.6-10.7c2.4,0,4.3,0.4,5.7,0.8  l2.3-8.8C157.6,75.2,154.3,75.2,154.3,75.2z"></path>	<path class="st0" d="M181.3,75.1c-14.2,0-20.6,9.8-20.6,19.6c0,7,2.3,12.5,6.5,15.4c4.8,3.2,9,3.9,18.2,3.9H199V93.5  C199,81.5,192.7,75.1,181.3,75.1z M189.1,105.7H183c-8.4,0-12.1-3.4-12.1-11.3c0-6.5,3.7-10.9,9.6-10.9c5.8,0,8.6,3.6,8.6,11V105.7  z"></path>	<path class="st0" d="M110.8,75.1c-14.2,0-20.6,9.8-20.6,19.6c0,7,2.3,12.5,6.5,15.4c4.8,3.2,9,3.9,18.2,3.9h13.4V93.5  C128.4,81.5,122.3,75.1,110.8,75.1z M118.1,105.7h-6c-8.4,0-12.1-3.4-12.1-11.3c0-6.5,3.7-10.9,9.6-10.9c5.8,0,8.5,3.6,8.5,11  V105.7z"></path>	<path class="st0" d="M427.3,45.8c-0.6-0.3-1-0.2-1.1,0.3c-0.1,0.4,0.3,1,0.9,1.3c0.6,0.3,1.1,0.1,1.1-0.3  C428.2,46.7,427.9,46.2,427.3,45.8z"></path>	<path class="st0" d="M422.8,43.7c-0.5-0.3-1-0.2-1,0.2c-0.1,0.4,0.3,1,0.8,1.2c0.5,0.3,1,0.1,1-0.3  C423.7,44.5,423.3,43.9,422.8,43.7z"></path>	<path class="st0" d="M420.7,29c-0.4-0.3-0.8-0.3-1,0.1c-0.1,0.3,0.3,0.7,0.7,1c0.5,0.2,0.9,0.2,1-0.1  C421.5,29.6,421.2,29.2,420.7,29z"></path>	<path class="st0" d="M427.9,42.7c-0.4-0.3-0.9-0.2-1,0.3c0,0.4,0.3,0.9,0.8,1.1c0.5,0.3,0.9,0.1,1-0.3  C428.7,43.4,428.4,42.9,427.9,42.7z"></path>	<path class="st0" d="M428.6,36.3c-0.4-0.3-0.8-0.2-0.9,0.2c-0.1,0.3,0.3,0.8,0.8,1c0.4,0.2,0.8,0.2,0.9-0.2  C429.4,37,429.1,36.5,428.6,36.3z"></path>	<path class="st0" d="M428.3,39.4c-0.5-0.3-0.9-0.2-1,0.2c-0.1,0.3,0.3,0.8,0.8,1.1c0.5,0.3,0.9,0.2,1-0.2  C429.1,40.1,428.8,39.6,428.3,39.4z"></path>	<path class="st0" d="M415.7,29.6c-0.5-0.2-1-0.2-1,0.1c-0.1,0.3,0.3,0.8,0.8,1c0.5,0.3,1,0.2,1-0.1  C416.5,30.2,416.2,29.8,415.7,29.6z"></path>	<path class="st0" d="M418.3,41.4c-0.5-0.3-1-0.1-1.1,0.3c-0.1,0.4,0.3,0.9,0.8,1.1c0.5,0.3,1,0.1,1.1-0.3  C419.2,42.2,418.8,41.7,418.3,41.4z"></path>	<path class="st0" d="M413.3,38.9c-0.6-0.3-1.1-0.2-1.3,0.3c-0.1,0.4,0.3,1,0.9,1.3c0.6,0.3,1.1,0.2,1.3-0.3  C414.3,39.8,413.9,39.2,413.3,38.9z"></path>	<path class="st0" d="M414.9,32.6c-0.5-0.3-1-0.1-1.1,0.2c-0.1,0.4,0.3,0.8,0.8,1.1c0.5,0.3,1,0.1,1.1-0.2  C415.7,33.3,415.4,32.8,414.9,32.6z"></path>	<path class="st0" d="M414.1,35.8c-0.6-0.2-1-0.1-1.1,0.2c-0.1,0.3,0.3,0.8,0.8,1.1c0.5,0.3,1,0.2,1.1-0.2  C415,36.5,414.6,36,414.1,35.8z"></path>	<path class="st0" d="M416.4,26.6c-0.5-0.3-1-0.2-1.1,0.1c-0.1,0.3,0.3,0.8,0.8,1.1c0.5,0.3,1,0.2,1.1-0.1  C417.2,27.3,416.9,26.9,416.4,26.6z"></path>	<path class="st0" d="M428.8,33c-0.5-0.3-0.9-0.2-1,0.1c-0.1,0.3,0.3,0.8,0.8,1.1c0.5,0.3,0.9,0.2,1-0.1  C429.7,33.8,429.3,33.3,428.8,33z"></path>	<path class="st0" d="M424.8,31c-0.4-0.2-0.8-0.2-0.9,0.1c0,0.3,0.3,0.7,0.8,1c0.4,0.3,0.8,0.2,0.9-0.1  C425.6,31.6,425.2,31.2,424.8,31z"></path>	<path class="st0" d="M358.9,0v113.6H470V0H358.9z M458.1,47.6c0.7,0.4,1.3,1.3,1.4,1.9c0.1,0.6-0.4,0.8-1.1,0.3s-1.3-1.3-1.4-1.9  C456.9,47.2,457.4,47.1,458.1,47.6z M457.1,66c0.1,0.8-0.4,1-1.1,0.5c-0.7-0.4-1.2-1.3-1.3-2c-0.1-0.6,0.4-0.9,1.1-0.4  C456.5,64.4,457.1,65.3,457.1,66z M454.9,50.9c-0.8-0.4-1.4-1.3-1.5-2c-0.1-0.6,0.4-0.8,1.2-0.3s1.4,1.3,1.5,1.9  C456.2,51.2,455.7,51.3,454.9,50.9z M454.3,45.2c0.8,0.5,1.5,1.4,1.6,2c0.1,0.7-0.5,0.8-1.3,0.4c-0.8-0.5-1.5-1.4-1.6-2.1  C452.9,44.9,453.5,44.8,454.3,45.2z M451.8,63.9c-0.8-0.4-1.3-1.4-1.4-2.2c0-0.8,0.5-1,1.3-0.5c0.7,0.4,1.3,1.4,1.4,2.2  C453.1,64.1,452.5,64.3,451.8,63.9z M452.7,67c0.1,0.5-0.3,0.7-0.8,0.4c-0.4-0.3-0.9-1-0.9-1.5c0-0.5,0.3-0.7,0.8-0.4  C452.4,65.8,452.7,66.5,452.7,67z M449.9,50.2c0-0.6,0.4-0.7,1.1-0.3c0.6,0.4,1.1,1.1,1.2,1.7c0,0.6-0.4,0.7-1.1,0.3  C450.5,51.4,450,50.7,449.9,50.2z M451.5,59.1c-0.5-0.3-0.9-0.9-0.9-1.3s0.4-0.6,0.8-0.3c0.4,0.3,0.8,0.8,0.9,1.3  C452.4,59.2,452,59.4,451.5,59.1z M450.6,43.2c0.6,0.4,1.2,1.1,1.3,1.7c0,0.5-0.4,0.6-1.1,0.3c-0.7-0.4-1.2-1.1-1.3-1.7  C449.4,43,449.9,42.9,450.6,43.2z M448,42.6c0,0.5-0.4,0.6-1.1,0.3c-0.6-0.4-1.1-1-1.1-1.5s0.4-0.5,1.1-0.2  C447.5,41.5,448,42.2,448,42.6z M446.2,31.9c-0.4-0.3-0.8-0.6-0.8-0.9c0-0.3,0.3-0.3,0.7-0.1c0.4,0.3,0.7,0.6,0.8,0.9  C446.9,32.1,446.6,32.1,446.2,31.9z M442.9,39.1c0.5,0.3,1,0.8,1,1.3c0,0.4-0.4,0.5-1,0.2c-0.6-0.3-1-0.8-1-1.3  C441.9,38.9,442.3,38.8,442.9,39.1z M441.9,33.8c0-0.4,0.4-0.4,0.8-0.1c0.5,0.3,0.8,0.7,0.9,1c0,0.4-0.4,0.4-0.8,0.1  C442.3,34.6,441.9,34.2,441.9,33.8z M442.9,32.6c-0.6-0.3-1.1-0.9-1.1-1.3c0-0.4,0.4-0.4,1-0.1c0.6,0.3,1,0.9,1.1,1.3  C443.9,32.9,443.5,33,442.9,32.6z M442.6,28.9c0.4,0.3,0.8,0.7,1,1.1c0,0.3-0.4,0.3-0.9,0.1c-0.5-0.3-0.9-0.7-0.9-1.1  C441.8,28.6,442.1,28.6,442.6,28.9z M442.9,41.5c1,0.6,1.8,1.6,1.8,2.3c0,0.8-0.8,1-1.8,0.4c-1-0.6-1.8-1.7-1.8-2.4  C441.1,41.2,441.9,41,442.9,41.5z M442.8,69.2c0.9,0.5,1.6,1.7,1.7,2.7c-0.1,1-0.8,1.3-1.7,0.8c-1-0.6-1.7-1.7-1.7-2.7  C441.1,69,441.8,68.7,442.8,69.2z M442.9,50.6c-0.7-0.4-1.2-1.1-1.2-1.7c0.1-0.6,0.6-0.7,1.2-0.3c0.7,0.3,1.2,1.1,1.2,1.7  C444.1,50.8,443.6,51,442.9,50.6z M444.5,54.2c0,0.7-0.6,0.9-1.3,0.4c-0.8-0.4-1.3-1.3-1.3-2c0-0.7,0.6-0.9,1.3-0.4  C443.9,52.6,444.4,53.5,444.5,54.2z M443,56.1c0.8,0.4,1.3,1.3,1.4,2.1c0,0.7-0.6,1-1.4,0.5c-0.8-0.5-1.4-1.4-1.4-2.1  C441.6,55.9,442.2,55.7,443,56.1z M442.8,64.8c0.6,0.4,1.1,1.1,1.1,1.8c0,0.6-0.5,0.9-1.2,0.5c-0.6-0.4-1.1-1.2-1.1-1.8  C441.6,64.6,442.2,64.4,442.8,64.8z M442.1,60.6c0-0.4,0.4-0.6,0.8-0.3c0.5,0.3,0.8,0.8,0.8,1.3c0,0.4-0.4,0.6-0.8,0.3  C442.5,61.7,442.1,61.1,442.1,60.6z M439,29.1c0.6,0.4,1.1,1,1.1,1.4c0,0.4-0.5,0.4-1.1,0.1c-0.6-0.4-1.1-1-1.1-1.4  S438.4,28.8,439,29.1z M439,31.4c0.8,0.4,1.3,1.1,1.3,1.5c0,0.5-0.6,0.6-1.3,0.2c-0.7-0.4-1.3-1.1-1.3-1.6  C437.8,31.1,438.3,31,439,31.4z M439,35.8c-0.7-0.4-1.2-1.1-1.2-1.5c0-0.4,0.5-0.6,1.2-0.2c0.6,0.3,1.1,1,1.2,1.5  C440.2,36,439.7,36.1,439,35.8z M439.9,38.1c0,0.4-0.4,0.4-0.9,0.2c-0.5-0.3-0.9-0.8-0.9-1.1c0-0.3,0.4-0.4,0.9-0.1  C439.5,37.3,439.9,37.8,439.9,38.1z M438.9,39.4c1,0.5,1.7,1.5,1.7,2.2c-0.1,0.8-0.8,0.9-1.8,0.4c-1-0.5-1.7-1.5-1.7-2.2  C437.2,39.1,437.9,38.9,438.9,39.4z M435.3,29.5c0.6,0.4,1.1,1,1.1,1.4c0,0.4-0.5,0.5-1.2,0.1c-0.6-0.3-1.1-1-1.1-1.4  C434.1,29.2,434.6,29.2,435.3,29.5z M435.2,31.8c0.8,0.5,1.5,1.3,1.4,1.8c0,0.6-0.7,0.6-1.5,0.2c-0.8-0.4-1.5-1.3-1.5-1.8  C433.7,31.4,434.4,31.3,435.2,31.8z M435.1,34.4c1,0.6,1.7,1.5,1.7,2.1c-0.1,0.7-0.8,0.8-1.8,0.3c-1-0.6-1.7-1.5-1.7-2.2  C433.4,34,434.1,33.8,435.1,34.4z M431.3,29.8c0.8,0.4,1.3,1.1,1.3,1.7c-0.1,0.5-0.7,0.6-1.5,0.2c-0.8-0.4-1.3-1.1-1.3-1.7  C429.9,29.5,430.5,29.4,431.3,29.8z M428.4,13.3c0.4,0.2,0.6,0.5,0.6,0.7c0,0.2-0.3,0.1-0.7-0.1c-0.4-0.2-0.6-0.4-0.6-0.7  C427.7,13,428,13.1,428.4,13.3z M428.2,15.1c0.4,0.3,0.8,0.6,0.8,0.8c-0.1,0.3-0.4,0.3-0.8,0c-0.4-0.3-0.8-0.6-0.8-0.8  C427.5,14.8,427.8,14.9,428.2,15.1z M428.2,16.9c0.4,0.3,0.8,0.6,0.8,0.9c0,0.3-0.4,0.3-0.9,0c-0.4-0.3-0.8-0.6-0.8-0.9  C427.3,16.6,427.7,16.6,428.2,16.9z M428.1,18.9c0.5,0.3,0.9,0.7,0.9,1c-0.1,0.3-0.5,0.3-1,0c-0.5-0.3-1-0.7-0.9-1  C427.2,18.6,427.6,18.7,428.1,18.9z M423.9,22.7c-0.9-0.4-1.5-1.2-1.4-1.7c0.1-0.5,0.9-0.6,1.7-0.1c0.8,0.4,1.5,1.2,1.4,1.7  C425.6,23.2,424.8,23.2,423.9,22.7z M425.4,25c-0.1,0.6-0.9,0.6-1.8,0.1c-1-0.5-1.6-1.3-1.5-1.9c0.1-0.5,0.9-0.6,1.8-0.1  C424.9,23.6,425.5,24.5,425.4,25z M424.3,20.5c-0.8-0.4-1.4-1.1-1.3-1.6c0.1-0.4,0.8-0.4,1.6-0.1c0.8,0.4,1.3,1.1,1.3,1.6  C425.8,20.8,425.1,20.8,424.3,20.5z M424.7,18.2c-0.8-0.4-1.3-1-1.2-1.5c0.1-0.3,0.7-0.3,1.5,0.1c0.8,0.4,1.3,1,1.2,1.4  C426.1,18.6,425.4,18.6,424.7,18.2z M427.6,27.8c0.8,0.4,1.3,1.1,1.3,1.6c-0.1,0.5-0.7,0.6-1.5,0.2c-0.8-0.4-1.4-1.1-1.3-1.7  C426.1,27.4,426.8,27.4,427.6,27.8z M427.5,27.1c-0.8-0.4-1.3-1.1-1.2-1.5c0.1-0.4,0.6-0.5,1.4-0.1c0.8,0.4,1.3,1,1.2,1.5  C428.9,27.4,428.3,27.4,427.5,27.1z M427.9,23.1c0.6,0.4,1.1,1,1.1,1.3c-0.1,0.4-0.6,0.4-1.2,0.1c-0.6-0.3-1.1-0.9-1.1-1.3  C426.7,22.8,427.2,22.8,427.9,23.1z M426.9,21c0.1-0.4,0.5-0.4,1.1-0.1c0.6,0.3,1,0.8,1,1.1c-0.1,0.4-0.5,0.4-1.1,0.1  C427.3,21.8,426.8,21.4,426.9,21z M426.5,6.9c0.4,0.2,0.6,0.4,0.6,0.7c-0.1,0.2-0.3,0.1-0.7-0.1c-0.4-0.2-0.6-0.4-0.6-0.7  C425.8,6.6,426.1,6.7,426.5,6.9z M426.2,8.4c0.4,0.3,0.8,0.6,0.7,0.8c-0.1,0.3-0.4,0.2-0.8-0.1c-0.4-0.3-0.8-0.6-0.7-0.8  C425.4,8.1,425.8,8.2,426.2,8.4z M426,10c0.5,0.3,0.8,0.6,0.8,0.9c-0.1,0.3-0.4,0.2-1-0.1c-0.5-0.3-0.9-0.6-0.8-1  C425.1,9.7,425.5,9.7,426,10z M425.8,11.6c0.5,0.3,1,0.7,0.9,1c-0.1,0.3-0.5,0.3-1.1-0.1c-0.6-0.3-1-0.7-0.9-1  C424.7,11.2,425.2,11.4,425.8,11.6z M425.4,13.4c0.6,0.3,1.1,0.8,1,1.2c-0.1,0.4-0.6,0.3-1.2-0.1c-0.6-0.4-1.1-0.8-1-1.2  C424.3,13,424.8,13,425.4,13.4z M425.2,15.1c0.7,0.4,1.1,1,1.1,1.3c-0.1,0.4-0.6,0.4-1.3,0c-0.7-0.4-1.2-1-1.1-1.3  C423.9,14.7,424.5,14.7,425.2,15.1z M423.1,10.6c0.4,0.2,0.6,0.5,0.6,0.7c-0.1,0.2-0.4,0.2-0.8-0.1c-0.4-0.2-0.7-0.5-0.6-0.7  C422.4,10.3,422.7,10.4,423.1,10.6z M422.6,12.1c0.4,0.3,0.8,0.6,0.7,0.8c-0.1,0.3-0.4,0.2-0.9-0.1c-0.4-0.3-0.8-0.6-0.7-0.8  C421.8,11.8,422.2,11.8,422.6,12.1z M422.2,13.5c0.5,0.3,0.8,0.6,0.8,0.9c-0.1,0.3-0.4,0.3-1,0c-0.5-0.3-0.8-0.6-0.8-0.9  C421.3,13.2,421.7,13.3,422.2,13.5z M421.7,15.2c0.5,0.3,0.9,0.7,0.9,1c-0.1,0.3-0.5,0.3-1.1,0c-0.6-0.3-1-0.7-0.9-1  C420.7,14.9,421.1,15,421.7,15.2z M421.1,17.1c0.6,0.3,1,0.8,1,1.1c-0.1,0.4-0.6,0.3-1.1,0c-0.6-0.3-1-0.8-1-1.1  C420,16.8,420.5,16.8,421.1,17.1z M420.5,19.1c0.6,0.3,1.1,0.9,1,1.3c-0.1,0.4-0.6,0.4-1.3,0.1c-0.6-0.3-1.1-0.9-1-1.3  C419.3,18.8,419.9,18.8,420.5,19.1z M418.4,21.3c0.1-0.4,0.8-0.4,1.5-0.1c0.8,0.4,1.3,1,1.1,1.5c-0.1,0.4-0.8,0.5-1.5,0.1  C418.8,22.4,418.3,21.7,418.4,21.3z M417.6,23.6c0.1-0.5,0.8-0.6,1.7-0.1c0.8,0.4,1.3,1.1,1.3,1.7c-0.1,0.5-0.8,0.6-1.7,0.1  C418.1,24.8,417.5,24.1,417.6,23.6z M413.6,21.5c0.1-0.4,0.9-0.5,1.7-0.1c0.8,0.4,1.3,1.1,1.2,1.6c-0.1,0.4-0.8,0.5-1.7,0.1  C413.9,22.7,413.4,22,413.6,21.5z M411.7,17.1c0.6,0.3,1,0.8,1,1.2c-0.1,0.4-0.6,0.4-1.3,0.1c-0.6-0.3-1.1-0.9-1-1.2  C410.5,16.8,411,16.8,411.7,17.1z M411.1,19.2c0.9,0.4,1.5,1.2,1.3,1.7c-0.2,0.5-1,0.6-1.9,0.1c-1-0.4-1.5-1.2-1.3-1.8  C409.3,18.8,410.1,18.8,411.1,19.2z M417.9,56.1c1.1,0.6,1.8,1.7,1.7,2.7c-0.2,1-1.2,1.4-2.3,0.9c-1.1-0.6-1.8-1.8-1.7-2.8  C415.8,55.9,416.7,55.6,417.9,56.1z M416.4,52.2c0.2-1,1.3-1.3,2.4-0.7c1.1,0.6,1.8,1.7,1.7,2.7c-0.2,1-1.2,1.3-2.4,0.8  C416.9,54.4,416.2,53.2,416.4,52.2z M416.2,64.6c-1.1-0.6-1.8-1.7-1.6-2.8c0.3-1,1.2-1.4,2.3-0.9c1.1,0.5,1.8,1.7,1.6,2.7  C418.3,64.7,417.4,65.1,416.2,64.6z M417.4,69c-0.2,1-1.2,1.5-2.3,1c-1.1-0.5-1.7-1.7-1.5-2.8c0.3-1,1.2-1.4,2.3-1  C417,66.7,417.6,67.9,417.4,69z M416.2,47.6c-0.2,0.9-1.2,1.1-2.3,0.6c-1.1-0.5-1.8-1.7-1.7-2.5c0.2-0.8,1.3-1.1,2.3-0.6  C415.6,45.6,416.3,46.7,416.2,47.6z M413.4,49.3c0.8,0.4,1.4,1.3,1.3,2c-0.1,0.8-1,1-1.8,0.6c-0.9-0.4-1.4-1.3-1.3-2  C411.8,49.2,412.5,48.9,413.4,49.3z M412.6,54c0.8,0.4,1.3,1.3,1.2,2c-0.2,0.7-1,1-1.8,0.6c-0.8-0.4-1.3-1.3-1.2-2  C411,53.8,411.7,53.6,412.6,54z M411.7,58.7c0.8,0.4,1.3,1.2,1.1,2c-0.2,0.8-1,1.1-1.8,0.7c-0.8-0.4-1.3-1.3-1.1-2  C410.1,58.5,410.9,58.3,411.7,58.7z M410.3,66.7c-0.8-0.4-1.2-1.2-1.1-1.9c0.2-0.7,0.9-1,1.7-0.6c0.8,0.4,1.2,1.1,1.1,1.9  C411.7,66.7,411,67,410.3,66.7z M410.8,71.7c-0.2,0.7-0.8,1-1.6,0.7c-0.7-0.3-1.1-1.1-1-1.8c0.2-0.7,0.9-1,1.6-0.7  C410.5,70.2,411,71,410.8,71.7z M410,49.2c-0.3,1-1.3,1.2-2.5,0.7c-1.1-0.6-1.8-1.7-1.6-2.6c0.3-0.9,1.3-1.1,2.5-0.6  C409.6,47.1,410.2,48.3,410,49.2z M385.4,26.5c-0.6-0.3-1-0.7-0.8-1.1c0.3-0.4,0.9-0.5,1.5-0.3c0.6,0.3,1,0.7,0.8,1.1  C386.6,26.7,386,26.7,385.4,26.5z M385.5,29.9c-0.3,0.6-1.3,0.8-2.3,0.4c-1-0.4-1.5-1.1-1.1-1.7c0.3-0.6,1.3-0.8,2.3-0.4  C385.3,28.6,385.8,29.3,385.5,29.9z M386.7,34.1c0.2-0.3,0.8-0.4,1.3-0.3c0.6,0.3,0.9,0.7,0.7,1.1c-0.2,0.4-0.8,0.5-1.3,0.3  C386.8,34.9,386.5,34.5,386.7,34.1z M388.6,32.5c-1.1-0.4-1.6-1.3-1.3-2c0.4-0.7,1.5-0.9,2.5-0.4c1,0.4,1.6,1.3,1.3,2  C390.8,32.8,389.7,33,388.6,32.5z M392.4,28.6c-0.3,0.5-1.1,0.6-1.9,0.3c-0.8-0.3-1.3-1-1-1.5c0.3-0.5,1.1-0.6,1.9-0.3  C392.2,27.4,392.7,28.1,392.4,28.6z M392.2,21c0.3-0.5,1.2-0.6,2.2-0.3c1,0.4,1.5,1.1,1.2,1.7c-0.3,0.6-1.2,0.7-2.2,0.3  C392.4,22.3,391.9,21.6,392.2,21z M390.3,20.3c-0.3,0.4-1,0.6-1.8,0.3c-0.8-0.3-1.2-0.9-1-1.3c0.2-0.4,1-0.5,1.8-0.3  C390.1,19.2,390.5,19.8,390.3,20.3z M390.1,40.3c0.2-0.5,1-0.7,1.8-0.4c0.8,0.3,1.2,1,1,1.6c-0.3,0.6-1.1,0.8-1.8,0.4  C390.2,41.6,389.8,40.9,390.1,40.3z M392.9,37.5c-0.6-0.3-0.9-0.7-0.7-1.1c0.1-0.3,0.7-0.4,1.3-0.2c0.6,0.3,0.8,0.7,0.7,1.1  C393.9,37.6,393.4,37.7,392.9,37.5z M394.1,34.7c-1-0.4-1.5-1.2-1.2-1.8c0.3-0.6,1.2-0.7,2.1-0.3c0.9,0.4,1.4,1.1,1.2,1.8  C395.9,34.9,395,35.1,394.1,34.7z M395.7,31.1c-0.9-0.4-1.4-1.1-1.1-1.7c0.3-0.6,1.1-0.7,2-0.3c0.9,0.4,1.4,1.1,1.1,1.7  C397.4,31.3,396.5,31.4,395.7,31.1z M403.2,14.7c-0.6-0.3-1-0.7-1-1c0.1-0.4,0.6-0.4,1.3-0.2c0.6,0.3,1,0.7,1,1  C404.4,14.8,403.9,14.9,403.2,14.7z M405.1,22.2c1.1,0.5,1.7,1.4,1.5,2c-0.3,0.6-1.3,0.8-2.3,0.3c-1.1-0.5-1.7-1.4-1.5-2.1  C403,21.8,404,21.7,405.1,22.2z M402.4,19.1c-0.2,0.4-0.8,0.4-1.4,0.1c-0.6-0.3-1-0.8-0.9-1.1c0.2-0.4,0.8-0.4,1.4-0.1  C402.1,18.2,402.5,18.7,402.4,19.1z M403.9,24.8c1.1,0.6,1.8,1.5,1.6,2.2c-0.3,0.8-1.4,0.9-2.6,0.3s-1.9-1.5-1.6-2.3  C401.6,24.4,402.7,24.3,403.9,24.8z M402.6,27.9c1,0.4,1.5,1.3,1.3,1.9c-0.3,0.6-1.1,0.8-2.2,0.3c-1-0.4-1.6-1.3-1.3-1.9  C400.7,27.6,401.7,27.5,402.6,27.9z M403.1,33.2c-0.3,0.8-1.3,1-2.5,0.4c-1.1-0.5-1.8-1.5-1.5-2.2c0.3-0.8,1.3-0.9,2.5-0.4  C402.6,31.4,403.3,32.4,403.1,33.2z M400.7,24.8c-0.3,0.6-1.3,0.8-2.4,0.3c-1.1-0.5-1.7-1.4-1.5-2c0.3-0.6,1.3-0.8,2.4-0.3  C400.3,23.2,400.9,24.1,400.7,24.8z M397.8,26.1c0.8,0.3,1.2,1,1,1.5c-0.2,0.5-1,0.6-1.8,0.3c-0.8-0.4-1.2-1-1-1.5  C396.2,25.9,397,25.8,397.8,26.1z M396.6,38.5c0.3-0.7,1.3-1,2.3-0.5c1,0.4,1.6,1.4,1.3,2.2c-0.3,0.8-1.3,1-2.3,0.5  C396.9,40.2,396.2,39.2,396.6,38.5z M399.3,37.1c-1-0.4-1.6-1.3-1.3-2c0.3-0.7,1.2-0.9,2.2-0.4s1.6,1.3,1.3,2  C401.2,37.3,400.3,37.5,399.3,37.1z M401.4,40.8c0.3-1,1.6-1.3,2.9-0.7c1.3,0.6,2,1.8,1.8,2.8c-0.3,1-1.6,1.3-2.9,0.7  C401.9,43,401.1,41.8,401.4,40.8z M404.2,40c-1.4-0.7-2.3-2-1.9-3c0.4-1,1.7-1.3,3.1-0.6c1.4,0.6,2.2,1.9,1.9,2.9  C407,40.3,405.7,40.6,404.2,40z M405.4,36.3c-1.4-0.6-2.2-1.9-1.9-2.8c0.4-1,1.7-1.2,3-0.6c1.3,0.6,2.2,1.8,1.9,2.8  C408.1,36.7,406.8,37,405.4,36.3z M406.6,32.7c-1.2-0.6-1.9-1.7-1.7-2.4c0.3-0.8,1.4-1,2.5-0.4c1.1,0.6,1.9,1.6,1.7,2.3  C408.9,33,407.8,33.2,406.6,32.7z M407.7,29.8c-1.3-0.6-2.1-1.7-1.8-2.5c0.3-0.8,1.5-1,2.7-0.4c1.3,0.6,2,1.7,1.8,2.5  C410.1,30.2,408.9,30.4,407.7,29.8z M405.4,21.2c-0.6-0.3-0.9-0.8-0.8-1.1c0.1-0.4,0.6-0.4,1.2-0.1c0.6,0.3,0.9,0.7,0.8,1.1  C406.5,21.4,406,21.5,405.4,21.2z M406.3,18.9c-0.8-0.4-1.3-1.1-1.1-1.5c0.2-0.4,1-0.5,1.8-0.1c0.8,0.4,1.3,1.1,1.1,1.5  C407.9,19.2,407.1,19.3,406.3,18.9z M408.1,21.7c0.2-0.6,1.1-0.6,2.2-0.1c1,0.5,1.7,1.4,1.5,2c-0.2,0.6-1.1,0.7-2.2,0.2  C408.6,23.2,407.9,22.4,408.1,21.7z M407.4,13.2c0.1-0.3,0.6-0.3,1.1,0c0.5,0.3,0.9,0.7,0.8,1c-0.1,0.3-0.6,0.3-1.1,0  C407.7,14,407.3,13.5,407.4,13.2z M406.3,15.1c0.1-0.4,0.8-0.4,1.5-0.1c0.7,0.4,1.1,1,1.1,1.3c-0.1,0.4-0.8,0.4-1.5,0.1  C406.7,16.1,406.2,15.5,406.3,15.1z M405.5,9.7c0.5,0.2,0.8,0.5,0.8,0.8c-0.1,0.3-0.5,0.3-1,0.1c-0.5-0.2-0.8-0.5-0.8-0.8  C404.6,9.5,405,9.5,405.5,9.7z M404.6,11.4c0.6,0.3,1.1,0.7,1,1.1c-0.1,0.3-0.7,0.4-1.3,0.1c-0.7-0.3-1.1-0.8-1-1.1  C403.3,11.1,403.9,11.1,404.6,11.4z M402.8,6.5c0.4,0.2,0.8,0.5,0.7,0.7c-0.1,0.3-0.4,0.3-0.9,0.1c-0.4-0.2-0.8-0.5-0.7-0.8  C402,6.4,402.4,6.4,402.8,6.5z M401.8,8.2c0.5,0.2,0.8,0.5,0.8,0.8c-0.1,0.3-0.6,0.3-1.1,0.1s-0.9-0.6-0.8-0.8S401.3,8,401.8,8.2z   M400.1,3.9c0.4,0.2,0.7,0.4,0.6,0.6c-0.1,0.3-0.4,0.3-0.8,0.1c-0.4-0.2-0.7-0.4-0.6-0.6C399.3,3.8,399.7,3.8,400.1,3.9z M398,20.3  c0.3-0.6,1.4-0.7,2.5-0.2c1.1,0.5,1.8,1.4,1.5,2c-0.3,0.6-1.3,0.8-2.5,0.3C398.4,21.8,397.8,21,398,20.3z M395.3,15.9  c0.2-0.4,1-0.4,1.7-0.1c0.7,0.3,1.1,0.9,1,1.3c-0.2,0.4-0.9,0.4-1.7,0.1C395.5,16.8,395.1,16.3,395.3,15.9z M395.8,18  c1,0.4,1.7,1.3,1.4,1.9c-0.3,0.6-1.3,0.7-2.4,0.3c-1.1-0.4-1.7-1.3-1.4-1.9C393.7,17.7,394.7,17.5,395.8,18z M390.6,14  c0.3-0.4,1.1-0.4,1.9-0.1c0.8,0.4,1.3,1,1,1.4c-0.3,0.4-1.1,0.5-1.9,0.1C390.8,15,390.3,14.4,390.6,14z M391,16.1  c1,0.4,1.5,1.1,1.3,1.7c-0.3,0.5-1.3,0.6-2.3,0.3c-1-0.4-1.5-1.1-1.3-1.7C389,15.9,390,15.8,391,16.1z M385.2,11.8  c0.4-0.4,1.5-0.5,2.5-0.1c1,0.4,1.6,1.1,1.3,1.7c-0.3,0.5-1.4,0.6-2.5,0.2C385.4,13,384.9,12.3,385.2,11.8z M386.1,14.2  c1,0.4,1.5,1,1.2,1.5c-0.3,0.5-1.3,0.6-2.3,0.3c-1-0.4-1.5-1-1.2-1.6C384.1,14,385.1,13.9,386.1,14.2z M380.5,10.1  c0.4-0.4,1.3-0.5,2.2-0.2c0.9,0.3,1.3,1,1.1,1.4c-0.3,0.4-1.3,0.5-2.2,0.2C380.6,11.2,380.2,10.5,380.5,10.1z M379.2,13  c0.3-0.4,1.1-0.5,1.8-0.3c0.8,0.3,1.1,0.8,0.9,1.1c-0.3,0.4-1.1,0.5-1.8,0.3C379.3,13.8,378.9,13.3,379.2,13z M379.9,27.8  c-0.3,0.5-1.3,0.7-2.2,0.4c-0.9-0.3-1.4-1-1-1.5c0.3-0.6,1.3-0.8,2.2-0.4C379.7,26.6,380.2,27.2,379.9,27.8z M375.6,8.5  c0.3-0.3,1.1-0.4,1.8-0.2c0.8,0.3,1.1,0.7,0.9,1.1c-0.3,0.4-1.1,0.4-1.8,0.2S375.3,8.8,375.6,8.5z M375,29.5  c0.3-0.4,1.1-0.6,1.8-0.4c0.7,0.3,1.1,0.8,0.8,1.3c-0.3,0.4-1,0.6-1.8,0.4C375,30.5,374.7,30,375,29.5z M370.6,6.7  c0.2-0.3,0.9-0.4,1.6-0.2c0.6,0.2,1,0.6,0.7,0.9c-0.3,0.3-1,0.4-1.6,0.2C370.6,7.4,370.3,7.1,370.6,6.7z M369.3,27.7  c0.3-0.3,0.9-0.5,1.5-0.3c0.6,0.2,0.9,0.6,0.7,1c-0.3,0.4-0.9,0.5-1.5,0.3C369.4,28.5,369.1,28.1,369.3,27.7z M365.1,69  c-0.3,0.6-1.1,0.8-1.7,0.6s-0.9-0.8-0.6-1.4c0.3-0.6,1.1-0.8,1.7-0.6S365.4,68.5,365.1,69z M365.9,26.7c-0.3,0.3-0.9,0.4-1.5,0.3  c-0.6-0.2-0.9-0.5-0.6-0.9c0.3-0.3,0.9-0.4,1.5-0.3C365.9,26,366.1,26.4,365.9,26.7z M370.8,66.4c-0.4,0.6-1.2,1-1.9,0.7  c-0.7-0.3-1-1-0.6-1.7c0.4-0.6,1.2-1,1.9-0.7C370.8,65,371.2,65.7,370.8,66.4z M372.8,61.4c-0.4,0.7-1.2,1-2,0.7  c-0.8-0.3-1.1-1-0.8-1.7c0.4-0.6,1.3-1,2-0.7C372.8,60,373.1,60.7,372.8,61.4z M373.5,25.7c-0.3,0.3-0.9,0.4-1.5,0.3  c-0.6-0.2-0.9-0.6-0.7-1c0.3-0.4,0.9-0.5,1.5-0.3C373.4,24.9,373.7,25.3,373.5,25.7z M377.6,63.4c-0.3,0.7-1.2,1-2,0.7  c-0.8-0.3-1.2-1.1-0.9-1.9c0.3-0.6,1.1-1,2-0.6C377.5,61.9,377.9,62.7,377.6,63.4z M379.9,58.9c-0.4,1-1.7,1.3-2.8,1  c-1.1-0.4-1.7-1.5-1.2-2.4c0.4-1,1.7-1.4,2.8-1C379.8,56.9,380.3,57.9,379.9,58.9z M381.7,53.9c-0.3,0.7-1.3,1-2.2,0.6  c-0.9-0.3-1.3-1.1-1-1.8c0.4-0.7,1.3-1,2.2-0.6C381.6,52.4,382,53.2,381.7,53.9z M381.7,33.1c-0.6-0.3-1-0.8-0.8-1.1  c0.2-0.4,0.9-0.6,1.5-0.3c0.6,0.3,1,0.8,0.8,1.1C383,33.2,382.3,33.3,381.7,33.1z M385.3,60.2c-0.3,0.7-1.2,1-2,0.7  c-0.8-0.3-1.2-1.1-0.9-1.9c0.3-0.7,1.1-1,2-0.6C385.2,58.7,385.6,59.5,385.3,60.2z M387.6,55.8c-0.4,0.9-1.5,1.3-2.7,0.9  c-1.1-0.4-1.7-1.5-1.3-2.4c0.4-1,1.6-1.3,2.7-0.9C387.4,53.8,388,54.9,387.6,55.8z M389.8,50.7c-0.4,1-1.6,1.3-2.8,0.8  c-1.2-0.5-1.8-1.6-1.4-2.5c0.4-0.9,1.6-1.3,2.8-0.8C389.5,48.8,390.1,49.8,389.8,50.7z M388.9,46.7c-1.1-0.5-1.7-1.5-1.4-2.3  c0.4-0.8,1.5-1.1,2.7-0.7c1.1,0.5,1.7,1.5,1.4,2.3C391.2,46.9,390.1,47.2,388.9,46.7z M393.2,57.4c-0.3,0.6-1,0.8-1.6,0.6  c-0.7-0.3-1.1-1-0.8-1.6c0.3-0.6,1-0.9,1.7-0.6C393.1,56.1,393.5,56.8,393.2,57.4z M395.7,53.3c-0.4,1-1.5,1.3-2.7,0.8  c-1.1-0.5-1.8-1.7-1.4-2.6c0.4-0.9,1.5-1.3,2.7-0.8C395.4,51.3,396,52.4,395.7,53.3z M397.6,48.7c-0.4,1-1.6,1.3-2.9,0.8  c-1.3-0.6-1.9-1.7-1.6-2.7c0.4-1,1.7-1.3,2.9-0.8C397.2,46.5,397.9,47.7,397.6,48.7z M396.4,44.8c-1.1-0.5-1.7-1.5-1.5-2.3  c0.3-0.9,1.4-1.1,2.5-0.6c1.1,0.5,1.7,1.5,1.5,2.3C398.6,45,397.6,45.3,396.4,44.8z M400.8,54.8c-0.2,0.6-0.8,0.8-1.5,0.5  c-0.6-0.3-1-1-0.8-1.5c0.2-0.6,0.8-0.8,1.5-0.5C400.6,53.6,401,54.2,400.8,54.8z M403.1,51.1c-0.3,0.9-1.3,1.2-2.4,0.8  c-1.1-0.5-1.7-1.6-1.5-2.5c0.3-0.9,1.3-1.2,2.4-0.7C402.7,49.2,403.3,50.2,403.1,51.1z M404.7,46.7c-0.3,1-1.5,1.3-2.7,0.7  c-1.2-0.6-1.9-1.7-1.7-2.7c0.4-0.8,1.5-1.1,2.7-0.6C404.3,44.6,405,45.7,404.7,46.7z M406.4,53.6c-0.6-0.3-1-1-0.8-1.5  c0.2-0.6,0.8-0.7,1.4-0.4c0.6,0.3,1,0.9,0.8,1.5C407.7,53.7,407,53.8,406.4,53.6z M408,78.9c-0.7-0.3-1.1-1.1-0.9-1.8  c0.2-0.7,0.8-1,1.5-0.7c0.7,0.3,1,1.1,0.9,1.8C409.4,78.9,408.7,79.2,408,78.9z M411.3,94.9c-0.2,0.8-0.8,1.2-1.5,1  c-0.7-0.3-1.1-1.1-0.9-2c0.2-0.8,0.9-1.3,1.5-1C411.2,93.3,411.5,94.1,411.3,94.9z M413.1,87.8c-0.2,1-1,1.4-1.8,1.1  c-0.8-0.4-1.3-1.3-1.1-2.3c0.2-0.9,1-1.3,1.8-1C412.7,85.9,413.2,86.9,413.1,87.8z M414.7,80.8c-0.2,1-1,1.5-2,1.1  c-0.9-0.4-1.5-1.5-1.3-2.5c0.3-1,1.1-1.4,2-1C414.3,78.7,414.8,79.8,414.7,80.8z M416,74.4c-0.1,1-1,1.4-2,1s-1.5-1.5-1.3-2.5  c0.2-1,1.1-1.3,2-0.9C415.6,72.4,416.2,73.4,416,74.4z M417.7,83.3c-0.6-0.3-1-1.1-1-1.8c0.2-0.7,0.8-1,1.4-0.7  c0.6,0.3,1.1,1.1,1,1.8S418.3,83.6,417.7,83.3z M419.2,77.1c-0.7-0.4-1.1-1.1-1-1.8c0.1-0.7,0.8-1,1.5-0.7c0.7,0.3,1.1,1.1,1,1.8  C420.5,77.1,419.9,77.4,419.2,77.1z M421.9,71.1c-0.1,0.8-0.8,1-1.5,0.7c-0.8-0.4-1.3-1.2-1.1-2c0.1-0.8,0.8-1,1.5-0.7  C421.6,69.5,422.1,70.4,421.9,71.1z M423.1,65.8c-0.1,0.8-0.8,1.1-1.6,0.7c-0.8-0.4-1.3-1.3-1.2-2.1c0.2-0.7,0.9-1,1.7-0.6  C422.6,64.2,423.2,65.1,423.1,65.8z M422.6,61.7c-0.8-0.4-1.3-1.3-1.2-2.1c0.1-0.7,0.8-1,1.7-0.6c0.8,0.4,1.3,1.3,1.2,2  C424.1,61.8,423.4,62.1,422.6,61.7z M423.3,57c-0.8-0.4-1.4-1.3-1.3-2c0.1-0.8,0.9-1,1.7-0.6c0.9,0.4,1.4,1.3,1.3,2  C424.9,57.2,424.1,57.4,423.3,57z M423.9,53.2c-1.1-0.6-1.8-1.7-1.7-2.6c0.1-1,1.1-1.2,2.2-0.6c1.1,0.6,1.8,1.7,1.7,2.5  C425.9,53.4,424.9,53.7,423.9,53.2z M427.7,63.9c-0.6-0.3-1-1-1-1.5c0.1-0.6,0.6-0.8,1.1-0.4c0.6,0.3,1,1,1,1.5  C428.8,64,428.3,64.3,427.7,63.9z M430.3,59.2c-0.1,1-1,1.3-2.1,0.8c-1.1-0.6-1.8-1.8-1.7-2.7c0.1-1,1-1.2,2.1-0.7  C429.7,57,430.5,58.2,430.3,59.2z M428.6,56.1c-1.3-0.7-2.3-2.2-2.2-3.3c0.1-1,1-1.4,2-1.1c-0.7-0.5-1.3-1.3-1.6-2.1  c-0.6,0.5-1.5,0.6-2.5,0.1c-1-0.5-1.8-1.4-2.2-2.3c-0.5,0.5-1.4,0.5-2.3,0.1c1.1,0.7,1.9,1.9,1.7,3c-0.2,1.1-1.5,1.5-2.9,0.8  c-1.4-0.7-2.3-2.1-2.1-3.2c0.2-1,1.3-1.3,2.6-0.9c-0.9-0.5-1.5-1.3-1.8-2.1c-0.6,0.4-1.5,0.5-2.6,0c-1.2-0.6-2.1-1.7-2.2-2.7  c-0.4,0.5-1.2,0.7-2.1,0.5c0.8,0.7,1.3,1.7,1.1,2.4c-0.3,1.1-1.6,1.5-3,0.8c-1.5-0.7-2.3-2.1-2-3.2c0.2-0.8,1.1-1.1,2.1-1  c-0.9-0.8-1.4-1.8-1.2-2.7c0.3-0.8,1.1-1.2,2.2-1c-1-0.8-1.5-1.7-1.2-2.5c0.2-0.8,1-1.1,1.9-1c-0.8-0.8-1.1-1.6-1-2.3  c0.3-0.8,1.2-1.1,2.4-0.7c-1.1-0.8-1.7-1.8-1.5-2.5c0.2-0.7,1-1,1.9-0.8c-0.8-0.7-1.2-1.4-1.1-2.1c-0.3,0.7-1.4,0.8-2.6,0.3  c-1.3-0.6-2-1.7-1.8-2.5c0.3-0.7,1.5-0.8,2.7-0.3c1.2,0.6,1.9,1.6,1.8,2.3c0.3-0.7,1.1-0.9,2.3-0.5c-1-0.6-1.5-1.5-1.3-2.1  c0.3-0.7,1.3-0.8,2.5-0.3c1.2,0.6,2,1.5,1.8,2.3c0.2-0.8,1.2-0.8,2.3-0.2c1,0.5,1.7,1.3,1.8,2c0.3-0.3,0.8-0.4,1.5-0.3  c-0.7-0.6-1.1-1.2-1-1.8c0.1-0.8,1.1-0.8,2.2-0.3c1.1,0.6,1.9,1.6,1.8,2.3c-0.1,0.5-0.7,0.7-1.5,0.5c0.7,0.5,1.1,1.2,1.3,1.7  c0.4-0.4,1.1-0.4,2.1,0.1c1,0.6,1.7,1.4,1.8,2.1c0.3-0.5,1.1-0.5,2.1,0c1.1,0.6,2,1.7,1.9,2.4c-0.1,0.6-0.8,0.8-1.7,0.5  c0.9,0.6,1.5,1.4,1.6,2.1c0.3-0.4,1.1-0.4,2,0c1.1,0.6,2,1.7,1.9,2.5c0,0.9-1,1.1-2.1,0.4c-1-0.5-1.8-1.5-1.9-2.2  c-0.2,0.3-0.8,0.5-1.4,0.3c0.7,0.6,1.2,1.4,1.2,2c0.3-0.5,1.1-0.5,2.1,0c1.1,0.6,2,1.8,2,2.7c0,0.9-1,1.1-2.2,0.5  c-1-0.6-1.9-1.5-2-2.4c-0.3,0.4-1,0.6-1.8,0.3c1,0.8,1.7,1.8,1.7,2.7c-0.1,0.8-0.6,1.1-1.5,1c0.6,0.6,1.1,1.3,1.2,2  c0.3-0.6,1.2-0.7,2.2-0.2c1.3,0.6,2.2,1.9,2.1,3c-0.1,1.1-1.1,1.3-2.3,0.7c-1.1-0.6-1.9-1.6-2.1-2.6c-0.3,0.5-0.8,0.7-1.6,0.5  c0.7,0.7,1.2,1.5,1.4,2.3c0.3-0.6,1.2-0.7,2.3-0.2c1.3,0.7,2.2,2,2.2,3.1c-0.1,1.1-1.1,1.5-2.4,0.8c-1.1-0.6-1.9-1.7-2.1-2.7  c-0.3,0.7-1.1,0.9-2.1,0.5c1,0.8,1.7,1.9,1.6,2.9C431.1,56.3,429.9,56.7,428.6,56.1z M436.4,46.1c-0.1,0.8-1,1.1-2,0.5  c-1.1-0.6-1.9-1.7-1.8-2.6c0.1-0.9,1-1.1,2-0.5C435.6,44.1,436.4,45.2,436.4,46.1z M438.1,61.6c1,0.6,1.7,1.7,1.7,2.5  c0,1-0.8,1.3-1.8,0.8c-1-0.5-1.7-1.7-1.7-2.6C436.4,61.4,437.2,61.1,438.1,61.6z M432.3,71.7c-0.6-0.3-1-1.1-1-1.7  c0.1-0.6,0.6-0.8,1.1-0.5c0.6,0.3,1,1.1,1,1.7C433.4,71.8,432.9,72,432.3,71.7z M432.7,67.2c-1-0.5-1.7-1.7-1.6-2.6  c0.1-1,1-1.3,1.9-0.8c1,0.5,1.7,1.7,1.6,2.5C434.5,67.4,433.8,67.8,432.7,67.2z M433.2,62.5c-1.1-0.6-1.9-1.8-1.8-2.9  c0.1-1,1-1.3,2.1-0.8c1.1,0.6,1.8,1.8,1.8,2.8C435.3,62.7,434.4,63.1,433.2,62.5z M433.6,58.4c-1.2-0.7-2-2-2-3  c0.1-1.1,1.1-1.4,2.2-0.8c1.1,0.6,2,1.9,2,3C435.7,58.7,434.8,59.1,433.6,58.4z M437.2,80.1c-0.6-0.4-1-1.1-1-1.8  c0.1-0.6,0.6-0.9,1.1-0.6c0.6,0.3,1.1,1.1,1,1.8C438.3,80.2,437.9,80.5,437.2,80.1z M437.4,75.2c-1-0.6-1.7-1.8-1.7-2.9  c0.1-1.1,0.9-1.4,1.8-0.9c1,0.5,1.7,1.8,1.7,2.9C439.2,75.4,438.5,75.8,437.4,75.2z M437.9,70.2c-1-0.6-1.8-1.9-1.8-3  c0.1-1,0.9-1.4,2-0.8c1,0.6,1.8,1.8,1.8,2.9C439.8,70.4,439,70.8,437.9,70.2z M438.2,60.5c-0.9-0.5-1.6-1.6-1.5-2.4  c0-0.8,0.8-1,1.7-0.6c0.9,0.5,1.5,1.5,1.5,2.3C439.9,60.6,439.1,61,438.2,60.5z M438.3,56.3c-0.9-0.5-1.5-1.5-1.5-2.3  c0.1-0.8,0.8-1,1.7-0.5c0.9,0.4,1.5,1.4,1.5,2.2C439.9,56.6,439.2,56.8,438.3,56.3z M438.5,52.4c-1-0.6-1.7-1.7-1.7-2.5  c0.1-0.8,0.9-1,1.8-0.5c1,0.6,1.7,1.6,1.7,2.4C440.3,52.7,439.5,52.9,438.5,52.4z M437.1,46.4c0.1-0.7,0.7-0.8,1.6-0.4  c0.8,0.4,1.5,1.3,1.5,2c0,0.7-0.7,0.9-1.6,0.4C437.8,48.1,437.1,47.1,437.1,46.4z M438.9,45.5c-1.1-0.6-1.8-1.7-1.8-2.5  c0.1-0.8,0.9-1,1.9-0.4c1.1,0.6,1.8,1.7,1.8,2.5C440.7,45.8,440,46,438.9,45.5z M442.2,89.1c-0.6-0.4-1.1-1.3-1.1-2.2  c0.1-0.8,0.6-1.1,1.3-0.7c0.6,0.4,1.1,1.3,1.1,2.1C443.4,89.1,442.9,89.5,442.2,89.1z M442.4,83.8c-0.9-0.6-1.5-1.8-1.5-2.8  c0.1-1,0.8-1.4,1.7-0.9c0.9,0.5,1.5,1.7,1.5,2.8C444,83.9,443.3,84.3,442.4,83.8z M442.7,78.4c-1.1-0.6-1.8-2-1.8-3.2  c0.1-1.1,0.9-1.6,2-1c1.1,0.6,1.8,2,1.8,3.2C444.6,78.6,443.8,79.1,442.7,78.4z M443.1,47.6c-0.9-0.5-1.7-1.5-1.7-2.3  c0-0.7,0.7-0.9,1.7-0.4c1,0.5,1.7,1.5,1.7,2.2S444,48.1,443.1,47.6z M445.2,28.8c-0.1-0.3,0.3-0.3,0.7-0.1c0.4,0.3,0.8,0.6,0.8,0.9  c0.1,0.3-0.3,0.3-0.7,0.1C445.6,29.5,445.2,29.2,445.2,28.8z M447,43.9c0.9,0.5,1.6,1.5,1.7,2.2c0,0.7-0.6,0.9-1.5,0.4  c-0.9-0.6-1.7-1.5-1.7-2.2C445.4,43.6,446.1,43.4,447,43.9z M447.5,77.7c0.8,0.4,1.3,1.5,1.4,2.4c0,0.8-0.6,1.1-1.3,0.7  c-0.8-0.5-1.4-1.5-1.4-2.4C446.2,77.5,446.8,77.3,447.5,77.7z M446.6,63.2c0-0.4,0.4-0.6,0.8-0.3c0.4,0.3,0.8,0.8,0.8,1.3  c0,0.4-0.4,0.6-0.8,0.3C447,64.3,446.6,63.7,446.6,63.2z M447.5,61.5c-0.8-0.5-1.5-1.5-1.5-2.3c0-0.8,0.6-1.1,1.5-0.6  c0.8,0.5,1.5,1.5,1.5,2.3C449.1,61.7,448.4,62,447.5,61.5z M447.2,49.7c-0.8-0.4-1.5-1.3-1.5-2s0.6-0.8,1.4-0.4  c0.8,0.4,1.4,1.3,1.4,2C448.6,49.9,448,50.1,447.2,49.7z M448.4,56.5c0.1,0.6-0.4,0.8-1.1,0.4c-0.6-0.4-1.2-1.1-1.2-1.8  c0-0.6,0.5-0.8,1.2-0.4C447.9,55.1,448.4,55.8,448.4,56.5z M447.2,98.4c-0.6-0.4-1.1-1.3-1.1-2.2c0-0.8,0.4-1.1,1.1-0.7  c0.6,0.4,1,1.3,1.1,2.1C448.2,98.4,447.8,98.7,447.2,98.4z M447.5,93.1c-0.9-0.6-1.5-1.8-1.5-2.9c0-1.1,0.7-1.5,1.5-1  c0.8,0.6,1.5,1.8,1.5,2.9C449,93.3,448.4,93.7,447.5,93.1z M447.4,87.2c-1-0.6-1.7-1.9-1.7-3c0-1.1,0.7-1.5,1.7-1  c0.9,0.6,1.6,1.9,1.6,3C449.1,87.4,448.4,87.8,447.4,87.2z M448.7,29.7c-0.4-0.2-0.7-0.5-0.7-0.8c0-0.3,0.3-0.3,0.6-0.1  c0.4,0.2,0.6,0.5,0.7,0.8C449.4,29.8,449.1,29.8,448.7,29.7z M450.8,46.2c0.8,0.5,1.5,1.3,1.5,2c0.1,0.7-0.5,0.8-1.3,0.4  c-0.8-0.5-1.5-1.4-1.5-2C449.4,45.9,450,45.8,450.8,46.2z M451.2,103.2c-0.7-0.5-1.3-1.7-1.3-2.7c0-1,0.5-1.3,1.2-0.8  c0.6,0.5,1.2,1.7,1.3,2.7C452.4,103.3,451.9,103.7,451.2,103.2z M451.9,97.1c-0.8-0.6-1.4-1.8-1.4-2.9c0-1,0.6-1.4,1.4-0.9  c0.8,0.6,1.4,1.8,1.3,2.9C453.2,97.3,452.6,97.7,451.9,97.1z M453.9,109.7c-0.6-0.5-1-1.6-1-2.5c0-0.9,0.4-1.2,1-0.8  c0.6,0.4,1,1.5,1,2.5C454.8,109.8,454.5,110.2,453.9,109.7z M456.3,70.3c-0.5-0.3-1-1.1-1-1.7c0-0.6,0.4-0.7,0.9-0.4  c0.5,0.3,1,1.1,1,1.6C457.2,70.5,456.8,70.7,456.3,70.3z M458.5,52.8c-0.5-0.3-1-1-1.1-1.5c-0.1-0.5,0.3-0.6,0.9-0.3  c0.6,0.4,1.1,1,1.1,1.5C459.5,53.1,459.1,53.2,458.5,52.8z M460,67.2c0.4,0.3,0.8,0.9,0.8,1.3c0,0.4-0.3,0.6-0.7,0.3  c-0.4-0.3-0.8-0.9-0.8-1.3C459.3,67.1,459.6,66.9,460,67.2z M460.4,72.9c-0.4-0.3-0.8-0.9-0.8-1.4c0-0.4,0.3-0.6,0.7-0.3  c0.4,0.3,0.8,1,0.8,1.4C461.1,73,460.8,73.2,460.4,72.9z M462.1,51.9c-0.5-0.4-1-1-1.1-1.5c-0.1-0.5,0.3-0.6,0.8-0.3  c0.6,0.4,1,1,1.1,1.5C463,52.2,462.7,52.3,462.1,51.9z M464.7,76.1c-0.4-0.3-0.7-0.9-0.8-1.3c-0.1-0.4,0.2-0.6,0.6-0.3  c0.3,0.3,0.6,0.9,0.8,1.3C465.4,76.2,465.1,76.4,464.7,76.1z M465.9,54.3c-0.4-0.3-0.9-0.9-1-1.3c-0.1-0.4,0.3-0.6,0.7-0.3  c0.4,0.3,0.9,0.9,1,1.3C466.6,54.5,466.3,54.6,465.9,54.3z"></path></g></svg>