<svg xmlns="http://www.w3.org/2000/svg" width="560" height="140" viewBox="0 0 560 140" fill="none"><path d="M238.451 69.7097C238.451 74.5269 240.258 79.1434 243.67 82.5555C247.082 85.9677 251.698 87.7742 256.516 87.7742C266.552 87.7742 274.58 79.7455 274.58 69.7097C274.781 64.8925 272.974 60.0753 269.562 56.6631C266.15 53.2509 261.333 51.2437 256.516 51.4444C246.48 51.6451 238.451 59.6738 238.451 69.7097ZM245.276 69.7097C245.276 63.2867 249.892 57.2652 256.716 57.2652C263.541 57.2652 268.157 62.2831 268.157 69.7097C268.358 72.9211 267.154 75.9319 264.946 78.3405C262.738 80.7491 259.727 81.9534 256.716 81.9534C249.892 82.1541 245.276 76.9355 245.276 69.7097Z" fill="#2A2A4B"></path><path d="M198.91 69.7098C198.709 74.527 200.515 79.3442 203.928 82.7564C207.34 86.1686 212.157 87.975 216.974 87.7743C222.394 87.975 227.612 85.3657 230.824 80.9499L231.024 80.7492L226.006 76.5342L225.806 76.9356C223.999 80.3478 220.587 82.3549 216.773 82.1542C209.949 82.1542 205.333 76.7349 205.333 69.7098C205.132 66.4983 206.336 63.4876 208.343 61.079C210.551 58.6704 213.562 57.2653 216.773 57.2653C220.386 57.2653 223.799 59.2725 225.806 62.2833L226.006 62.484L231.024 58.4696L230.824 58.2689C227.411 54.0539 222.193 51.6453 216.773 51.6453C211.956 51.6453 207.34 53.4517 204.128 56.8639C200.917 60.2761 198.91 64.8926 198.91 69.7098Z" fill="#2A2A4B"></path><path d="M453.419 72.5197V86.9713H459.842V72.5197L472.487 52.448H465.462L456.63 66.2975L448.2 52.448H440.773L453.419 72.5197Z" fill="#2A2A4B"></path><path d="M336 52.448V86.9713H342.624V74.1254C343.025 74.1254 343.627 74.3261 344.229 74.3261C352.66 74.3261 358.48 70.7132 358.48 63.4874C358.48 56.6631 353.462 52.448 344.029 52.448H336V52.448ZM342.624 57.6666H344.229C349.649 57.6666 351.857 59.6738 351.857 63.2867C351.857 66.8996 349.448 68.9068 344.229 68.9068C343.627 68.9068 343.226 68.9068 342.624 68.7061V57.6666Z" fill="#2A2A4B"></path><path d="M292.244 68.3047L303.083 87.975L313.721 68.3047L317.936 86.9714H324.76L315.728 51.8459L303.283 75.1291L290.437 51.8459L281.807 87.1721H288.23L292.244 68.3047Z" fill="#2A2A4B"></path><path d="M115.011 72.9212L92.1289 51.8459V87.1721H98.3511V66.699L121.434 87.975V52.4481H115.011V72.9212Z" fill="#2A2A4B"></path><path d="M70.4512 52.448V86.9713H77.0748V52.448H70.4512Z" fill="#2A2A4B"></path><path d="M62.0212 86.9714L45.161 51.6453L28.3008 86.9714H34.9244L38.3366 79.5449H51.5839L54.7954 86.9714H62.0212V86.9714ZM40.7452 74.1256L45.161 64.0897L49.1753 74.1256H40.7452Z" fill="#2A2A4B"></path><path d="M16.6595 68.7061C19.4695 67.5018 21.276 64.491 21.276 61.4803C21.276 55.4588 16.4588 52.448 8.22939 52.448H0V86.9713H9.83512C18.6667 86.9713 23.4839 83.3584 23.4839 76.9355C23.2832 72.9211 20.4731 69.5089 16.6595 68.7061ZM9.43369 72.319C14.0502 72.319 16.6595 73.5233 16.6595 77.1362C16.6595 80.3476 14.2509 81.7527 9.43369 81.7527H6.62366V72.319H9.43369ZM6.62366 67.1003V57.6666H7.82796C12.6452 57.6666 15.0538 58.8709 15.0538 62.4838C15.0538 66.0967 12.6452 67.1003 8.02867 67.1003H6.62366Z" fill="#2A2A4B"></path><path d="M170.81 87.1721H178.438C178.438 87.1721 172.617 80.5485 171.613 79.3442C172.416 78.3406 177.434 70.7134 177.434 70.7134H171.212L168.201 75.3299L162.782 69.1076C167.398 66.699 170.208 63.2868 170.208 59.6739C170.208 54.8567 165.993 51.6453 160.574 51.6453C154.552 51.6453 150.538 55.2582 150.538 60.0754C150.739 63.2868 152.144 66.0969 154.352 68.3048C150.739 70.3119 147.527 73.3227 147.527 78.3406C147.527 83.76 151.943 87.975 158.366 87.975C161.979 87.975 165.592 86.57 168 83.76L170.81 87.1721ZM156.56 60.2761C156.56 59.2725 156.961 58.0682 157.764 57.4661C158.567 56.6632 159.57 56.2618 160.574 56.2618C161.578 56.2618 162.581 56.4625 163.384 57.2653C164.187 57.8675 164.588 58.8711 164.388 59.8747C164.388 62.2833 161.979 64.0897 159.57 65.294C157.965 64.0897 156.76 62.2833 156.56 60.2761ZM164.388 79.9463C163.183 81.5521 161.176 82.5557 158.968 82.5557C157.563 82.7564 156.359 82.1542 155.355 81.3514C154.352 80.3478 153.75 79.1435 153.75 77.7385C153.95 75.3299 155.355 73.3227 157.362 72.1184H157.563L164.388 79.9463Z" fill="#2A2A4B"></path><path d="M426.522 72.9212L403.641 51.8459V86.9714H410.064V66.699L432.945 87.975V52.4481H426.522V72.9212Z" fill="#2A2A4B"></path><path d="M395.211 86.9714L378.35 51.6453L361.49 86.9714H368.114L371.526 79.5449H384.773L387.985 86.9714H395.211ZM373.935 74.1256L378.35 64.0897L382.365 74.1256H373.935Z" fill="#2A2A4B"></path><path d="M540.128 71.3154L534.508 46.4265L519.053 66.4982L540.128 71.3154ZM559.999 69.7097C559.999 86.5699 546.15 100.419 529.29 100.419C512.43 100.419 498.58 86.5699 498.58 69.7097C498.58 52.8495 512.43 39 529.29 39C530.896 39 532.501 39.2007 534.107 39.4014L531.498 42.8136H529.29C522.465 42.8136 516.042 45.4229 511.025 50.0394C506.207 54.8566 503.397 61.2796 503.397 68.1039C503.397 82.3548 515.039 93.9964 529.29 93.9964C543.541 93.9964 555.182 82.3548 555.182 68.1039C555.182 57.6667 548.559 48.233 538.723 44.6201L537.72 40.405C550.967 44.0179 559.999 56.0609 559.999 69.7097Z" fill="#2A2A4B"></path></svg>