<svg xmlns="http://www.w3.org/2000/svg" width="560" height="140" viewBox="0 0 560 140" fill="none"><path d="M413.558 66.6715C413.199 67.2886 413.309 67.7929 413.344 68.249C413.47 69.907 413.422 71.565 413.411 73.223C413.363 79.8254 413.671 86.4225 413.617 93.0249C413.601 95.1336 413.639 97.2504 413.711 99.3618C413.738 100.183 413.446 100.43 412.641 100.421C409.193 100.384 405.743 100.379 402.293 100.421C401.483 100.432 401.309 100.14 401.309 99.3993C401.322 82.8087 401.317 66.2181 401.314 49.6275C401.314 48.1761 401.319 48.1815 402.773 48.1815C406.808 48.1841 410.843 48.2002 414.878 48.1681C415.533 48.1627 415.917 48.4176 416.22 48.9273C421.341 57.4855 426.463 66.0464 431.587 74.6046C432.872 76.7509 434.168 78.8891 435.461 81.03C435.59 81.2419 435.676 81.5746 436.003 81.4834C436.336 81.3895 436.22 81.0541 436.22 80.81C436.201 74.5966 436.277 68.3832 436.121 62.1724C436.011 57.7833 436.15 53.3942 435.995 49.0051C435.973 48.4122 436.201 48.1815 436.784 48.1815C440.33 48.1868 443.877 48.1868 447.424 48.1707C448.191 48.1681 448.414 48.5007 448.411 49.2465C448.395 64.8284 448.4 80.4103 448.403 95.9921C448.403 97.1967 448.392 98.3986 448.419 99.6032C448.432 100.183 448.223 100.416 447.625 100.413C443.298 100.4 438.97 100.4 434.643 100.413C434.028 100.413 433.712 100.105 433.422 99.622C430.852 95.3268 428.274 91.0396 425.687 86.7551C422.329 81.191 418.962 75.6348 415.6 70.0733C414.937 68.9787 414.285 67.8788 413.564 66.6688L413.558 66.6715Z" fill="#2A2A4B"></path><path d="M247.455 66.9497C247.198 67.1643 247.284 67.4434 247.284 67.6821C247.308 74.349 247.241 81.0211 247.41 87.6853C247.509 91.621 247.423 95.5513 247.53 99.4844C247.549 100.177 247.308 100.413 246.645 100.41C243.098 100.399 239.552 100.405 236.005 100.421C235.372 100.423 235.13 100.15 235.141 99.538C235.16 98.4971 235.146 97.4561 235.146 96.4152C235.146 80.7019 235.146 64.9913 235.125 49.2779C235.125 48.4838 235.383 48.1619 236.19 48.1646C240.322 48.1914 244.456 48.2021 248.587 48.178C249.325 48.1726 249.784 48.398 250.165 49.0419C252.85 53.5678 255.565 58.0749 258.272 62.5874C261.816 68.495 265.363 74.3999 268.907 80.3075C269.073 80.5865 269.237 80.8682 269.417 81.1392C269.554 81.3484 269.677 81.657 269.996 81.5309C270.273 81.4209 270.114 81.1392 270.112 80.9272C270.101 80.1492 270.088 79.3685 270.085 78.5905C270.055 71.3683 270.085 64.1488 269.972 56.9294C269.935 54.429 269.889 51.9259 269.822 49.4255C269.798 48.4892 270.147 48.1565 271.075 48.1699C274.262 48.2075 277.452 48.186 280.642 48.1887C281.702 48.1887 282.233 48.7369 282.233 49.8333C282.233 55.5906 282.233 61.348 282.233 67.108C282.233 77.842 282.222 88.5787 282.252 99.3127C282.252 100.198 281.948 100.434 281.125 100.429C276.961 100.402 272.795 100.399 268.631 100.421C267.939 100.423 267.582 100.104 267.252 99.5514C264.14 94.3333 261.017 89.126 257.886 83.9213C254.637 78.5207 251.38 73.1256 248.115 67.7358C247.944 67.4514 247.831 67.0865 247.458 66.9524L247.455 66.9497Z" fill="#2A2A4B"></path><path d="M294.673 74.361C294.673 66.004 294.681 57.647 294.662 49.29C294.662 48.4825 294.871 48.1391 295.762 48.1471C300.935 48.19 306.107 48.1364 311.277 48.2008C315.505 48.2544 319.717 48.5388 323.806 49.7568C330.124 51.6375 335.283 55.0581 338.459 61.0113C339.785 63.4956 340.587 66.1757 340.973 68.9632C341.566 73.2476 341.536 77.5107 340.423 81.7281C339.143 86.5786 336.686 90.6914 332.777 93.8786C329.187 96.8055 325.085 98.646 320.565 99.6145C317.979 100.167 315.376 100.427 312.734 100.417C307.073 100.392 301.415 100.39 295.754 100.433C294.882 100.438 294.662 100.189 294.665 99.3381C294.694 91.0133 294.684 82.6885 294.684 74.3637H294.676L294.673 74.361ZM307.113 74.2135C307.113 78.9272 307.118 83.6436 307.105 88.3573C307.105 88.9395 307.116 89.3902 307.888 89.3714C310.84 89.2909 313.796 89.5619 316.728 88.9019C320.447 88.0649 323.68 86.4659 325.783 83.1687C328.281 79.2491 328.514 74.9083 327.752 70.4682C326.743 64.5955 323.186 61.1213 317.455 59.7691C314.421 59.0528 311.336 59.0662 308.243 59.0716C307.33 59.0716 307.089 59.3882 307.094 60.2654C307.132 64.9148 307.11 69.5641 307.116 74.2135H307.113Z" fill="#2A2A4B"></path><path d="M187.377 74.2772C187.377 65.9819 187.377 57.6866 187.377 49.3913C187.377 48.1518 187.396 48.125 188.624 48.125C199.396 48.1223 210.165 48.125 220.936 48.0981C221.736 48.0981 221.964 48.4147 221.961 49.1337C221.948 52.1599 221.934 55.1835 221.969 58.2097C221.977 58.9046 221.637 59.0548 221.084 59.0548C220.335 59.0548 219.587 59.0333 218.838 59.0333C212.885 59.0333 206.929 59.0333 200.976 59.0333C199.702 59.0333 199.699 59.0494 199.699 60.3587C199.702 62.6364 199.699 64.9114 199.694 67.1891C199.691 68.6084 199.688 68.6137 201.153 68.6164C207.27 68.6218 213.387 68.6245 219.506 68.6245C220.345 68.6245 220.767 69.0349 220.77 69.8559C220.778 72.5548 220.767 75.2564 220.802 77.9553C220.81 78.6582 220.601 78.948 219.861 78.9426C213.776 78.9077 207.691 78.9024 201.609 78.8863C201.545 78.8863 201.481 78.8809 201.414 78.8809C200.269 78.897 199.697 79.4756 199.699 80.6167C199.699 83.1868 199.731 85.757 199.686 88.3271C199.672 89.1803 199.954 89.4673 200.804 89.4647C207.93 89.4432 215.056 89.4727 222.181 89.4378C223.032 89.4351 223.241 89.7249 223.236 90.5056C223.211 93.5962 223.217 96.6841 223.252 99.7748C223.257 100.344 223.01 100.44 222.557 100.437C221.712 100.432 220.864 100.437 220.019 100.437C209.508 100.44 198.999 100.437 188.488 100.464C187.629 100.464 187.377 100.215 187.38 99.3536C187.409 90.9939 187.396 82.6342 187.396 74.2718H187.38L187.377 74.2772Z" fill="#2A2A4B"></path><path d="M49.033 74.2999C49.033 65.9751 49.0464 57.6503 49.0142 49.3228C49.0115 48.4214 49.2718 48.1477 50.1705 48.1504C60.9716 48.1772 71.77 48.1772 82.571 48.1611C83.3812 48.1611 83.6763 48.4589 83.6737 49.245C83.6549 52.2364 83.6388 55.2304 83.6763 58.2217C83.6871 59.1285 83.1129 59.0159 82.571 59.0159C78.5038 59.0159 74.4394 59.0078 70.3722 59.0051C67.7377 59.0051 65.1031 59.04 62.4686 58.989C61.594 58.9729 61.3606 59.2573 61.3794 60.1051C61.4303 62.4445 61.3874 64.7866 61.3901 67.1287C61.3901 68.6365 61.4008 68.6472 62.863 68.6472C68.9798 68.6526 75.094 68.6687 81.2108 68.6311C82.1176 68.6257 82.3832 68.886 82.3644 69.7928C82.3135 72.4246 82.3376 75.0618 82.3779 77.6937C82.3913 78.5442 82.1713 78.9063 81.2269 78.901C75.1771 78.8607 69.1247 78.8741 63.0749 78.8715C62.9461 78.8715 62.8147 78.8688 62.6859 78.8715C61.3981 78.8929 61.3901 78.8929 61.3874 80.1861C61.382 82.9172 61.4196 85.651 61.3713 88.3821C61.3552 89.246 61.6584 89.5303 62.4901 89.5277C69.1596 89.5062 75.8264 89.5116 82.4959 89.5008C85.3504 89.4955 84.8139 89.3318 84.8353 91.8107C84.8568 94.2172 84.8487 96.6237 84.8407 99.0302C84.8353 100.417 84.8219 100.42 83.4456 100.417C75.6386 100.415 67.8316 100.409 60.0245 100.407C56.7703 100.407 53.5187 100.366 50.2671 100.428C49.2798 100.449 48.9928 100.168 48.9981 99.1805C49.033 90.8878 49.0196 82.5952 49.0196 74.3026H49.0357L49.033 74.2999Z" fill="#2A2A4B"></path><path d="M388.143 100.385C386.158 100.385 384.172 100.372 382.19 100.393C381.581 100.401 381.272 100.187 381.05 99.5912C379.722 96.0445 378.383 92.5032 377.146 88.9216C376.057 85.7693 374.788 82.6786 373.632 79.5505C372.226 75.7462 370.855 71.9286 369.476 68.1136C368.945 66.6488 368.446 65.1732 367.904 63.7111C367.802 63.4374 367.783 62.9733 367.356 63.0162C367.042 63.0484 366.983 63.4294 366.884 63.703C365.28 68.0519 363.673 72.4007 362.079 76.755C360.094 82.1743 358.119 87.5989 356.134 93.0209C355.319 95.2423 354.465 97.4503 353.671 99.6797C353.467 100.254 353.143 100.38 352.582 100.377C348.611 100.361 344.644 100.377 340.673 100.377C339.737 100.377 339.672 100.211 340.043 99.3578C341.032 97.0693 341.979 94.7648 342.953 92.4683C345.14 87.3038 347.334 82.1448 349.521 76.983C351.23 72.9534 352.925 68.9211 354.642 64.8942C357.036 59.2844 359.447 53.6853 361.838 48.0782C363.515 44.1425 365.17 40.1961 366.833 36.255C366.957 35.9653 366.962 35.528 367.346 35.4984C367.756 35.4689 367.78 35.9197 367.904 36.2014C370.238 41.6582 372.556 47.1205 374.898 52.5746C376.639 56.6311 378.423 60.666 380.153 64.7278C382.235 69.6186 384.264 74.5336 386.348 79.4217C388.18 83.7169 390.058 87.9933 391.918 92.2778C392.961 94.687 393.997 97.0988 395.049 99.5027C395.413 100.334 394.871 100.383 394.303 100.385C392.253 100.393 390.203 100.388 388.154 100.388V100.383L388.143 100.385Z" fill="#2A2A4B"></path><path d="M157.258 101.761C150.513 101.707 144.308 99.9632 138.888 95.8102C137.01 94.3722 137.008 94.2729 138.663 92.5908C140.737 90.4821 142.856 88.4163 144.922 86.2996C145.432 85.7764 145.778 85.8891 146.204 86.3398C148.369 88.6149 151.012 90.0985 154.049 90.8228C156.748 91.4667 159.449 91.5767 161.995 90.1575C165.14 88.4056 165.038 83.7616 162.435 82.0312C160.445 80.7059 158.239 80.003 156.034 79.2437C153.003 78.1974 149.909 77.3577 147.039 75.85C141.002 72.6789 138.438 67.0905 139.495 60.3942C140.482 54.1352 144.57 50.6207 150.183 48.4932C153.263 47.3261 156.496 46.8432 159.742 46.9023C165.966 47.0123 171.688 48.7937 176.665 52.6838C177.355 53.223 177.365 53.553 176.743 54.1888C174.532 56.4343 172.397 58.755 170.216 61.03C169.309 61.9771 169.325 61.9207 168.373 61.0783C164.7 57.8375 160.525 56.5926 155.744 58.1165C152.911 59.0179 151.597 61.8724 152.858 64.397C153.63 65.9423 155.138 66.6666 156.667 67.2569C159.718 68.4373 162.916 69.1912 165.961 70.3931C168.759 71.4984 171.423 72.8211 173.634 74.9163C176.145 77.296 177.365 80.2525 177.54 83.6731C177.693 86.6725 177.293 89.5512 175.952 92.2984C174.398 95.4748 171.962 97.7257 168.872 99.2818C165.234 101.111 161.344 101.9 157.258 101.763V101.761Z" fill="#2A2A4B"></path><path d="M111.277 101.755C104.425 101.626 98.1794 99.7159 92.7869 95.3509C92.5589 95.1685 92.355 94.9565 92.1323 94.7661C91.6789 94.3744 91.746 94.0175 92.1457 93.6178C94.5281 91.2247 96.9131 88.8316 99.2659 86.409C99.7837 85.8778 100.095 85.7974 100.666 86.3742C103.54 89.277 107.043 90.9833 111.111 91.2274C113.555 91.375 116.068 91.1147 117.785 88.9926C119.269 87.1576 119.406 84.4935 117.544 82.6236C115.948 81.0219 113.828 80.4022 111.789 79.6671C108.86 78.6101 105.817 77.883 102.968 76.5899C98.4396 74.5375 94.9922 71.4684 94.0586 66.3817C92.811 59.5754 95.0029 53.2949 101.892 49.7214C105.267 47.9722 108.868 47.1405 112.661 46.9795C119.368 46.6925 125.429 48.4739 130.835 52.4659C131.937 53.2815 131.967 53.3486 131.065 54.2983C128.849 56.6324 126.601 58.9315 124.399 61.2763C123.881 61.8263 123.529 61.7565 123.033 61.2817C119.763 58.1428 115.873 56.914 111.408 57.7189C109.316 58.0972 107.135 59.503 106.88 61.9175C106.689 63.7284 107.4 65.0725 108.838 66.0705C110.381 67.141 112.165 67.6775 113.928 68.2356C117.735 69.4428 121.574 70.5509 125.053 72.6059C130.475 75.8092 132.895 81.2097 131.868 87.4205C131.288 90.9135 129.987 93.9478 127.414 96.4026C124.699 98.9915 121.41 100.446 117.785 101.218C115.645 101.674 113.48 101.862 111.28 101.757L111.277 101.755Z" fill="#2A2A4B"></path><path d="M477.617 48.177C484.286 48.177 490.956 48.1877 497.623 48.1582C498.323 48.1555 498.567 48.3889 498.567 49.0355C498.562 52.1583 498.562 55.2784 498.567 58.4013C498.567 58.9754 498.355 59.1364 497.735 59.131C493.411 59.0988 489.083 59.139 484.759 59.1256C483.927 59.1229 483.825 59.5307 483.825 60.2283C483.838 72.5854 483.833 84.9451 483.83 97.3022C483.83 98.0508 483.812 98.7993 483.833 99.5451C483.849 100.1 483.653 100.412 483.06 100.412C479.321 100.409 475.578 100.406 471.838 100.412C471.302 100.412 471.184 100.095 471.186 99.6524C471.192 98.9039 471.2 98.1554 471.2 97.4096C471.2 85.0176 471.194 72.6283 471.218 60.2363C471.218 59.3698 470.886 59.0854 470.073 59.0881C465.909 59.1095 461.745 59.0881 457.582 59.1364C456.734 59.1471 456.396 58.9056 456.406 58.0498C456.439 55.1255 456.46 52.1986 456.428 49.2743C456.417 48.3729 456.83 48.1716 457.614 48.177C459.924 48.1985 462.234 48.177 464.544 48.177C468.903 48.177 473.263 48.177 477.622 48.177H477.617Z" fill="#2A2A4B"></path><path d="M514.498 51.8536C514.498 52.7309 514.498 53.6082 514.498 54.4855C514.498 54.9201 514.512 55.4379 513.951 55.462C513.318 55.4889 513.433 54.9147 513.428 54.5177C513.414 53.6726 513.444 52.8275 513.441 51.9824C513.441 51.7758 513.53 51.4727 513.245 51.4056C512.956 51.3385 512.891 51.6471 512.813 51.8402C512.448 52.7443 512.092 53.6484 511.767 54.566C511.606 55.0194 511.464 55.4298 510.876 55.4245C510.275 55.4191 510.286 54.8825 510.136 54.5284C509.817 53.7853 509.581 53.0072 509.269 52.2587C509.157 51.9851 509.122 51.4941 508.719 51.5746C508.317 51.6551 508.475 52.1085 508.478 52.409C508.483 53.1199 508.529 53.8336 508.55 54.5445C508.564 54.9952 508.513 55.4433 507.92 55.4352C507.362 55.4272 507.37 54.9764 507.367 54.5821C507.357 53.1199 507.343 51.6551 507.354 50.193C507.359 49.5115 507.163 49.1252 506.388 49.313C506.206 49.3559 505.999 49.321 505.806 49.2942C504.977 49.1869 504.62 49.4901 504.663 50.3754C504.727 51.7061 504.695 53.0394 504.687 54.3728C504.684 54.8343 504.84 55.4272 504.059 55.4325C503.241 55.4379 503.359 54.8289 503.362 54.3218C503.37 53.0877 503.405 51.8536 503.413 50.6168C503.421 49.3076 503.413 49.3076 502.13 49.3076C502.002 49.3076 501.87 49.3023 501.741 49.3076C501.355 49.3237 501.108 49.1869 501.122 48.755C501.132 48.3874 501.248 48.1245 501.685 48.1245C503.246 48.1245 504.813 48.0252 506.364 48.154C506.919 48.1996 507.37 48.476 507.987 48.154C508.432 47.9179 508.878 48.2828 509.071 48.8462C509.505 50.1017 509.991 51.3412 510.452 52.5887C510.544 52.8329 510.603 53.1226 510.906 53.1602C511.257 53.2031 511.298 52.8516 511.383 52.6397C511.84 51.529 512.261 50.4049 512.698 49.2888C512.805 49.0179 512.934 48.7577 513.049 48.4894C513.229 48.0628 513.597 48.0762 513.956 48.1245C514.353 48.1782 514.485 48.4786 514.49 48.8301C514.501 49.8388 514.493 50.8449 514.493 51.8536C514.495 51.8536 514.498 51.8536 514.501 51.8536H514.498Z" fill="#2A2A4B"></path></svg>