<svg xmlns="http://www.w3.org/2000/svg" width="560" height="140" viewBox="0 0 560 140" fill="none"><path d="M93.0611 16.6949C96.5586 16.6949 99.3437 13.8451 99.3437 10.4123C99.3437 6.91472 96.4938 4.12964 93.0611 4.12964C89.5635 4.12964 86.7784 6.97949 86.7784 10.4123C86.7137 13.8451 89.5635 16.6949 93.0611 16.6949Z" fill="#2A2A4B"></path><path d="M304.788 24.6614C295.397 24.6614 286.524 28.8714 280.5 36.2551C275.837 41.9548 273.311 49.0794 273.311 56.3336V80.4278C273.311 84.1845 275.966 86.7752 279.723 86.7752C283.544 86.7752 286.07 84.2492 286.07 80.4278V56.0745C286.135 51.7998 287.625 47.5897 290.28 44.2865C293.842 39.947 299.154 37.421 304.788 37.421H304.983C306.537 37.421 308.027 36.9028 309.193 35.9313C310.488 34.8949 311.33 33.4053 311.525 31.8508C311.719 30.1668 311.265 28.4828 310.1 27.1226C308.416 25.05 306.278 24.6614 304.788 24.6614Z" fill="#2A2A4B"></path><path d="M134.511 23.2363C118.448 23.2363 107.178 33.988 107.178 49.3384V70.1294V70.3237C107.113 72.3963 105.365 74.0803 103.292 74.0803C101.219 74.0803 99.5353 72.4611 99.4057 70.4532V28.936C99.4057 25.1794 96.815 22.5886 93.0583 22.5886C89.3017 22.5886 86.7109 25.1794 86.7109 28.936V70.1294C86.7109 79.2619 94.1594 86.7103 103.292 86.7103C112.101 86.7103 119.355 79.8448 119.873 71.0361C119.938 70.7123 119.938 70.4532 119.938 70.1294V50.0509C119.938 41.307 125.832 35.413 134.576 35.413C143.319 35.413 149.213 41.307 149.213 50.0509V80.3629C149.213 84.1196 151.804 86.7103 155.561 86.7103C159.317 86.7103 161.908 84.1196 161.908 80.3629V49.3384C161.843 33.988 150.574 23.2363 134.511 23.2363Z" fill="#2A2A4B"></path><path d="M200.448 74.1452C196.433 74.1452 192.223 72.4612 188.66 69.5466C184.256 65.9195 181.73 60.6084 181.795 54.8439V37.3562H194.554C197.922 37.3562 200.707 34.6359 200.707 31.2031C200.707 27.8351 197.922 25.05 194.554 25.05H181.795V10.4121C181.795 6.65548 179.139 4.0647 175.383 4.0647C171.626 4.0647 169.035 6.65548 169.035 10.4121V54.8439C169.035 64.365 173.18 73.2384 180.629 79.3268C186.458 84.1197 193 86.5162 200.124 86.5162H200.189C203.946 86.5162 206.537 83.8606 206.537 80.104C206.537 76.5417 204.075 74.1452 200.448 74.1452Z" fill="#2A2A4B"></path><path d="M472.417 75.1168L447.999 50.6987L466.587 34.8302C467.883 33.6644 468.789 31.6565 468.789 29.843C468.789 26.0864 466.199 23.4956 462.442 23.4956C460.629 23.4956 458.621 24.3376 457.131 25.6978L434.203 45.3876V10.3474C434.203 6.59077 431.612 4 427.855 4C424.099 4 421.508 6.59077 421.508 10.3474V80.4279C421.508 84.1845 424.099 86.7753 427.855 86.7753C431.612 86.7753 434.203 84.1845 434.203 80.4279V63.264C434.203 62.3572 434.591 61.5152 435.304 60.8675C436.664 59.7017 438.672 59.8312 439.902 61.1266L463.349 84.5731C464.515 85.8685 466.523 86.7753 468.336 86.7753C472.093 86.7753 474.684 84.1845 474.684 80.4279C474.619 78.6791 473.777 76.6713 472.417 75.1168Z" fill="#2A2A4B"></path><path d="M347.017 74.1452C343.001 74.1452 338.791 72.4612 335.229 69.5466C330.824 65.9195 328.298 60.6084 328.298 54.8439V37.3562H341.058C344.491 37.3562 346.952 34.7654 346.952 31.2031C346.952 27.6408 344.491 25.05 341.058 25.05H328.298V10.4121C328.298 6.65548 325.643 4.0647 321.951 4.0647C318.194 4.0647 315.604 6.65548 315.604 10.4121V54.8439C315.604 64.365 319.749 73.2384 327.197 79.3268C333.026 84.1197 339.568 86.5162 346.693 86.5162H346.758C350.514 86.5162 353.105 83.8606 353.105 80.104C353.04 76.5417 350.644 74.1452 347.017 74.1452Z" fill="#2A2A4B"></path><path d="M403.436 30.7497C397.671 26.0215 390.805 23.5603 383.487 23.5603C374.095 23.5603 365.222 27.7703 359.198 35.154C347.993 48.8204 349.936 68.2512 363.602 79.3915C369.302 84.0549 376.427 86.6457 383.746 86.6457C385.3 86.6457 386.855 86.5162 388.409 86.3219C389.575 86.1276 391.259 85.6094 392.554 84.0549C394.756 81.3994 394.303 77.3189 391.647 75.1167C390.676 74.2747 389.381 73.8861 387.956 73.8861C387.567 73.8861 387.178 73.8861 386.725 73.9509C385.818 74.0804 384.847 74.1452 383.94 74.1452C372.8 74.1452 364.444 65.5956 364.444 55.0382C364.444 44.4808 372.994 35.996 383.487 35.996C392.036 35.996 399.29 41.631 401.687 49.4681H383.422C380.313 49.4681 377.722 51.9941 377.722 55.1678C377.722 58.2767 380.183 60.8675 383.292 60.8675H407.581C410.236 60.8675 412.374 59.7664 413.604 58.2767C414.641 57.0461 415.094 55.4916 415.029 53.8076C414.641 44.8047 410.366 36.4494 403.436 30.7497Z" fill="#2A2A4B"></path><path d="M257.055 30.7497C251.29 26.0215 244.425 23.5603 237.106 23.5603C227.714 23.5603 218.841 27.7703 212.817 35.154C201.612 48.8204 203.555 68.2512 217.221 79.3915C222.921 84.0549 230.046 86.6457 237.365 86.6457C238.919 86.6457 240.474 86.5162 242.028 86.3219C243.194 86.1276 244.878 85.6094 246.173 84.0549C248.376 81.3994 247.922 77.3189 245.267 75.1167C244.295 74.2747 243 73.8861 241.575 73.8861C241.186 73.8861 240.798 73.8861 240.344 73.9509C239.437 74.0804 238.466 74.1452 237.559 74.1452C226.419 74.1452 218.063 65.5956 218.063 55.0382C218.063 44.4808 226.613 35.996 237.106 35.996C245.655 35.996 252.909 41.631 255.306 49.4681H237.041C233.932 49.4681 231.341 51.9941 231.341 55.1678C231.341 58.2767 233.802 60.8675 236.911 60.8675H261.2C263.855 60.8675 265.993 59.7664 267.223 58.2767C268.26 57.0461 268.713 55.4916 268.648 53.8076C268.26 44.8047 263.985 36.4494 257.055 30.7497Z" fill="#2A2A4B"></path><path d="M358.938 129.782V126.608C358.938 126.285 358.679 126.09 358.355 126.09H355.829C355.506 126.09 355.246 126.349 355.246 126.608V129.782C355.246 130.106 355.506 130.365 355.829 130.365H358.355C358.744 130.365 358.938 130.106 358.938 129.782ZM348.575 127.386C348.057 127.515 346.891 127.58 345.92 127.58C343.523 127.58 342.94 125.896 342.94 123.564V121.427C342.94 119.16 343.523 117.411 345.92 117.411C346.567 117.411 347.798 117.476 348.575 117.605V127.386ZM352.267 129.07V109.574C352.267 109.25 352.008 108.991 351.684 108.991H349.093C348.769 108.991 348.51 109.25 348.51 109.574V114.497C347.474 114.367 346.503 114.302 345.855 114.302C341.321 114.302 339.184 116.958 339.184 121.362V123.499C339.184 127.839 341.386 130.559 345.855 130.559C347.668 130.559 349.741 130.3 351.49 129.847C352.138 129.653 352.267 129.523 352.267 129.07ZM333.419 121.103H327.46V120.973C327.46 118.771 328.691 117.541 330.44 117.541C332.189 117.541 333.354 118.836 333.354 120.973V121.103H333.419ZM337.176 123.046V121.492C337.176 117.346 334.844 114.367 330.505 114.367C326.23 114.367 323.769 117.087 323.769 121.492V123.564C323.769 129.07 327.719 130.624 330.569 130.624C333.095 130.624 334.196 130.495 336.01 130.171C336.528 130.106 336.593 129.912 336.593 129.458V127.58C336.593 127.321 336.399 127.127 336.075 127.127H336.01C334.844 127.256 332.901 127.386 330.828 127.386C328.173 127.386 327.46 125.443 327.46 123.823V123.759H336.593C336.981 123.759 337.176 123.499 337.176 123.046ZM322.926 116.958V114.95C322.926 114.626 322.667 114.367 322.344 114.367C321.242 114.367 319.688 114.626 318.328 115.727V115.144C318.328 114.82 318.069 114.561 317.745 114.561H315.284C314.96 114.561 314.701 114.82 314.701 115.144V129.782C314.701 130.106 314.96 130.365 315.284 130.365H317.874C318.198 130.365 318.457 130.106 318.457 129.782V118.512C319.623 117.929 320.789 117.476 322.344 117.476C322.667 117.476 322.926 117.217 322.926 116.958ZM311.721 129.782V115.144C311.721 114.82 311.462 114.561 311.138 114.561H308.548C308.224 114.561 307.965 114.82 307.965 115.144V126.349C307.188 126.738 305.827 127.45 304.791 127.45C303.949 127.45 303.431 127.256 303.042 126.932C302.524 126.479 302.395 125.637 302.395 124.212V115.079C302.395 114.756 302.136 114.497 301.812 114.497H299.221C298.897 114.497 298.638 114.756 298.638 115.079V124.212C298.638 126.544 299.027 128.292 300.063 129.329C300.905 130.106 302.136 130.495 303.496 130.495C305.309 130.495 306.41 130.041 307.9 129.07V129.717C307.9 130.041 308.159 130.3 308.483 130.3H311.074C311.462 130.365 311.721 130.106 311.721 129.782ZM296.242 126.22C296.242 124.795 295.918 123.37 293.586 121.945L289.894 119.678C289.182 119.289 288.793 118.966 288.793 118.512C288.793 117.67 289.376 117.346 290.736 117.346C292.355 117.346 294.557 117.541 295.335 117.67H295.464C295.723 117.67 295.918 117.476 295.918 117.152V115.533C295.918 115.209 295.723 114.95 295.399 114.885C293.975 114.561 292.679 114.302 290.412 114.302C286.85 114.302 285.101 115.727 285.101 118.512C285.101 120.131 286.073 121.556 287.433 122.398L291.254 124.73C292.161 125.313 292.485 125.637 292.485 126.155C292.485 126.932 292.226 127.515 290.477 127.515C289.635 127.515 287.109 127.386 285.749 127.191H285.619C285.36 127.191 285.166 127.45 285.166 127.645V129.329C285.166 129.653 285.36 129.912 285.684 129.976C287.239 130.43 289.635 130.559 290.671 130.559C294.428 130.559 296.242 128.616 296.242 126.22ZM283.158 126.22C283.158 124.795 282.834 123.37 280.438 121.945L276.746 119.678C276.033 119.289 275.645 118.966 275.645 118.512C275.645 117.67 276.228 117.346 277.588 117.346C279.207 117.346 281.409 117.541 282.187 117.67H282.316C282.575 117.67 282.769 117.476 282.769 117.152V115.533C282.769 115.209 282.575 114.95 282.251 114.885C280.826 114.561 279.531 114.302 277.264 114.302C273.702 114.302 271.953 115.727 271.953 118.512C271.953 120.131 272.925 121.556 274.285 122.398L278.106 124.73C279.013 125.313 279.337 125.637 279.337 126.155C279.337 126.932 279.078 127.515 277.329 127.515C276.487 127.515 273.961 127.386 272.601 127.191H272.471C272.212 127.191 272.018 127.45 272.018 127.645V129.329C272.018 129.653 272.212 129.912 272.536 129.976C274.09 130.43 276.422 130.559 277.523 130.559C281.345 130.559 283.158 128.616 283.158 126.22ZM264.699 121.362H259.776L261.784 113.072C261.849 112.748 261.978 112.618 262.238 112.618C262.497 112.618 262.626 112.748 262.691 113.072L264.699 121.362ZM270.722 129.847C270.722 129.847 270.722 129.782 270.722 129.717L266.124 112.165C265.476 109.574 263.468 109.315 262.238 109.315C261.007 109.315 258.999 109.574 258.351 112.165L253.753 129.717C253.753 129.782 253.753 129.847 253.753 129.847C253.753 130.106 254.012 130.3 254.271 130.3H257.25C257.509 130.3 257.704 130.106 257.768 129.847L259.064 124.536H265.541L266.836 129.847C266.901 130.106 267.095 130.3 267.354 130.3H270.334C270.528 130.365 270.722 130.171 270.722 129.847ZM245.462 129.782V126.608C245.462 126.285 245.203 126.09 244.879 126.09H242.418C242.094 126.09 241.835 126.349 241.835 126.608V129.782C241.835 130.106 242.094 130.365 242.418 130.365H244.879C245.203 130.365 245.462 130.106 245.462 129.782ZM241.706 115.015C241.706 114.756 241.511 114.561 241.188 114.561H238.338C238.079 114.561 237.819 114.82 237.755 115.015L234.711 127.062H234.646H234.516C234.322 127.062 234.257 126.932 234.128 126.479L231.278 115.079C231.213 114.82 231.019 114.561 230.76 114.561H227.91C227.521 114.561 227.392 114.756 227.392 115.015C227.392 115.079 227.392 115.144 227.392 115.209L231.083 128.033C231.666 130.171 232.703 130.365 233.545 130.365H233.998L233.739 131.207C233.35 132.697 232.703 133.021 231.537 133.021C230.76 133.021 229.14 132.891 228.363 132.826H228.298C227.975 132.826 227.715 133.021 227.715 133.344V135.158C227.715 135.417 227.975 135.547 228.298 135.611C228.946 135.806 230.371 136 231.278 136C235.099 136 236.135 134.64 236.977 131.596L241.641 115.209C241.706 115.144 241.706 115.079 241.706 115.015ZM226.55 129.847V128.098C226.55 127.839 226.355 127.709 225.967 127.709H224.477C223.441 127.709 223.376 127.515 223.376 126.155V117.346H225.902C226.226 117.346 226.485 117.087 226.485 116.763V115.144C226.485 114.82 226.226 114.561 225.902 114.561H223.376V111.647C223.376 111.388 223.182 111.258 222.923 111.258H222.793L220.202 111.711C219.878 111.776 219.619 111.97 219.619 112.294V114.561H216.964C216.64 114.561 216.381 114.82 216.381 115.144V116.375C216.381 116.699 216.64 116.893 216.964 116.958L219.619 117.346V126.155C219.619 129.912 220.915 130.624 224.088 130.624C224.736 130.624 225.319 130.559 225.967 130.43C226.42 130.3 226.55 130.171 226.55 129.847ZM214.567 129.782V115.144C214.567 114.82 214.308 114.561 213.984 114.561H211.394C211.07 114.561 210.811 114.82 210.811 115.144V129.782C210.811 130.106 211.07 130.365 211.394 130.365H213.984C214.308 130.365 214.567 130.041 214.567 129.782ZM214.697 111.906V109.444C214.697 109.121 214.438 108.862 214.114 108.862H211.394C211.07 108.862 210.811 109.121 210.811 109.444V111.906C210.811 112.23 211.07 112.489 211.394 112.489H214.114C214.438 112.424 214.697 112.23 214.697 111.906ZM207.572 129.782V109.639C207.572 109.315 207.378 109.056 207.054 109.056H204.463C204.139 109.056 203.88 109.315 203.88 109.639V129.782C203.88 130.106 204.139 130.365 204.463 130.365H207.054C207.378 130.365 207.572 130.041 207.572 129.782ZM196.95 126.867C196.108 127.321 195.072 127.645 194.1 127.645C192.675 127.645 192.092 127.256 192.092 125.896V125.766C192.092 124.212 192.675 123.37 195.201 123.37H196.95V126.867ZM200.642 129.782V119.678C200.642 116.116 198.44 114.302 194.489 114.302C192.546 114.302 190.926 114.497 189.825 114.756C189.437 114.82 189.307 115.015 189.307 115.339V117.152C189.307 117.541 189.502 117.605 189.825 117.605H189.955C190.862 117.476 192.74 117.411 194.554 117.411C196.173 117.411 197.015 117.865 197.015 119.678V120.909H195.266C190.408 120.909 188.465 122.593 188.465 125.766V125.896C188.465 129.653 190.991 130.559 193.323 130.559C194.683 130.559 195.978 130.106 197.274 129.329V129.782C197.274 130.106 197.533 130.365 197.857 130.365H200.253C200.383 130.365 200.642 130.106 200.642 129.782ZM185.874 129.782V115.144C185.874 114.82 185.615 114.561 185.291 114.561H182.701C182.377 114.561 182.118 114.82 182.118 115.144V126.349C181.341 126.738 179.98 127.45 178.944 127.45C178.102 127.45 177.584 127.256 177.195 126.932C176.677 126.479 176.548 125.637 176.548 124.212V115.079C176.548 114.756 176.289 114.497 175.965 114.497H173.374C173.05 114.497 172.791 114.756 172.791 115.079V124.212C172.791 126.544 173.18 128.292 174.216 129.329C175.058 130.106 176.289 130.495 177.649 130.495C179.462 130.495 180.563 130.041 182.053 129.07V129.717C182.053 130.041 182.312 130.3 182.636 130.3H185.227C185.615 130.365 185.874 130.106 185.874 129.782ZM166.055 121.815C166.055 125.507 164.76 127.191 161.975 127.191C159.254 127.191 157.894 125.572 157.894 121.815V118.059C157.894 114.367 159.189 112.683 161.975 112.683C164.695 112.683 166.055 114.367 166.055 118.059V121.815ZM170.006 121.815V118.059C170.006 111.906 166.638 109.315 162.039 109.315C157.441 109.315 154.073 111.906 154.073 118.059V121.815C154.073 127.127 156.534 129.782 160.226 130.43V131.077C160.226 133.927 162.104 135.028 164.76 135.028C165.666 135.028 166.962 134.834 167.545 134.705C167.933 134.575 168.128 134.381 168.128 134.122V132.373C168.128 132.114 167.869 131.919 167.48 131.919H164.76C164.306 131.919 163.918 131.725 163.918 131.013V130.43C167.48 129.782 170.006 127.127 170.006 121.815ZM144.487 129.782V109.639C144.487 109.315 144.292 109.056 143.969 109.056H141.378C141.054 109.056 140.795 109.315 140.795 109.639V129.782C140.795 130.106 141.054 130.365 141.378 130.365H143.969C144.292 130.365 144.487 130.041 144.487 129.782ZM133.865 126.867C133.023 127.321 131.986 127.645 131.015 127.645C129.59 127.645 129.007 127.256 129.007 125.896V125.766C129.007 124.212 129.59 123.37 132.116 123.37H133.865V126.867ZM137.556 129.782V119.678C137.556 116.116 135.354 114.302 131.403 114.302C129.46 114.302 127.841 114.497 126.74 114.756C126.351 114.82 126.222 115.015 126.222 115.339V117.152C126.222 117.541 126.481 117.605 126.74 117.605H126.869C127.776 117.476 129.655 117.411 131.403 117.411C133.087 117.411 133.865 117.865 133.865 119.678V120.909H132.116C127.258 120.909 125.25 122.593 125.25 125.766V125.896C125.25 129.653 127.776 130.559 130.108 130.559C131.468 130.559 132.764 130.106 134.059 129.329V129.782C134.059 130.106 134.318 130.365 134.642 130.365H137.038C137.297 130.365 137.556 130.106 137.556 129.782ZM123.89 129.847V128.098C123.89 127.839 123.696 127.709 123.307 127.709H121.817C120.781 127.709 120.716 127.515 120.716 126.155V117.346H123.242C123.566 117.346 123.825 117.087 123.825 116.763V115.144C123.825 114.82 123.566 114.561 123.242 114.561H120.716V111.647C120.716 111.388 120.522 111.258 120.263 111.258H120.133L117.543 111.711C117.219 111.776 116.96 111.97 116.96 112.294V114.561H114.304C113.98 114.561 113.721 114.82 113.721 115.144V116.375C113.721 116.699 113.98 116.893 114.304 116.958L116.96 117.346V126.155C116.96 129.912 118.255 130.624 121.429 130.624C122.012 130.624 122.659 130.559 123.307 130.43C123.761 130.3 123.89 130.171 123.89 129.847ZM109.511 123.629C109.511 125.896 108.475 127.386 106.532 127.386C104.589 127.386 103.553 125.896 103.553 123.629V121.362C103.553 119.095 104.589 117.605 106.532 117.605C108.475 117.605 109.511 119.095 109.511 121.362V123.629ZM113.203 123.629V121.362C113.203 117.346 110.936 114.367 106.532 114.367C102.128 114.367 99.8607 117.346 99.8607 121.362V123.629C99.8607 127.645 102.128 130.624 106.532 130.624C110.871 130.559 113.203 127.58 113.203 123.629ZM100.832 112.294V110.092C100.832 109.768 100.573 109.574 100.249 109.574H86.5829C86.2591 109.574 86 109.833 86 110.092V112.294C86 112.618 86.2591 112.813 86.5829 112.813H91.4406V129.847C91.4406 130.171 91.6997 130.43 92.0236 130.43H94.8086C95.1325 130.43 95.3916 130.171 95.3916 129.847V112.813H100.314C100.573 112.813 100.832 112.618 100.832 112.294Z" fill="#2A2A4B"></path></svg>