<svg xmlns="http://www.w3.org/2000/svg" xmlns:xlink="http://www.w3.org/1999/xlink" id="Layer_1" x="0px" y="0px" viewBox="0 0 560 140" style="enable-background:new 0 0 560 140;" xml:space="preserve"><style type="text/css">	.st0{clip-path:url(#SVGID_00000160175537715900350990000012652010015922004865_);}	.st1{fill:none;}	.st2{fill:#2A2A4B;}</style><g>	<defs>		<rect id="SVGID_1_" y="0" width="560" height="140"></rect>	</defs>	<clipPath id="SVGID_00000097490224818083551080000005515020264865892242_">		<use xlink:href="#SVGID_1_" style="overflow:visible;"></use>	</clipPath>	<g style="clip-path:url(#SVGID_00000097490224818083551080000005515020264865892242_);">		<rect x="86" y="-5" class="st1" width="388" height="150"></rect>	</g></g><g>	<path class="st2" d="M212,89.3c0-16.1,0-32.2,0-48.3c0-2-0.1-4.1-0.6-6.1c-1.6-7-5.8-11.6-12.8-13.4c-3.5-0.9-7.2-1-10.7-0.4  c-5.1,0.9-9.4,3.3-12.4,7.8c-0.1,0.1-0.1,0.2-0.3,0.3c-0.1-0.2-0.3-0.3-0.4-0.5c-2.1-3.3-5.1-5.5-8.8-6.8  c-4.9-1.7-9.9-1.7-14.8-0.2c-5.7,1.7-9.5,5.4-11.4,11c-0.8,2.5-1.2,5.1-1.2,7.8c0,16.3,0,32.6,0,48.8c0,0.3,0,0.6,0,0.9  c0.2,2.1,1.5,3.4,3.6,3.4c1.6,0,3.2,0,4.8,0c0.7,0,1.4-0.2,2.1-0.4c1.5-0.5,2.2-1.7,2.4-3.2c0-0.5,0-0.9,0-1.4c0-15,0-30,0-45  c0-1.6,0.1-3.2,0.5-4.8c0.9-3.2,2.6-5.6,6-6.3c1.6-0.4,3.3-0.3,4.9,0.3c3,1,4.6,3.3,5.4,6.2c0.4,1.6,0.5,3.2,0.5,4.9  c0,15,0,30,0,45c0,0.5,0,0.9,0,1.4c0.2,2,1.4,3.3,3.2,3.3c2.1,0.1,4.2,0.1,6.4,0c1.7-0.1,2.8-1.1,3.1-2.7c0.1-0.6,0.2-1.2,0.2-1.9  c0-14.4,0-28.9,0-43.3c0-1.1-0.1-2.2,0-3.3c0.1-1.4,0.3-2.8,0.7-4.2c0.8-2.7,2.6-4.6,5.3-5.5c1.2-0.4,2.5-0.4,3.7-0.4  c1.8,0.1,3.3,0.8,4.6,2c1.2,1.1,1.9,2.5,2.3,4c0.5,1.8,0.7,3.6,0.7,5.5c0,14.9,0,29.9,0,44.8c0,0.6,0,1.2,0.1,1.8  c0.2,1.7,1.4,3,3.2,3.1c2.1,0.1,4.2,0.1,6.4,0c1.8-0.1,3-1.3,3.2-3.1C212,90.2,212,89.7,212,89.3z"></path>	<path class="st2" d="M366.6,82.1c1.5-3.3,2.1-6.8,2.1-10.4c0-9.6,0-19.3,0-28.9c0-2.1-0.2-4.2-0.7-6.2c-1.6-6.7-5.5-11.4-12-13.8  c-3.2-1.2-6.5-1.5-9.9-1.5c-5.5,0-11.1,0-16.6,0c-0.4,0-0.9,0-1.3,0c-1.8,0.2-3,1.4-3.2,3.2c-0.1,0.5-0.1,1.1-0.1,1.6  c0,10.4,0,20.8,0,31.2c0,10.4,0,20.7,0,31.1c0,0.6,0,1.2,0.1,1.8c0.2,1.6,1.3,2.7,2.9,2.9c0.5,0.1,1,0.1,1.5,0.1  c5.6,0,11.1,0,16.7,0c2.9,0,5.7-0.2,8.5-1.1C360.1,90.5,364.2,87.3,366.6,82.1z M348.1,81.1c-0.8,0.2-1.7,0.3-2.6,0.3  c-2.3,0-4.6,0-6.9,0c-0.2,0-0.5,0-0.8-0.1c0-16.1,0-32.1,0-48.3c1.9,0,3.8,0,5.6,0c1.4,0,2.8,0,4.2,0.2c4.3,0.7,7.2,3.6,8,7.9  c0.2,1,0.2,1.9,0.2,2.9c0,8.8,0,17.6,0,26.4c0,1.4-0.1,2.7-0.5,4.1C354.3,78.1,351.8,80.3,348.1,81.1z"></path>	<path class="st2" d="M420.6,35.9c-1.8-7.5-6.2-12.5-13.7-14.7c-5.4-1.6-10.9-1.5-16.4,0.1c-6,1.8-10.1,5.7-12.3,11.6  c-1.1,2.9-1.6,5.9-1.6,9c0,10.2,0,20.4,0,30.6c0,2.4,0.3,4.8,1,7.1c1.9,6.7,6,11.3,12.6,13.5c5.8,1.9,11.8,1.9,17.6,0  c6.1-2,10.1-6.1,12.2-12.1c0.9-2.8,1.4-5.6,1.4-8.5c0-5,0-10,0-15.1c0-4.9,0-9.7,0-14.6C421.3,40.4,421.1,38.1,420.6,35.9z   M408.4,57.3c0,4.7,0,9.3,0,14c0,1.6-0.2,3.2-0.7,4.7c-0.9,2.9-2.6,5.2-5.7,6.1c-4.4,1.3-9.5,0-11.5-5.5c-0.6-1.6-0.9-3.3-0.9-5.1  c0-9.5,0-19.1,0-28.6c0-2.1,0.4-4.2,1.4-6.1c1.6-3.3,4.4-4.9,8-4.9c3.7,0,6.4,1.6,8,4.9c1,2,1.4,4.1,1.4,6.3  C408.4,47.8,408.4,52.5,408.4,57.3C408.4,57.3,408.4,57.3,408.4,57.3z"></path>	<path class="st2" d="M254,22.6c-2.6-1.3-5.4-2-8.3-2.3c-3.9-0.4-7.8-0.2-11.6,1c-5.9,1.8-10,5.6-12.3,11.3  c-1.3,3.2-1.8,6.5-1.8,9.9c0,9.8,0,19.7,0,29.5c0,2.4,0.3,4.9,0.9,7.2c1.9,7,6.2,11.8,13.2,13.9c5.7,1.7,11.4,1.6,17-0.1  c3.2-1,6-2.8,8.3-5.3c3.4-3.9,5-8.5,5.2-13.6c0.2-5.6,0-11.2,0-16.8c0,0,0,0,0.1,0c0-4.9,0-9.7,0-14.6c0-2.8-0.3-5.5-1-8.1  C262.1,29.3,259,25.2,254,22.6z M251.9,69.6c0,2-0.1,3.9-0.6,5.8c-0.5,1.8-1.3,3.4-2.7,4.8c-1.5,1.5-3.3,2.2-5.4,2.3  c-0.9,0-1.8,0-2.7-0.1c-2.9-0.5-5-2.2-6.2-4.8c-1-2-1.3-4.1-1.4-6.3c0-0.5,0-1,0-1.5c0-8.4,0-16.8,0-25.2c0-1.9,0.1-3.8,0.7-5.7  c0.1-0.3,0.2-0.6,0.3-0.9c2.1-5.9,7.5-7,11.8-5.6c2,0.7,3.5,2,4.6,3.9c1,1.7,1.5,3.6,1.6,5.6c0.1,1.5,0.1,3,0.1,4.5  c0,3.6,0,7.3,0,10.9C251.9,61.4,251.9,65.5,251.9,69.6z"></path>	<path class="st2" d="M316,35.5c-1.9-6.9-6.1-11.6-13-13.7c-5.4-1.6-10.9-1.6-16.4,0.1c-6.5,2-10.7,6.3-12.8,12.7  c-0.9,2.9-1.2,6-1.2,9c0,7.2,0,14.4,0,21.7c0,7.9,0,15.8,0,23.7c0,0.6,0,1.2,0.1,1.8c0.2,1.7,1.4,2.9,3,3c2.2,0.1,4.3,0.1,6.5,0  c1.8-0.1,3-1.3,3.2-3.1c0.1-0.5,0.1-1.1,0.1-1.6c0-14.3,0-28.6,0-42.8c0-1.3,0-2.6,0.1-3.9c0.1-1.7,0.6-3.3,1.3-4.8  c2.8-6,10.2-5.8,13.6-3.1c1.7,1.4,2.7,3.1,3.3,5.2c0.6,1.9,0.7,3.9,0.7,5.9c0,14.5,0,29,0,43.5c0,0.5,0,1,0,1.5  c0.1,2.1,1.4,3.3,3.5,3.3c1.8,0,3.5,0,5.3,0c2.1,0,3.3-1.2,3.6-3.3c0-0.3,0-0.6,0-0.9c0-15.6,0-31.2,0-46.8  C316.9,40.3,316.6,37.9,316,35.5z"></path>	<path class="st2" d="M354.4,111c-0.7,1.6-1.5,3.1-2.2,4.7c-0.1,0.3-0.3,0.6-0.5,0.9c-0.2-0.4-0.3-0.7-0.5-1  c-0.7-1.6-1.5-3.2-2.2-4.8c-0.2-0.3-0.2-0.8-0.9-0.7c-0.6,3.1-1.1,6.3-1.7,9.5c0.6,0,1.1,0,1.7,0c0.1-0.8,0.3-1.6,0.4-2.4  c0.1-0.8,0.1-1.7,0.6-2.6c0.5,1.1,0.9,2,1.3,2.9c0.3,0.6,0.6,1.3,0.9,1.9c0.3,0.6,0.6,0.5,0.9,0c0.1-0.2,0.2-0.4,0.3-0.6  c0.5-1.1,1-2.3,1.5-3.4c0.1-0.2,0.3-0.4,0.5-0.8c0.3,1.8,0.6,3.4,0.8,5c0.6,0,1.1,0,1.6,0c0-1.3-1.3-8.8-1.7-9.6  C354.7,110.3,354.6,110.7,354.4,111z"></path>	<path class="st2" d="M241.4,110.2c-2.9,0.1-4.8,2.2-4.9,5c0,2.7,2.2,4.8,4.9,4.8c2.7,0,4.8-2.1,4.9-4.8  C246.3,112.4,244.1,110.1,241.4,110.2z M241.3,118.1c-1.7,0-3-1.4-3-3.1c0-1.7,1.4-3.1,3.1-3.1c1.7,0,3.1,1.4,3.1,3.2  C244.5,116.9,243.1,118.2,241.3,118.1z"></path>	<path class="st2" d="M291.3,110.2c-3.2,0.1-4.9,2.5-4.9,4.9c0,2.7,2.2,4.8,4.8,4.8c2.7,0,5-2.2,4.9-4.9  C296.2,112.4,294,110.1,291.3,110.2z M291.3,118.1c-1.7,0-3.1-1.3-3.1-3c0-1.8,1.3-3.2,3.1-3.2c1.7,0,3.1,1.4,3.2,3.1  C294.4,116.8,293,118.1,291.3,118.1z"></path>	<path class="st2" d="M385.9,110.4c-0.1,1.9,0,3.7-0.1,5.7c-0.8-0.8-1.4-1.5-2-2.1c-0.6-0.7-1.3-1.4-1.9-2.1c-0.6-0.6-1.1-1.4-2-1.8  c-0.1,0.2-0.3,0.3-0.3,0.4c0,3,0,6.1,0,9.1c0.6,0,1.2,0,1.8,0c0-2,0-3.8,0-6c0.4,0.5,0.7,0.7,0.9,1c1.4,1.5,2.8,3.1,4.2,4.6  c0.2,0.3,0.4,0.7,1,0.5c0.3-1.4,0.2-8.7-0.1-9.4C386.9,110.4,386.4,110.4,385.9,110.4z"></path>	<path class="st2" d="M339.1,110.1c-3.3,0-5,2.7-4.9,4.9c0.1,2.7,2.1,4.8,4.9,4.8c2.7,0,4.8-2.1,4.8-4.9  C343.9,112.4,341.8,110.1,339.1,110.1z M339,118.1c-1.7,0-3.1-1.3-3.1-3c0-1.7,1.4-3.2,3.1-3.2c1.7,0,3.2,1.4,3.2,3.1  C342.2,116.7,340.8,118.1,339,118.1z"></path>	<path class="st2" d="M255.7,110.4c0,1.9,0,3.7,0,5.5c-0.1,0-0.1,0.1-0.2,0.1c-1.8-1.9-3.7-3.9-5.6-6c-0.2,0.3-0.4,0.4-0.4,0.5  c0,3,0,6.1,0,9.2c0.6,0,1.1,0,1.8,0c0-2,0-3.8,0-5.7c0.1,0,0.2-0.1,0.3-0.1c0.1,0.2,0.2,0.4,0.3,0.5c1.5,1.6,3,3.3,4.4,4.9  c0.3,0.3,0.5,0.8,1,0.6c0.3-1.1,0.2-8.7,0-9.5C256.7,110.4,256.3,110.4,255.7,110.4z"></path>	<path class="st2" d="M215.3,110.3c-1.2-0.1-2.4,0-3.8,0c0,3.2,0,6.3,0,9.4c1.3,0,2.6,0.1,3.8,0c2.5-0.2,4.3-2.2,4.3-4.7  C219.7,112.5,217.7,110.5,215.3,110.3z M217.8,115.4c-0.2,1.6-1.4,2.7-3,2.7c-0.5,0-1,0-1.6,0c0-2.1,0-4.1,0-6.1  c0.7-0.1,1.5-0.1,2.2,0C217,112.3,218,113.8,217.8,115.4z"></path>	<path class="st2" d="M179.6,116c-0.4-0.4-0.7-0.7-0.9-1c-1.4-1.5-2.7-2.9-4.1-4.4c-0.2-0.2-0.4-0.6-0.9-0.4c-0.2,0.9-0.3,8.4,0,9.4  c0.5,0,1,0,1.5,0c0-2,0-3.8,0-5.7c0.7,0.4,1.1,0.9,1.6,1.4c1.2,1.3,2.4,2.7,3.6,4c0.2,0.3,0.5,0.7,1,0.4c0-3.1,0-6.2,0-9.4  c-0.6,0-1.1,0-1.6,0C179.6,112.2,179.9,114.1,179.6,116z"></path>	<path class="st2" d="M204.1,110.3c-1.2-0.1-2.5,0-3.9,0c0,3.2,0,6.3,0,9.4c1.4,0,2.6,0.1,3.9,0c2.4-0.2,4.2-2.3,4.2-4.7  C208.3,112.7,206.4,110.5,204.1,110.3z M206.4,115.3c-0.2,1.7-1.3,2.8-3,2.8c-0.5,0-1,0-1.6,0c0-2.1,0-4.1,0-6.1  c0.8-0.2,1.6-0.2,2.3,0C205.6,112.4,206.6,113.8,206.4,115.3z"></path>	<path class="st2" d="M270.3,115.2c0,0.5,0,1,0,1.4c0.5,0.1,0.8,0.1,1.2,0.2c0,0.4,0,0.7,0,1.1c-1.6,0.7-3.1,0.4-4-0.8  c-0.9-1.1-0.9-2.7,0-3.8c0.4-0.5,1-0.9,1.6-1.1c1.1-0.4,2.1,0.1,3.1,0.7c0.4-0.4,0.7-0.7,1-1.1c-2-2-5.1-1.9-6.9-0.1  c-1.9,1.9-1.9,4.9-0.1,6.8c1.6,1.7,4.7,2,6.6,0.8c0.2-0.1,0.4-0.3,0.4-0.4c0-1.2,0.1-2.4-0.1-3.6  C272.2,115.1,271.2,115,270.3,115.2z"></path>	<path class="st2" d="M283.6,112.4c-0.4-1.3-1.7-2.2-3.1-2.1c-0.8,0.1-1.6,0-2.5,0c-0.5,0-0.9,0-1.4,0c0,3.2,0,6.2,0,9.4  c0.5,0,1,0,1.6,0c0-1.2,0.1-2.4,0.1-3.5c1.5-0.2,1.5-0.2,2,1c0.3,0.6,0.6,1.1,0.8,1.7c0.3,0.7,0.7,1.1,1.5,0.9  c0.3,0,0.5-0.1,0.9-0.1c-0.7-1.2-1.3-2.4-1.9-3.6c0.2-0.2,0.3-0.3,0.5-0.3C283.6,114.8,284,113.6,283.6,112.4z M280.7,114.6  c-0.7,0-1.4,0-2.2,0c0-1,0-1.8,0-2.7c0.8,0,1.5,0,2.3,0c0.7,0.1,1.2,0.6,1.2,1.3C282,114,281.5,114.5,280.7,114.6z"></path>	<path class="st2" d="M306.7,110.4c-0.6,0-1.1,0-1.7,0c0,0.5,0,0.9,0,1.4c0,1.4,0,2.8,0,4.2c0,1.3-0.7,2-1.7,2.1  c-1.3,0.1-2.2-0.6-2.2-2.1c0-1.3,0-2.6,0-3.9c0-0.6,0-1.2,0-1.8c-0.6,0-1.1,0-1.7,0c0,2.2,0,4.3,0,6.3c0,0.1,0,0.2,0.1,0.3  c0.5,2.1,2.6,3.4,4.7,2.8c1.7-0.5,2.7-1.8,2.8-3.8c0-1.6,0-3.3,0-4.9C306.8,110.9,306.7,110.6,306.7,110.4z"></path>	<path class="st2" d="M314.5,110.4c-1.3-0.1-2.6,0-4,0c0,3.2,0,6.2,0,9.4c0.6,0,1.1,0,1.7,0c0-1.2,0-2.2,0-3.4c0.7,0,1.3,0,1.9,0  c1.6-0.1,2.8-1.4,2.8-2.9C317,112,315.9,110.5,314.5,110.4z M314,114.7c-0.5,0.1-1.1,0-1.7,0c0-0.9,0-1.8,0-2.7  c0.6,0,1.1-0.1,1.6,0c0.8,0.1,1.2,0.6,1.2,1.3C315.2,114,314.7,114.5,314,114.7z"></path>	<path class="st2" d="M330.9,112.7c0.3-0.3,0.6-0.6,1-1c-1.6-2-5.1-2.1-7,0c-1.8,2-1.7,5.2,0.3,7c2,1.8,5.1,1.6,6.6-0.3  c-0.1-0.2-0.3-0.4-0.5-0.5c-0.2-0.2-0.4-0.3-0.6-0.5c-2,1.1-3.4,1-4.5-0.3c-1-1.1-1-2.8-0.2-4C327.1,111.7,328.4,111.5,330.9,112.7  z"></path>	<path class="st2" d="M166.8,110.6c-0.1-0.2-0.3-0.3-0.5-0.6c-1.6,3.2-3,6.4-4.5,9.6c1.7,0.3,1.7,0.3,2.3-1c0.1-0.2,0.2-0.3,0.3-0.5  c1.4,0,2.7,0,4,0c1.1,1.9,1.1,1.9,2.5,1.5c0-0.1,0-0.2,0-0.2C169.5,116.4,168.2,113.5,166.8,110.6z M165,116.5  c0.4-1,0.8-1.9,1.2-2.9c0.6,0.9,0.9,1.8,1.4,2.9C166.7,116.5,166,116.5,165,116.5z"></path>	<path class="st2" d="M368,119.7c0.5,0,1.1,0.2,1.5,0c0.5-0.3,0.7-1,1.1-1.6c1.3,0,2.6,0,3.9,0c0.3,0.5,0.4,1.1,0.8,1.4  c0.4,0.5,1.1,0.2,1.7,0.2c-0.3-1.3-3.8-8.9-4.4-9.5C371.9,110.8,368.4,118.2,368,119.7z M373.8,116.5c-0.9,0-1.7,0-2.6,0  c0.2-1,0.7-1.9,1.3-2.9C372.9,114.7,373.3,115.5,373.8,116.5z"></path>	<path class="st2" d="M188.5,119.6c1.5,0.3,1.5,0.3,2.1-1c0.1-0.2,0.2-0.4,0.3-0.5c1.4,0,2.7,0,4,0c0.3,0.5,0.4,1.1,0.8,1.5  c0.4,0.4,1.1,0.2,1.7,0.1c-1.1-3-3.9-8.8-4.5-9.5C192.4,110.7,188.9,118.2,188.5,119.6z M191.6,116.5c0.4-1,0.8-1.9,1.3-3  c0.5,1.1,0.9,2,1.3,3C193.4,116.5,192.6,116.5,191.6,116.5z"></path>	<path class="st2" d="M363.7,110.3c-0.5,0-0.9,0-1.4,0c-0.6,0-1.3-0.2-1.9,0.1c-0.2,2.6-0.1,8.4,0.1,9.2c0.5,0,0.9,0,1.5,0  c0-1.1,0-2.1,0-3.3c0.7,0,1.3,0,1.8,0c1.7-0.1,2.9-1.4,2.9-3.1C366.7,111.6,365.5,110.4,363.7,110.3z M364,114.6  c-0.6,0.1-1.2,0.1-2,0.2c0-1,0-1.8,0-2.8c0.6,0,1.3-0.1,1.9,0c0.6,0.1,1.1,0.6,1.1,1.2C365.1,113.8,364.7,114.4,364,114.6z"></path>	<path class="st2" d="M232.7,115c-0.5-0.3-1-0.5-1.6-0.8c-0.3-0.2-0.7-0.3-1-0.6c-0.4-0.3-0.7-0.7-0.4-1.2c0.2-0.5,0.6-0.7,1.1-0.6  c0.4,0,0.8,0.2,1.1,0.3c0.3,0.1,0.6,0.3,1,0.5c0.3-0.4,0.5-0.8,0.8-1.2c-1.2-0.9-2.4-1.3-3.8-1c-1,0.2-1.8,0.8-2.1,1.8  c-0.3,1.1,0,2.1,1,2.8c0.5,0.3,1,0.5,1.5,0.8c0.4,0.3,0.9,0.5,1.3,0.8c0.3,0.3,0.5,0.6,0.3,1.1c-0.2,0.4-0.5,0.7-1,0.7  c-0.5,0-1-0.2-1.5-0.3c-0.4-0.1-0.7-0.3-1.1-0.5c-0.3,0.5-0.5,0.8-0.7,1.3c1.3,1.1,2.7,1.5,4.2,1.1c1.1-0.3,1.9-1,2.1-2.1  C234.2,116.5,233.7,115.6,232.7,115z"></path>	<path class="st2" d="M395.7,111.2c-0.5,0.7-1,1.4-1.6,2.3c-0.7-1-1.3-1.8-1.8-2.6c-0.3-0.4-0.6-0.6-1.2-0.6c-0.3,0-0.6,0-1.2,0.1  c0.9,1.4,1.7,2.6,2.6,3.8c0.6,0.8,0.8,1.6,0.8,2.5c-0.1,1,0,2,0,3.1c0.6,0,1.1,0,1.7,0c0-1.3,0-2.5,0-3.7c0-0.5,0.1-1,0.4-1.4  c0.8-1,1.5-2.1,2.2-3.2c0.2-0.3,0.3-0.6,0.5-0.9C396.6,110.1,396.5,110.1,395.7,111.2z"></path>	<path class="st2" d="M222.9,110.4c0,3.1,0,6.2,0,9.3c0.6,0,1.1,0,1.6,0c0.2-1.7,0.1-8.5-0.1-9.3C224,110.4,223.5,110.4,222.9,110.4  z"></path></g></svg>