<svg xmlns="http://www.w3.org/2000/svg" width="560" height="140" viewBox="0 0 560 140" fill="none"><g clip-path="url(#clip0_3174_41873)"><path fill-rule="evenodd" clip-rule="evenodd" d="M336.628 64.1793L338.141 58.8934H318.51L325.056 41.0271H341.418L346.704 27.4384H330.09L335.628 12.0847H353.494L358.024 0H305.669L287.802 20.8918L295.349 0H278.734L251.296 72.743H268.667L279.995 42.792L281.256 72.743H305.416C210.025 101.181 204.487 99.4249 204.487 99.4249H200.714C173.154 99.4249 173.78 72.743 173.78 72.743C173.78 61.4146 180.701 48.3301 180.701 48.3301C143.447 89.6007 147.098 114.022 147.098 114.022C147.098 140.2 179.179 140 179.179 140C212.399 140 415.405 43.8005 415.405 43.8005C407.849 45.8175 336.628 64.188 336.628 64.188V64.1793ZM298.113 67.7091L296.601 29.4467L322.448 1.93007L298.113 67.7091ZM258.348 0L231.335 72.7429H248.115L275.301 0H258.348ZM199.957 72.7429H183.177L210.694 0H228.647L226.639 32.1331L239.054 0H255.668L228.482 72.7429H210.694L212.041 41.0271L199.957 72.7429Z" fill="#2A2A4B"></path></g><defs><clipPath id="clip0_3174_41873"><rect width="560" height="140" fill="white"></rect></clipPath></defs></svg>