<svg xmlns="http://www.w3.org/2000/svg" xmlns:xlink="http://www.w3.org/1999/xlink" id="Layer_1" x="0px" y="0px" viewBox="0 0 480 140" style="enable-background:new 0 0 480 140;" xml:space="preserve"><style type="text/css">	.st0{fill-rule:evenodd;clip-rule:evenodd;fill:#2A2A4B;}</style><g>	<path class="st0" d="M275.4,0H205c-10.6,0-15,6.7-15,15.4v109.2c0,8.7,4.4,15.4,15,15.4h70.5c10.6,0,14.9-6.7,14.9-15.4V15.4  C290.4,6.7,286,0,275.4,0z M286.6,124.5c0,6.9-4.6,11.6-11.2,11.6H205c-6.6,0-11.2-4.7-11.2-11.6v-109c0-6.9,4.6-11.6,11.2-11.6  h70.5c6.6,0,11.2,4.7,11.2,11.6V124.5z"></path>	<polygon class="st0" points="262,52.7 262,52.7 262,52.7  "></polygon>	<path class="st0" d="M262,52.7l-5.1,3.1l1.2,2l1-1.1C260.2,55.6,261.3,54.2,262,52.7z"></path>	<path class="st0" d="M249.6,123.5L249.6,123.5l-2.1,2.5c-0.2,0.3-0.5,0.4-0.9,0.4l-4.6-2.3c-2,1.8-4,3.6-5.5,5.8  c-0.6,0.8-1.1,1.6-1.3,2.6c-0.1,0.2,0,0.6,0.1,0.8h25c-0.2-0.3-0.4-0.4-0.7-0.6c-0.5-0.5-0.6-1.3-0.7-2.1  c-0.4-6.2,0.5-12.6,2.4-18.5C257.6,116.2,253.3,119.5,249.6,123.5z"></path>	<path class="st0" d="M275.5,6.6h-70.6c-2.4,0-4.5,1-6,2.5c-1.5,1.6-2.3,3.8-2.3,6.4v109.1c0,2.5,0.9,4.7,2.4,6.2  c1.6,1.6,3.7,2.5,6.1,2.5h28.6c-0.1-0.3-0.1-0.4-0.2-0.4v-0.1c-0.5-1.1-0.8-2.2-1-3.2c-0.1-1-0.1-2,0.3-3.1  c0.3-0.8,0.7-1.5,1.2-2.2c0.4-0.8,1-1.4,1.6-2c-0.2-0.5-0.1-1,0.2-1.4c0.2-0.4,0.6-0.9,1-1.1l1.3-0.4l1.3-0.5  c1.5-1.2,3-2.4,4.6-3.5c1.6-1.1,3.3-2,5-2.9c0.6-0.9,1.4-1.7,2.2-2.5c0.8-0.8,1.6-1.6,2.5-2.3c0.6,0.4,1.1,0.1,1.5-0.3  c0.4-0.4,0.8-0.9,1.4-1c-0.2-0.5-0.2-1.1,0.1-1.6c0.3-0.4,0.7-0.8,1.3-0.9c-0.3-0.6-0.3-1.2-0.2-1.6c0.1-0.5,0.2-0.9,0-1.3  c-0.3-0.9-0.9-2.4-1.7-4.1c-0.8-1.7-1.7-3.7-2.5-5.1c-0.1-0.2-0.4-0.3-0.8-0.4c-0.3-0.2-0.7-0.4-0.9-0.8c-0.6-0.9-1.1-1.9-1.4-2.9  c-0.3-1-0.5-1.9-0.5-2.7c-0.1-1.5,0.3-2.9,0.6-4.2c0.3-1.3,0.6-2.6,0.4-3.8c-0.2-0.7-0.3-1.5-0.5-2.2c-0.2-0.7-0.5-1.4-1-2  l-2.2-2.9l-2.2-2.8c-0.3-0.4-0.7-1.2-1-2.1c-0.3-0.8-0.6-1.7-0.7-2.2c-0.3-1.7-0.6-3.2-0.5-4.6c0.1-1.4,0.4-2.7,1.3-3.8  c-1-0.5-1.9-1.2-2.7-2.1c-0.7-0.9-1.2-1.9-1.3-3.1c-0.1-1.3,0.3-2.7,1.1-3.9c0.8-1.1,1.9-2,3.3-2.2c0.4-0.1,1.3-0.1,2.3-0.1  s2,0.2,2.7,0.5c0.4,0.2,0.5,0.5,0.6,0.9c0.1,0.4,0.1,0.7,0.1,0.8c0.8,1,1.5,1.9,1.9,2.9c0.4,0.9,0.8,1.9,0.9,2.9l8.3-3.3  c1-0.9,2-1.6,3.1-2.3c1.1-0.7,2.2-1.4,3.2-2.2c0.4-0.3,0.8-0.6,1.1-1c0.4-0.4,0.7-0.8,0.9-1.2c0.3-0.6,0.6-1.2,0.8-1.8  c0.3-0.6,0.5-1.2,0.6-1.9c0.2-0.5,0.2-1,0.1-1.5c-0.1-0.5-0.2-1-0.4-1.3c-0.3-0.4-0.6-1.5-0.8-2.5c-0.2-1.1-0.1-2.3,0.3-3L243,11.4  c-0.5,0.5-2.5,3-3.1,3.6c-0.3,0.3-0.6,0.4-1,0.5c-0.4,0.1-0.8,0-1.1-0.1c-0.2-0.2-0.4-0.3-0.5-0.4c-0.2-0.1-0.4-0.3-0.5-0.4  c-0.1-0.2-0.1-0.3-0.1-0.5c0.1-0.2,0.1-0.4,0.2-0.5c0.6-0.7,3.4-3.1,4.2-3.6c0.2-0.2,0.4-0.2,0.6-0.2c0.2,0,0.4,0.1,0.5,0.2  l28.9,17.9l0.6-0.2l0.6-0.2c0.2-0.1,0.5-0.1,0.8-0.1c0.3,0.1,0.5,0.2,0.7,0.3c0.2-0.1,0.4,0,0.6,0.1c0.2,0.1,0.4,0.2,0.6,0.4  c0.2,0,0.4,0,0.5,0.1c0.2,0.1,0.4,0.2,0.5,0.4c0.4,0.1,0.6,0.3,0.8,0.6c0.2,0.3,0.3,0.7,0.3,1.2c0.1,0.6-0.1,1.4-0.2,2.2  c-0.2,0.8-0.5,1.5-0.8,2.2l-4.6,12.7l-1.3,2.8c-0.2,0.5-0.6,1-1,1.5c-0.4,0.4-2,2.7-2.4,3.4c-0.4,0.8-2.7,4.4-3.5,5.6  c-0.8,1.1-1.6,2.3-2.5,3.3l3.4,12.1l0.2,2l3.7,14.1l0.9,5l0.9,4.9l0.1,1.4c-0.4,2.6-1.9,12.9-2.1,15.5c-0.1,1.2-0.3,6.1-0.5,7.4  c0,0.1-0.1,0.1-0.1,0.2c-0.1,0.1-0.1,0.1-0.1,0.2l-1.5,0.5l-1.5,0.5v0.5c0.3,0.4,0.7,0.8,1.1,1.1c0.4,0.3,0.8,0.7,1.2,1.1  c0.2,0.2,0.3,0.4,0.4,0.6c0.1,0.2,0.1,0.4-0.1,0.6c-0.4,0.4-0.9,0.7-1.4,0.9c-0.5,0.3-1,0.5-1.4,0.6h11.3c2.4,0,4.5-0.9,6-2.5  c1.5-1.5,2.4-3.7,2.4-6.2V15.5c0-2.5-0.9-4.7-2.4-6.4C280,7.5,277.9,6.6,275.5,6.6z M205.6,30.8h1.6c0.1-0.1,0.3-0.1,0.3-0.3  c0.1-0.2,0.1-0.4,0.1-0.6v-7.2c0-0.2-0.1-0.4-0.2-0.5c-0.1-0.2-0.3-0.2-0.4-0.2h-1.4v-1.8h9.3c0.5,0.1,0.9,0.1,1.4,0.2  c0.3,0.1,0.5,0.2,0.8,0.4c0.5,0.3,0.9,0.8,1.2,1.4c0.5,1.1,0.4,2.6-0.4,3.6c-0.4,0.5-0.9,0.8-1.4,1.1c-0.5,0.2-1.1,0.3-1.7,0.3  h-3.5v3.1c0.1,0.1,0.1,0.3,0.2,0.4c0.1,0.1,0.3,0.1,0.4,0.1h1.4v1.8h-7.8V30.8z M231.5,87.3L231.5,87.3l-3.5,0v10.2  c0,0.2,0,0.5-0.1,0.8c0,0.3-0.1,0.5-0.1,0.8c-0.1,0.3-0.1,0.5-0.2,0.8c-0.1,0.3-0.2,0.5-0.2,0.8c-0.2,0.4-0.4,0.9-0.6,1.3  c-0.3,0.4-0.5,0.9-0.9,1.2c-0.3,0.3-0.6,0.6-1,0.9c-0.4,0.2-0.8,0.5-1.1,0.7c0.2,0.1,0.5,0.2,0.7,0.2c0.3,0.1,0.5,0.2,0.7,0.3  c0.4,0.2,0.8,0.4,1.1,0.6c0.3,0.3,0.6,0.5,0.9,0.9c0.3,0.3,0.5,0.7,0.8,1.1c0.2,0.4,0.3,0.8,0.4,1.2c0.3,0.8,0.3,1.7,0.2,2.5  c-0.1,0.9-0.4,1.7-0.8,2.5c-0.2,0.3-0.5,0.7-0.8,1c-0.3,0.3-0.6,0.6-1,0.8c0.4,0.4,0.8,0.9,1,1.4c0.3,0.5,0.4,1,0.5,1.6  c0.1,0.3,0.1,0.8,0.1,1.3c0,0.5,0,1-0.1,1.5c0,0.3,0.1,0.5,0.1,0.6c0.1,0.2,0.3,0.2,0.4,0.2h2.5v5.9h-6.2c-0.4,0-1.2-0.2-2-0.4  c-0.8-0.3-1.6-0.7-2-1.3c0,0-0.1-0.1-0.1-0.2c-0.1-0.1-0.2-0.2-0.2-0.2v1.9h-16.2v-5.8h3.5v-12.2h-3.5v-5.8h7.3  c-0.3-0.2-0.5-0.3-0.9-0.5c-0.3-0.2-0.5-0.4-0.8-0.6c-0.3-0.3-0.6-0.7-0.9-1.1c-0.3-0.4-0.5-0.9-0.7-1.3c-0.1-0.2-0.2-0.4-0.2-0.6  c-0.1-0.2-0.2-0.5-0.2-0.7l-0.1-0.4l-0.1-0.3c-0.1-0.1-0.1-0.2-0.1-0.3V98V87.3h-3.4v-5.9h7c-0.1-0.1-0.3-0.1-0.4-0.2  c-0.1-0.1-0.3-0.2-0.4-0.2c-0.4-0.3-0.9-0.6-1.3-1c-0.4-0.4-0.8-0.8-1.2-1.2c-0.7-0.9-1.2-1.8-1.7-2.8c-0.4-1-0.8-2.1-0.9-3.2  c-0.1-0.5-0.1-1.1-0.2-1.7c0-0.6,0-1.1,0.1-1.7c0.1-1.1,0.3-2.3,0.6-3.3c0.4-1.1,0.9-2.1,1.5-3c0.3-0.5,0.6-0.9,1-1.3  c0.3-0.4,0.8-0.8,1.2-1.1c0.2-0.2,0.5-0.4,0.8-0.6c0.3-0.2,0.5-0.3,0.9-0.5h-1.3v-5.8h3.4v-12c-0.1,0.1-0.1,0.1-0.2,0.1  c-0.1,0.1-0.1,0.1-0.2,0.2c-0.1,0.1-0.2,0.2-0.3,0.4c-0.1,0.1-0.2,0.3-0.2,0.4c-0.1,0.3-0.2,0.5-0.3,0.8c-0.1,0.3-0.1,0.5-0.1,0.8  l-0.1,1.2v1.2h-6.2V35.7h24.3v11.1h-6.1v-1.5c-0.1-0.5-0.1-1.1-0.2-1.6c0-0.2-0.1-0.5-0.1-0.7c-0.1-0.2-0.2-0.4-0.3-0.6  c-0.1-0.2-0.2-0.3-0.3-0.4c-0.1-0.1-0.2-0.2-0.3-0.2l-0.1-0.1l-0.1-0.1v12h3.4v5.8h-1.2c0.1,0.1,0.2,0.2,0.4,0.2  c0.1,0.1,0.3,0.2,0.4,0.3c0.4,0.3,0.9,0.6,1.3,1c0.4,0.4,0.8,0.8,1.1,1.2c0.4,0.4,0.7,0.9,1,1.4c0.3,0.5,0.5,1,0.7,1.5  c0.2,0.6,0.4,1.1,0.6,1.7c0.2,0.6,0.3,1.1,0.3,1.7c0.2,1.2,0.2,2.4,0.1,3.6c-0.1,1.2-0.4,2.4-0.8,3.5c-0.4,1-0.9,2-1.6,2.9  c-0.6,0.9-1.4,1.7-2.3,2.3c-0.2,0.1-0.4,0.3-0.6,0.4c-0.2,0.1-0.4,0.2-0.6,0.3h6.8V87.3L231.5,87.3L231.5,87.3z M232.4,27.7  L232.4,27.7c-0.2,0-0.3,0-0.5,0c-0.2,0.1-0.4,0.2-0.4,0.4v4.3h-1.7l-0.3-1c-0.2,0.2-0.5,0.4-0.7,0.5c-0.6,0.4-1.4,0.6-2.2,0.7  c-1.7,0.2-3.5-0.1-4.9-1.1c-0.6-0.4-1.1-1-1.5-1.7c-0.9-1.4-1.1-3.2-0.9-4.8c0.1-0.8,0.3-1.5,0.8-2.2c0.8-1.3,2-2.3,3.5-2.7  c0.9-0.3,1.7-0.3,2.6-0.3c0.3,0.1,0.6,0.1,1,0.2c0.6,0.2,1.3,0.6,1.8,1.1l0.3-1h1.9v4.9h-2c-0.1-0.6-0.2-1.2-0.3-1.7  c-0.2-0.4-0.5-0.8-0.9-1.1c-0.8-0.5-1.9-0.6-2.8-0.2c-0.4,0.3-0.8,0.6-1,1.1c-0.3,0.6-0.5,1.3-0.6,2c-0.1,0.8-0.1,1.6,0,2.5  c0.1,0.6,0.3,1.3,0.7,1.9c0.2,0.4,0.6,0.8,1,1c0.5,0.3,1,0.3,1.5,0.3c0.3-0.1,0.7-0.3,0.9-0.6c0.1-0.1,0.2-0.3,0.2-0.5  c0.1-0.5,0-1,0-1.6c-0.1-0.1-0.1-0.3-0.2-0.4c-0.1-0.1-0.2-0.2-0.3-0.2h-1.2v-1.6h6.8v1.6H232.4z M237.7,20.2L237.7,20.2l4.4,0  l3,9.6c0.1,0.3,0.2,0.6,0.4,0.7c0.1,0.1,0.2,0.2,0.3,0.2h1.1v1.8h-7.2v-1.7h1.1c0.2-0.1,0.4-0.1,0.5-0.3c0.1-0.1,0.1-0.3,0-0.4  l-0.4-1.6h-3.7l-0.5,1.5c-0.1,0.2-0.1,0.4,0.1,0.6c0.1,0.1,0.3,0.2,0.4,0.2h1v1.7h-5.7v-1.7h0.9c0.2-0.1,0.5-0.1,0.6-0.3  c0.2-0.2,0.3-0.5,0.4-0.7L237.7,20.2z"></path>	<path class="st0" d="M214,25.3c0.3-0.2,0.6-0.4,0.7-0.8c0.2-0.4,0.2-0.9,0.1-1.3c-0.2-0.6-0.6-1.1-1.2-1.2h-2.2v3.4l2-0.1  C213.5,25.4,213.8,25.4,214,25.3z"></path>	<path class="st0" d="M218.5,81.6L218.5,81.6l0.8,0c1-0.1,2.1-0.3,3.1-0.6c0.9-0.3,1.8-0.8,2.5-1.3c0.8-0.6,1.5-1.2,2-2  c1.2-1.6,1.8-3.6,2-5.5c0.3-2.2-0.1-4.4-0.9-6.5c-0.4-0.9-0.9-1.7-1.5-2.5c-0.6-0.8-1.3-1.4-2.2-1.9c-0.8-0.5-1.7-0.9-2.6-1.1  c-0.8-0.2-1.6-0.4-2.5-0.5h-0.5c-1.1-0.1-2.1-0.1-3.2,0l-0.1,0.1c-2,0.2-3.9,0.9-5.4,2.1c-0.8,0.6-1.4,1.3-1.9,2.1  c-1.2,1.6-1.8,3.6-1.9,5.7c-0.2,2,0.1,4.2,0.9,6c0.8,1.8,2,3.3,3.6,4.4c0.8,0.5,1.7,0.9,2.6,1.2C215.2,81.6,216.8,81.6,218.5,81.6z   M213.5,69.5L213.5,69.5c0.1-1.2,0.1-2.4,0.4-3.6c0.2-0.6,0.4-1.3,0.8-1.9c0.4-0.5,0.9-0.9,1.5-1.1c0.5-0.3,1.1-0.4,1.7-0.4  c0.6,0.1,1.2,0.3,1.7,0.6c0.5,0.3,1,0.8,1.3,1.3c0.4,0.6,0.6,1.4,0.7,2.2c0.2,1.3,0.3,2.6,0.3,3.9c0,0.7-0.1,1.4-0.1,2.2  c-0.1,1-0.2,2-0.5,3c-0.2,0.6-0.5,1.2-1,1.7c-0.8,0.7-2,1.3-3.6,1c-0.2-0.1-0.6-0.2-0.8-0.4c-0.6-0.2-1.1-0.7-1.4-1.3  c-0.4-0.6-0.6-1.3-0.8-1.8c-0.1-0.4-0.1-0.8-0.2-1.1C213.5,72.3,213.4,70.9,213.5,69.5z"></path>	<path class="st0" d="M224.3,55.2L224.3,55.2l-2.6,0c-0.2,0-0.3-0.1-0.5-0.2c-0.1-0.1-0.2-0.2-0.3-0.3c-0.1-0.1-0.1-0.2-0.1-0.3  V40.2c0.6-0.1,1.3,0,1.9,0.2c0.5,0.2,0.9,0.5,1.2,1c0.4,0.4,0.6,1.1,0.8,1.7c0.2,0.8,0.3,1.6,0.3,2.4h3.4v-8.3H207v8.3h3.4  c0-0.9,0.1-1.9,0.3-2.7c0.2-0.6,0.5-1.1,0.9-1.6c0.3-0.4,0.8-0.6,1.3-0.8c0.5-0.2,1.1-0.2,1.7-0.2v14.1c0,0.2-0.1,0.4-0.2,0.5  c-0.1,0.2-0.3,0.3-0.6,0.3H211v3.1h13.3V55.2z"></path>	<path class="st0" d="M219.8,85.9L219.8,85.9l2,0c0.3,0,0.5,0,0.7,0.2c0.4,0.2,0.4,0.8,0.4,1.1v10.5c0,0.3-0.1,0.7-0.2,1  c-0.1,0.3-0.2,0.5-0.3,0.7c-0.2,0.3-0.8,0.9-1.3,1.2c-0.5,0.3-1.1,0.4-1.7,0.4h-1c-0.4,0-0.7-0.1-1-0.2c-0.8-0.2-1.1-0.4-1.4-0.9  c-0.2-0.2-0.4-0.5-0.5-0.8c-0.2-0.4-0.2-0.9-0.2-1.3v-11c0-0.2,0.1-0.4,0.2-0.6c0.1-0.1,0.3-0.2,0.5-0.3c0.2-0.1,0.4-0.1,0.6-0.1  h1.9v-3h-13v3h2.5c0.2,0,0.4,0.1,0.5,0.2c0.1,0.1,0.2,0.2,0.3,0.3c0.1,0.3,0.1,0.5,0.1,0.8V98c0,1.5,0.6,3.1,1.8,4.1  c1.2,1.2,2.9,1.8,4.5,2c1.2,0.2,2.3,0.2,3.5,0.2c0.8,0,1.6-0.1,2.4-0.2l1.2-0.3c0.8-0.2,1.5-0.6,2.1-1.1c0.6-0.5,1.2-1.1,1.5-1.8  c0.4-0.8,0.6-1.6,0.7-2.4c0.1-0.5,0.1-0.9,0.1-1.4l0.1-10.3c0-0.3,0.1-0.5,0.3-0.6c0.3-0.2,0.6-0.2,0.9-0.2h2.3v-3.1h-10.4V85.9z"></path>	<polygon class="st0" points="239.1,22.8 237.8,26.9 240.4,26.9  "></polygon>	<path class="st0" d="M220.9,105.7h-15.6v3.1h2.3c0.3,0,0.5,0.1,0.7,0.2c0.2,0.1,0.3,0.2,0.3,0.3c0.1,0.2,0.1,0.4,0.1,0.6v12.4  c0,0.4,0.1,0.7-0.1,1c-0.1,0.1-0.2,0.2-0.3,0.3c-0.2,0.1-0.4,0.1-0.6,0.1h-2.4v3h13.4v-3h-2.6c-0.3,0-0.6-0.2-0.8-0.4  c-0.1-0.2-0.1-0.3-0.1-0.5v-5.7h2.9c0.4,0,0.9,0.1,1.3,0.3c0.2,0.2,0.3,0.3,0.4,0.5c0.2,0.4,0.2,0.9,0.3,1.3v2.5  c0,0.7,0.1,1.4,0.3,2.1c0.3,0.6,0.6,1.1,1.1,1.6c0.4,0.4,1,0.8,1.6,1c0.7,0.2,1.4,0.3,2.1,0.4l4.3-0.1v-3.2h-2.2  c-0.3,0-0.5-0.1-0.6-0.3c-0.2-0.2-0.2-0.4-0.2-0.7l-0.1-3.3c0-0.6-0.1-1.2-0.4-1.7c-0.2-0.5-0.5-0.9-1-1.2c-0.5-0.4-1-0.6-1.6-0.8  c-0.4-0.1-0.7-0.2-1.1-0.2c1.4-0.1,2.9-0.6,3.9-1.6c0.5-0.5,0.8-1.1,1-1.7c0.2-0.6,0.3-1.3,0.2-2c-0.1-0.7-0.2-1.3-0.5-1.9  c-0.3-0.6-0.8-1-1.2-1.5c-0.6-0.4-1.2-0.8-1.9-1C222.8,105.8,221.8,105.7,220.9,105.7z M220.5,113.4L220.5,113.4  c-0.3,0.4-0.7,0.7-1.2,0.9c-0.3,0.2-0.6,0.2-1,0.2h-3.2v-5.7h3.5c1.1,0,2,0.7,2.3,1.8C221.1,111.5,221.1,112.6,220.5,113.4z"></path>	<path class="st0" d="M215.5,75.6L215.5,75.6c0.2,0.4,0.4,0.8,0.7,1c0.3,0.2,0.6,0.4,0.9,0.5h0.3c0.4,0,0.9-0.1,1.2-0.2  c0.8-0.3,1.2-1.1,1.5-2.2c0.2-0.9,0.3-1.8,0.4-2.7c0.1-1.4,0.1-2.7-0.1-4.1c-0.1-0.5-0.1-1-0.2-1.5c-0.1-0.5-0.3-1.1-0.6-1.5  c-0.2-0.3-0.5-0.6-0.8-0.8c-0.7-0.3-1.5-0.4-2.2,0c-0.4,0.2-0.6,0.5-0.9,0.8c-0.3,0.5-0.4,1-0.5,1.6c-0.3,1.1-0.3,2.3-0.3,3.4  c0,1.3,0.1,2.5,0.2,3.8C215.2,74.4,215.3,75,215.5,75.6z"></path>	<path class="st0" d="M218.5,110.2l-0.2-0.1h-1.8v2.9h1.8c0.4-0.1,0.8-0.2,1-0.5c0.2-0.2,0.2-0.5,0.3-0.7c0-0.3,0-0.6-0.1-0.9  C219.4,110.6,219,110.3,218.5,110.2z"></path>	<path class="st0" d="M217.8,118.5L217.8,118.5l-1.5,0v4.2h2.6v-3.1C218.8,118.9,218.5,118.5,217.8,118.5z"></path>	<path class="st0" d="M216.6,88.2L216.6,88.2l0,9.5c0,1,0.3,1.7,1.2,2c0.4,0.1,1.7,0.1,2.3-0.1c0.9-0.3,1.2-1,1.2-2v-9.5  c0-0.5-0.1-1-0.6-1h-3.5C216.9,87.2,216.6,87.5,216.6,88.2z"></path></g></svg>