<svg xmlns="http://www.w3.org/2000/svg" width="560" height="140" viewBox="0 0 560 140" fill="none"><path d="M156.666 109.343C155.842 105.186 152.509 103.072 148.425 103.072C141.402 103.072 138.464 108.841 138.464 114.968C138.464 121.668 141.438 127.294 148.496 127.294C153.656 127.294 156.63 123.675 156.988 118.802H160.894C160.141 126.147 155.591 130.59 148.174 130.59C139.037 130.59 134.559 123.818 134.559 115.255C134.559 106.691 139.431 99.7761 148.496 99.7761C154.623 99.7761 159.711 103.072 160.607 109.343H156.702H156.666Z" fill="#2A2A4B"></path><path d="M177.909 99.7769C187.261 99.7769 191.991 107.194 191.991 115.184C191.991 123.174 187.261 130.591 177.909 130.591C168.558 130.591 163.828 123.174 163.828 115.184C163.828 107.194 168.558 99.7769 177.909 99.7769ZM177.909 127.294C185.075 127.294 188.085 121.096 188.085 115.184C188.085 109.272 185.075 103.073 177.909 103.073C170.743 103.073 167.734 109.272 167.734 115.184C167.734 121.096 170.743 127.294 177.909 127.294Z" fill="#2A2A4B"></path><path d="M195.792 100.457H209.622C215.14 100.457 218.58 103.467 218.58 108.161C218.58 111.708 217.003 114.646 213.456 115.613V115.685C216.896 116.33 217.576 118.874 217.863 121.74C218.114 124.607 217.935 127.831 219.583 129.874H215.212C214.101 128.691 214.71 125.502 214.137 122.636C213.743 119.734 213.026 117.333 209.228 117.333H199.661V129.91H195.756V100.493L195.792 100.457ZM207.866 114.001C211.521 114.001 214.674 113.069 214.674 108.77C214.674 105.903 213.098 103.754 209.443 103.754H199.733V114.001H207.902H207.866Z" fill="#2A2A4B"></path><path d="M223.418 100.457H236.317C242.157 100.457 245.346 103.718 245.346 109.164C245.346 114.61 242.157 117.907 236.317 117.871H227.323V129.91H223.418V100.493V100.457ZM227.323 114.538H234.991C239.398 114.574 241.405 112.639 241.405 109.128C241.405 105.617 239.398 103.718 234.991 103.718H227.323V114.503V114.538Z" fill="#2A2A4B"></path><path d="M261.794 99.7769C271.146 99.7769 275.875 107.194 275.875 115.184C275.875 123.174 271.146 130.591 261.794 130.591C252.442 130.591 247.713 123.174 247.713 115.184C247.713 107.194 252.442 99.7769 261.794 99.7769ZM261.794 127.294C268.96 127.294 271.97 121.096 271.97 115.184C271.97 109.272 268.96 103.073 261.794 103.073C254.628 103.073 251.618 109.272 251.618 115.184C251.618 121.096 254.628 127.294 261.794 127.294V127.294Z" fill="#2A2A4B"></path><path d="M279.635 100.457H293.466C298.984 100.457 302.423 103.467 302.423 108.161C302.423 111.708 300.847 114.646 297.3 115.613V115.685C300.704 116.33 301.42 118.874 301.707 121.74C301.958 124.607 301.778 127.831 303.427 129.874H299.055C297.945 128.691 298.554 125.502 297.98 122.636C297.586 119.734 296.87 117.333 293.072 117.333H283.505V129.91H279.6V100.493L279.635 100.457ZM291.71 114.001C295.365 114.001 298.518 113.069 298.518 108.77C298.518 105.903 296.941 103.754 293.287 103.754H283.577V114.001H291.746H291.71Z" fill="#2A2A4B"></path><path d="M316.755 100.457H321.091L332.592 129.874H328.257L325.032 121.024H312.599L309.303 129.874H305.254L316.755 100.457V100.457ZM313.817 117.727H323.778L318.869 104.004H318.798L313.817 117.727V117.727Z" fill="#2A2A4B"></path><path d="M338.899 103.754H329.082V100.457H352.622V103.754H342.805V129.874H338.899V103.754V103.754Z" fill="#2A2A4B"></path><path d="M356.594 100.457H360.499V129.874H356.594V100.457V100.457Z" fill="#2A2A4B"></path><path d="M379.2 99.7769C388.552 99.7769 393.282 107.194 393.282 115.184C393.282 123.174 388.552 130.591 379.2 130.591C369.849 130.591 365.119 123.174 365.119 115.184C365.119 107.194 369.849 99.7769 379.2 99.7769ZM379.2 127.294C386.366 127.294 389.376 121.096 389.376 115.184C389.376 109.272 386.366 103.073 379.2 103.073C372.034 103.073 369.025 109.272 369.025 115.184C369.025 121.096 372.034 127.294 379.2 127.294Z" fill="#2A2A4B"></path><path d="M398.018 100.457H402.174L417.688 124.32H417.76V100.457H421.45V129.874H417.151L401.78 106.262H401.708V129.874H398.018V100.457V100.457Z" fill="#2A2A4B"></path><path d="M196.654 80.4985C193.572 76.7363 193.25 70.9318 192.927 65.3065L192.677 61.3652C192.067 55.3099 190.527 48.9322 182.859 46.7107C190.097 44.0593 194.361 37.6815 194.361 28.6882C194.361 16.9718 185.618 9.41162 172.146 9.41162H138.107V81.645H148.928V51.4045H171.25C179.921 51.4045 181.39 56.9223 182.358 63.5867C182.358 63.6225 183.074 71.8634 183.074 71.8634C183.217 75.9839 183.325 79.5311 185.116 81.4301L185.331 81.645H197.621L196.69 80.4985H196.654ZM167.846 42.0528H148.928V18.7633H171.644C179.312 18.7633 183.54 22.8121 183.54 30.1572C183.54 38.3981 178.703 42.0528 167.882 42.0528H167.846Z" fill="#2A2A4B"></path><path d="M283.902 18.1542C277.273 24.7469 273.798 34.7076 273.762 46.9974C273.762 57.2806 277.452 66.8472 283.902 73.3325C289.742 79.1728 297.696 82.2183 306.869 82.2183C317.403 82.2183 325.608 79.2086 331.305 73.3683C337.647 66.8472 340.656 56.9939 340.298 44.0951V42.6619H305.865V51.7628H329.442C329.298 57.818 327.363 63.0134 323.673 66.7397C319.588 70.8244 313.497 73.0817 306.546 73.0817C293.54 73.0817 284.081 62.1535 284.081 47.069C284.081 29.0823 292.573 18.6916 307.299 18.6199C313.748 18.6199 322.921 22.0955 327.543 32.0562L327.758 32.4862H338.22L337.898 31.4829C333.24 17.1151 322.347 9.48328 306.475 9.41162C297.445 9.41162 289.634 12.3855 283.902 18.1183" fill="#2A2A4B"></path><path d="M359.542 10.5566H349.188V81.536H359.542V10.5566Z" fill="#2A2A4B"></path><path d="M370.86 30.1214C370.86 43.9518 384.368 46.8899 393.29 48.8605L395.547 49.3621C405.687 51.5119 414.429 53.4109 414.429 61.4727C414.429 71.5768 404.075 73.0817 397.912 73.0817C388.703 73.0817 378.85 68.997 378.85 57.4597V56.7073H368.746V57.4597C368.746 75.7331 383.687 82.2183 397.625 82.2183C411.563 82.2183 424.999 75.6972 424.999 61.1502C424.999 46.6032 413.462 43.271 402.677 40.7988L398.951 39.9747C389.528 37.9682 381.43 36.2483 381.43 29.4048C381.43 19.9815 390.531 18.5483 395.941 18.5483C402.641 18.5483 410.882 20.8414 412.065 31.7696L412.136 32.4504H422.205V31.6621C421.631 17.545 412.208 9.41162 396.335 9.41162C383.651 9.41162 370.86 15.7894 370.86 30.0856" fill="#2A2A4B"></path><path d="M256.634 42.5903H211.416C211.595 35.7467 214.175 29.0823 218.618 24.6394C222.559 20.6623 227.755 18.5841 233.559 18.5841C239.794 18.5841 245.562 20.9131 249.826 25.1768C254.197 29.5481 256.455 35.6034 256.634 42.6261M267.383 46.9615C267.383 39.4014 265.52 27.6133 258.175 19.3724C252.334 12.7796 243.95 9.41162 233.344 9.41162C213.889 9.41162 200.739 23.7795 200.703 45.2417C200.703 56.9223 204.143 66.5964 210.664 73.1533C216.468 78.9936 224.673 82.1825 233.703 82.1825C249.826 82.1825 260.109 75.5181 265.054 61.9027H254.09C250.399 68.9612 243.09 73.0458 233.703 73.0458C217.507 73.0816 211.81 57.9255 211.38 51.7269H267.096L267.168 51.0462C267.311 49.8996 267.383 48.5022 267.383 46.9257" fill="#2A2A4B"></path></svg>