<svg xmlns="http://www.w3.org/2000/svg" width="560" height="140" viewBox="0 0 560 140" fill="none"><path fill-rule="evenodd" clip-rule="evenodd" d="M45.5 31.5H511V111.283H45.5V31.5Z" fill="#2A2A4B"></path><path fill-rule="evenodd" clip-rule="evenodd" d="M81.0433 62.9818L80.7043 83.2203C80.7043 83.9037 80.3653 83.7315 79.8541 83.3898C79.1734 82.8813 76.4532 79.9889 73.7303 79.1413C71.0101 78.2911 70.6685 78.458 67.7761 78.458C65.0559 78.458 62.6747 78.2911 62.3331 78.119C61.9914 77.9468 61.6523 77.9494 61.6523 76.7575L64.5447 56.858C64.7142 56.0078 64.3752 55.4966 65.9061 56.0078C67.2675 56.3495 71.177 56.1773 72.0299 56.3495C73.2218 56.3495 75.6029 57.0302 77.3007 58.389C79.0038 59.9199 81.0433 61.7899 81.0433 62.9818V62.9818ZM84.4442 62.9818L84.2747 82.2006C84.2747 83.0508 84.7859 83.2203 85.2971 82.5396C85.9778 81.5199 86.828 80.8391 88.0173 80.3306C91.5904 78.6275 96.6917 78.2885 97.2029 78.119C97.8836 78.119 101.285 77.9494 101.624 77.7799C102.813 77.4382 102.985 77.7799 102.813 75.5683L100.262 56.0078C100.262 55.1576 100.093 55.1576 99.4119 55.3271C98.9007 55.4966 99.0702 55.4966 96.5196 56.0078C95.3277 56.1773 93.6298 56.0078 91.5877 56.6885C89.7177 57.1971 88.1868 58.2194 86.4864 59.7504C85.9778 60.2616 84.4442 61.4508 84.4442 62.9818V62.9818ZM136.999 56.519C137.508 56.3521 137.68 56.18 137.68 56.6885C137.847 57.7082 138.189 61.962 138.189 62.301C138.189 62.6401 138.019 62.8096 137.847 62.4706C137.169 61.7899 134.957 59.4087 131.556 58.5558C129.006 57.8751 126.963 58.0473 125.602 58.3863C123.732 58.8975 122.712 59.7477 122.201 60.5979C121.181 61.9594 121.351 63.6598 122.371 64.6796C123.39 65.8715 125.602 66.2105 127.814 66.5522C129.684 66.8912 133.426 67.4024 135.296 68.0831C136.999 68.5917 138.528 69.7836 139.378 71.145C140.57 72.8454 140.57 76.0768 139.208 77.9468C137.68 79.9889 135.638 81.1782 133.426 81.8589C130.364 82.7091 126.963 82.3701 123.902 81.5199C121.181 80.8392 118.97 80.3306 117.269 81.1782C116.93 81.5199 116.93 81.3477 116.758 81.0113C116.758 80.5028 116.419 75.5683 116.419 74.7181C116.419 74.3764 116.589 74.5485 116.758 74.5485C117.778 75.7378 120.67 77.7826 123.902 78.7997C126.624 79.8194 129.003 79.9889 132.234 79.1413C133.765 78.7997 134.785 77.6104 135.296 76.9297C135.807 75.9073 135.807 74.3764 134.957 73.3566C134.449 72.8454 133.768 71.8257 127.475 70.9755C121.012 70.1252 119.142 68.4248 117.95 66.5548C116.419 64.3432 116.758 61.623 117.78 59.7504C118.972 57.7082 120.842 56.6885 122.373 56.18C124.415 55.3297 127.475 54.988 130.876 55.6714C134.276 56.18 135.468 57.1997 136.999 56.519V56.519ZM179.007 57.8778C179.007 57.5387 179.007 57.5387 178.499 57.3692C177.988 57.0302 175.606 56.1799 174.415 56.0078C171.272 55.2996 168.005 55.3577 164.89 56.1773C162 57.0275 158.936 58.2194 156.046 62.4706C153.834 65.702 153.326 71.1423 155.876 74.8876C158.258 78.7997 161.661 80.5001 164.551 81.5199C167.441 82.5396 171.692 82.5396 175.265 81.6894C176.796 81.3477 178.496 80.667 179.007 80.5001C179.346 80.1584 179.519 80.1584 179.519 79.8168C179.688 79.1387 180.199 76.4185 180.369 75.3961C180.369 75.0544 180.199 74.8876 180.027 75.2266C178.666 76.4185 176.796 77.7799 174.756 78.6275C172.206 79.6499 168.632 79.9889 165.401 78.458C162 76.7575 160.811 74.5459 160.3 73.3566C159.108 71.4867 158.258 67.0634 160.808 63.1513C162.339 60.6006 164.381 59.7477 166.079 58.9001C168.291 58.0499 171.353 57.8778 173.903 58.9001C175.604 59.4087 177.815 60.6006 179.005 62.1315C179.344 62.4732 179.516 62.4732 179.516 61.962C179.516 61.4508 179.007 57.8778 179.007 57.8778V57.8778ZM219.145 69.1055V77.6104C219.145 78.6301 218.976 80.6696 216.936 81.3503C216.597 81.5199 216.597 81.692 216.936 81.692H225.95C226.289 81.692 226.289 81.5225 225.95 81.3503C223.908 80.6696 223.741 78.6301 223.741 77.6104V60.2616C223.741 59.2418 223.91 57.0302 225.95 56.3495C226.289 56.1799 226.289 56.0078 225.95 56.0078H220.849H216.936C216.597 56.0078 216.597 56.1773 216.936 56.3495C218.979 57.0302 219.145 59.2392 219.145 60.2616V66.7243H201.969V60.2616C201.969 59.2418 202.138 57.0302 204.35 56.3495C204.519 56.1799 204.519 56.0078 204.18 56.0078H199.076H195.164C194.995 56.0078 194.995 56.1773 195.164 56.3495C197.206 57.0302 197.545 59.2392 197.545 60.2616V77.6104C197.545 78.6301 197.204 80.6696 195.164 81.3503C194.995 81.5199 194.995 81.692 195.164 81.692H204.18C204.519 81.692 204.519 81.5225 204.35 81.3503C202.138 80.6696 201.969 78.6301 201.969 77.6104V69.1055H219.145ZM293.812 79.4804V60.2616C293.812 58.9001 294.148 57.3692 296.532 56.3495C296.701 56.3495 296.701 56.0078 296.362 56.0078H290.922H287.01C286.84 56.0078 286.668 56.3495 287.01 56.3495C289.049 57.197 289.219 59.2392 289.219 60.2616V77.6104C289.219 78.6301 289.049 80.6696 287.01 81.5225C286.668 81.5225 286.84 81.8615 287.01 81.8615H302.653C304.014 81.8615 305.204 82.2032 306.229 82.7118C306.398 82.8813 306.565 82.8813 306.735 82.5422C306.904 81.8615 308.438 78.1216 308.607 77.4409C308.777 77.2714 308.607 77.0992 308.438 77.2714C308.096 77.4409 305.887 79.483 302.825 79.483L293.812 79.4804V79.4804ZM379.867 55.6688C376.469 55.1576 373.407 55.3271 371.362 56.1773C369.665 56.858 367.964 57.7082 366.775 59.7477C365.586 61.7872 365.413 64.3405 366.944 66.7217C368.134 68.5917 370.001 70.1226 376.469 70.9728C382.59 71.9952 383.443 72.8428 383.949 73.5261C384.802 74.3737 384.802 76.0768 384.118 77.0966C383.777 77.6078 382.588 78.7997 381.226 79.3082C377.997 80.1584 375.613 79.8168 372.893 78.9692C369.665 77.7799 366.603 75.7352 365.75 74.7181C365.586 74.5485 365.413 74.5485 365.413 74.7181C365.413 75.7378 365.75 80.5028 365.75 81.0113C365.75 81.5199 365.919 81.5199 366.261 81.3503C367.964 80.3306 370.173 80.8418 372.893 81.692C375.955 82.5396 379.359 82.7118 382.418 81.8589C384.632 81.1782 386.5 79.9889 388.031 77.9468C389.392 76.0768 389.561 72.8428 388.2 71.145C387.352 69.7836 385.991 68.5943 384.288 68.0831C382.415 67.4024 378.675 66.8912 376.636 66.5522C374.594 66.2105 372.385 65.8715 371.36 64.6796C370.34 63.6598 370.17 61.9594 371.023 60.5979C371.701 59.7477 372.721 58.8975 374.422 58.3863C376.446 57.9385 378.549 57.9967 380.545 58.5558C383.774 59.5782 385.988 61.9594 386.666 62.4706C387.008 62.8096 387.178 62.8096 387.178 62.301C387.008 61.962 386.666 57.7082 386.666 56.6885C386.666 56.18 386.33 56.3495 385.819 56.519C384.463 57.1997 383.101 56.3495 379.867 55.6688V55.6688ZM413.034 77.6104C413.034 78.6301 412.692 80.6696 410.656 81.5225C410.486 81.5225 410.486 81.8615 410.656 81.8615H419.669C420.011 81.8615 420.011 81.5225 419.839 81.5225C417.63 80.6723 417.46 78.6301 417.46 77.6104V58.7306H423.073C425.282 58.7306 425.793 59.4113 426.134 59.5808C426.299 59.5808 426.299 59.7504 426.64 59.5808C427.152 58.7306 428.855 56.519 429.533 55.6688C429.874 55.3271 429.533 55.1576 429.363 55.3271C427.665 55.8383 425.965 56.0078 424.603 56.0078H408.783C407.252 56.0078 406.232 55.3271 405.891 54.988C405.726 54.988 405.554 54.988 405.385 55.1576C404.532 56.1773 403.001 58.2194 402.151 59.2392C401.981 59.4087 401.981 59.7477 402.492 59.5782C404.023 58.728 404.871 58.728 406.232 58.728H413.034V77.6104V77.6104ZM450.11 60.2616C450.11 59.2418 450.28 57.1997 452.325 56.3495C452.489 56.3495 452.489 56.18 452.325 56.18H447.218H443.306C442.964 56.18 442.964 56.3495 443.136 56.3495C445.351 57.197 445.52 59.2392 445.52 60.2616V77.6104C445.52 78.6301 445.351 80.6696 443.136 81.5225C442.967 81.5225 442.967 81.8615 443.306 81.8615H452.325C452.489 81.8615 452.489 81.5225 452.325 81.5225C450.282 80.6723 450.11 78.6301 450.11 77.6104V60.2616V60.2616ZM491.779 57.8778C491.61 57.5387 491.61 57.5387 491.268 57.3692C490.59 57.0302 488.212 56.1799 487.017 56.0078C483.874 55.2997 480.608 55.3578 477.492 56.1773C474.605 57.0275 471.543 58.2194 468.651 62.4706C466.437 65.702 465.931 71.1423 468.481 74.8876C471.032 78.7997 474.266 80.5001 477.323 81.5199C480.043 82.5396 484.297 82.5396 487.87 81.6894C489.401 81.3477 491.104 80.667 491.61 80.5001C492.121 80.1584 492.121 80.1584 492.293 79.8168C492.293 79.1387 492.799 76.4185 492.971 75.3961C493.141 75.0544 492.971 74.8876 492.63 75.2266C491.44 76.4185 489.401 77.7799 487.359 78.6275C485.869 79.2317 484.272 79.5281 482.665 79.499C481.058 79.4699 479.473 79.1158 478.006 78.458C474.772 76.7575 473.583 74.5459 472.905 73.3566C471.88 71.4867 471.032 67.0634 473.411 63.1513C475.114 60.6006 476.986 59.7477 478.682 58.9001C480.896 58.0499 484.13 57.8778 486.681 58.9001C488.212 59.4087 490.42 60.6006 491.782 62.1315C491.951 62.4732 492.293 62.4732 492.124 61.962C492.121 61.4508 491.779 57.8778 491.779 57.8778V57.8778ZM256.391 82.2006C257.922 82.2006 263.535 82.2006 267.447 78.7997C271.359 75.3988 272.379 71.6588 272.379 69.1055V68.9333C272.379 66.2131 271.359 62.4732 267.447 59.2392C263.535 55.8383 257.922 55.6688 256.391 55.6688H256.052C254.521 55.6688 249.081 55.8383 244.999 59.2392C241.087 62.4706 240.237 66.2105 240.237 68.9333V69.1029C240.237 71.6562 241.087 75.3961 244.999 78.797C249.081 82.1979 254.524 82.1979 256.052 82.1979H256.391V82.2006Z" fill="white"></path><path fill-rule="evenodd" clip-rule="evenodd" d="M256.397 79.4803C258.609 79.4803 261.84 78.6301 264.052 76.2489C266.263 74.0373 267.114 71.1449 267.114 69.1055V68.9333C267.114 66.7243 266.263 64.0015 264.052 61.6203C261.84 59.2391 258.609 58.3889 256.397 58.3889H256.058C253.849 58.3889 250.787 59.2391 248.406 61.6203C246.542 63.5985 245.507 66.2155 245.514 68.9333V69.1028C245.514 71.1449 246.194 74.0347 248.406 76.2463C250.444 78.2705 253.186 79.4284 256.058 79.4777H256.397V79.4803Z" fill="#2A2A4B"></path><path fill-rule="evenodd" clip-rule="evenodd" d="M332.422 56.1805C333.27 57.0307 333.101 57.8809 332.759 58.559C332.422 59.4092 322.898 75.9078 321.539 78.289C320.178 80.6675 319.155 81.1787 318.647 81.3482C318.135 81.5177 318.477 81.8568 318.647 81.8568H324.596C324.765 81.8568 324.765 81.5177 324.596 81.3482C323.748 80.8397 323.918 79.8173 324.09 79.3061C324.596 78.4558 326.64 74.8854 326.64 74.8854H342.967C342.967 74.8854 345.009 78.2863 345.518 79.3061C346.37 80.6675 345.176 81.3482 345.012 81.3482C344.67 81.5177 344.67 81.8568 345.012 81.8568H353.005C353.347 81.8568 353.347 81.5177 353.005 81.3482C351.986 81.0092 350.963 79.9868 350.285 78.7975L337.187 56.0083H332.6C332.422 56.0083 332.253 56.1805 332.422 56.1805V56.1805Z" fill="white"></path><path fill-rule="evenodd" clip-rule="evenodd" d="M327.994 72.5066H341.77L334.968 60.0896L327.994 72.5066Z" fill="#2A2A4B"></path></svg>