<svg xmlns="http://www.w3.org/2000/svg" width="480" height="140" viewBox="0 0 480 140" fill="none"><path d="M247.399 64.0313L251.032 53.4117C257.259 53.3883 263.477 53.3412 269.696 53.2784L273.36 63.9687C278.774 63.9451 284.252 64.0471 289.658 64.0157L268.094 4.6902C265.532 4.79217 255.118 5.06668 252.665 5.12942L236.383 51.2392C229.711 51.2314 223.469 51.1922 216.664 51.1294V39.2L228.821 39.3412V28.5882L216.664 28.4079V16.9569C229.883 17.2627 235.985 17.2 235.977 17.2L233.493 4.42352C233.493 4.42352 217.68 4.16471 200.414 3.4353V63.9529C203.836 63.9687 220.93 64.0235 231.86 64.0471V64.0549C233.852 64.0549 235.743 64.0549 237.61 64.0627C238.141 64.0627 238.633 64.0627 239.063 64.0627C241.79 64.0313 244.493 64.0313 247.399 64.0313V64.0313ZM266.008 42.4941C262.251 42.549 258.485 42.596 254.72 42.6274L260.384 26.0784L266.008 42.4941Z" fill="#2A2A4B"></path><path d="M296.284 63.9999C301.69 63.9607 307.088 64.0157 312.487 63.9687L312.565 15.0823C318.463 14.6118 324.354 14.0941 330.236 13.5059L327.73 0C312.236 1.85883 296.729 3.21569 281.159 4.07844L278.643 17.1687C284.525 16.9176 290.408 16.6118 296.284 16.251V63.9999Z" fill="#2A2A4B"></path><path d="M168.953 17.7803C168.953 10.4156 184.633 12.4 191.868 16.6745L192.54 2.12545C190.829 1.59212 183.907 0.0078125 175.649 0.0078125C163.969 0.0078125 153.773 6.94113 153.773 17.9608C153.773 37.6078 180.485 38.9646 180.485 46.847C180.485 57.2156 162.774 51.451 153.773 42.8941V59.4667C153.773 59.4667 160.398 65.647 173.563 65.647C188.071 65.647 195.438 56.1569 195.438 45.9294C195.446 26.0079 168.953 25.9215 168.953 17.7803Z" fill="#2A2A4B"></path><path d="M338.316 140L316.916 103.412L335.846 74.1021H317.581L300.994 100.22C301.057 91.5295 300.932 82.8314 300.994 74.1333C295.526 74.1177 290.252 74.1099 284.775 74.1021C284.775 90.0549 284.775 119.145 284.775 135.098C284.775 135.098 295.487 135.757 300.994 136.189C300.994 126.777 300.994 117.404 300.994 108L317.002 137.529C324.995 138.353 332.253 139.2 338.316 140Z" fill="#2A2A4B"></path><path d="M216.696 109.137C220.735 109.074 228.813 108.988 228.813 108.988V98.1255C228.813 98.1255 220.735 98.1882 216.696 98.2275C216.696 94.4 216.696 90.5647 216.696 86.7372C228.024 86.7451 235.985 86.8078 235.985 86.8078L233.477 74.196H200.445V134.745C208.055 134.251 228.985 133.772 236.094 133.749C236.93 129.474 237.766 125.193 238.602 120.925C231.297 120.925 223.993 121.011 216.696 121.169C216.696 117.122 216.696 113.184 216.696 109.137V109.137Z" fill="#2A2A4B"></path><path d="M258.916 109.012C262.674 109.067 266.44 109.129 270.198 109.216C270.198 105.6 270.198 101.984 270.198 98.3687C266.44 98.3059 262.681 98.2667 258.916 98.2275C258.916 94.3843 258.916 90.6667 258.916 86.8236L278.307 86.949L275.808 74.2118C275.808 74.2118 253.713 74.196 242.666 74.196V133.757C253.916 133.764 266.182 134.126 278.245 134.745L280.862 121.828C274.503 121.601 264.706 121.279 258.924 121.153C258.916 117.098 258.916 113.051 258.916 109.012V109.012Z" fill="#2A2A4B"></path><path d="M169.086 110.533L178.946 110.047L178.954 122.659C164.141 124.007 158.047 119.075 158.047 104.361C158.047 90.7058 169.055 87.3019 179.196 87.3019C188.134 87.3019 192.876 88.2979 192.876 88.2979L190.196 74.1489C187.837 74.0313 183.657 73.8979 176.563 73.8979C160.172 73.8979 142 81.7725 142 106.69C142 127.662 156.281 138.329 174.399 136.62C187.157 135.42 192.891 135.161 192.891 135.161V98.6587L171.586 99.1371L169.086 110.533Z" fill="#2A2A4B"></path><path fill-rule="evenodd" clip-rule="evenodd" d="M218.376 63.8572L200.5 63.7425V33.6941V3.64575L207.495 3.86976C211.342 3.99295 218.723 4.19866 223.897 4.32685C232.069 4.52933 233.326 4.63233 233.467 5.11148C233.615 5.61449 235.734 16.5567 235.734 16.8201C235.734 16.8824 231.378 16.9334 226.054 16.9334H216.373L216.468 22.7419L216.563 28.5505L222.694 28.6452L228.825 28.7399V33.9336V39.1273H222.608H216.39V45.2012V51.2751L226.492 51.183L236.595 51.0913L244.666 28.2037C249.106 15.6156 252.759 5.2989 252.785 5.27769C252.811 5.25652 256.253 5.1461 260.432 5.03239L268.032 4.82568L278.544 33.8537C284.326 49.8192 289.123 63.0769 289.203 63.3153C289.318 63.6539 287.61 63.7487 281.41 63.7487H273.471L271.656 58.5396C270.658 55.6745 269.745 53.2716 269.627 53.1998C269.51 53.1279 265.233 53.1689 260.123 53.2941L250.833 53.519L249.107 58.634L247.382 63.749H244.373C242.719 63.749 240.215 63.7993 238.809 63.8602C237.403 63.9214 228.208 63.9201 218.376 63.8566L218.376 63.8572ZM266.047 42.1619C265.96 41.9235 264.674 38.1657 263.19 33.8114C261.571 29.0616 260.388 26.0789 260.235 26.3556C259.933 26.8988 254.733 42.0325 254.733 42.3671C254.733 42.4926 257.314 42.5954 260.469 42.5954C264.913 42.5954 266.17 42.4976 266.047 42.1619V42.1619Z" fill="#2A2A4B" stroke="#2A2A4B" stroke-width="0.0149125"></path><path fill-rule="evenodd" clip-rule="evenodd" d="M168.719 65.2612C164.398 64.7122 158.913 62.7668 155.516 60.5789L153.865 59.5153V51.4161V43.3168L156.101 45.0155C161.026 48.7581 165.963 51.1069 171.086 52.1447C177.05 53.3529 180.463 51.51 180.463 47.0822C180.463 45.3057 180.394 45.1688 178.64 43.482C177.384 42.2747 175.272 40.9237 171.86 39.1451C159.647 32.7791 155.236 28.1461 154.142 20.5346C152.866 11.6482 157.955 4.48801 167.855 1.24089C172.093 -0.148911 183.436 0.10846 190.544 1.7557L192.208 2.14121L192.207 4.42243C192.206 5.67708 192.106 8.89369 191.984 11.5704L191.762 16.4373L190.148 15.6619C189.261 15.2355 187.146 14.4655 185.449 13.9509C182.796 13.1461 181.711 13.0102 177.7 12.9804C173.495 12.9491 172.895 13.0218 171.592 13.7213C169.928 14.6142 169.153 15.5842 168.863 17.1397C168.377 19.7374 170.597 21.7771 177.83 25.3807C180.732 26.8264 184.26 28.7697 185.671 29.6992C190.762 33.0531 193.816 37.1001 194.81 41.8083C196.991 52.1407 190.964 61.8493 180.636 64.641C178.595 65.1928 171.207 65.5773 168.719 65.2612H168.719Z" fill="#2A2A4B" stroke="#2A2A4B" stroke-width="0.0149125"></path><path fill-rule="evenodd" clip-rule="evenodd" d="M168.719 65.2612C164.398 64.7122 158.913 62.7668 155.516 60.5789L153.865 59.5153V51.4161V43.3168L156.101 45.0155C161.026 48.7581 165.963 51.1069 171.086 52.1447C177.05 53.3529 180.463 51.51 180.463 47.0822C180.463 45.3057 180.394 45.1688 178.64 43.482C177.384 42.2747 175.272 40.9237 171.86 39.1451C159.647 32.7791 155.236 28.1461 154.142 20.5346C152.866 11.6482 157.955 4.48801 167.855 1.24089C172.093 -0.148911 183.436 0.10846 190.544 1.7557L192.208 2.14121L192.207 4.42243C192.206 5.67708 192.106 8.89369 191.984 11.5704L191.762 16.4373L190.148 15.6619C189.261 15.2355 187.146 14.4655 185.449 13.9509C182.796 13.1461 181.711 13.0102 177.7 12.9804C173.495 12.9491 172.895 13.0218 171.592 13.7213C169.928 14.6142 169.153 15.5842 168.863 17.1397C168.377 19.7374 170.597 21.7771 177.83 25.3807C180.732 26.8264 184.26 28.7697 185.671 29.6992C190.762 33.0531 193.816 37.1001 194.81 41.8083C196.991 52.1407 190.964 61.8493 180.636 64.641C178.595 65.1928 171.207 65.5773 168.719 65.2612H168.719Z" fill="#2A2A4B" stroke="#2A2A4B" stroke-width="0.0149125"></path><path fill-rule="evenodd" clip-rule="evenodd" d="M168.719 65.2612C164.398 64.7122 158.913 62.7668 155.516 60.5789L153.865 59.5153V51.4161V43.3168L156.101 45.0155C161.026 48.7581 165.963 51.1069 171.086 52.1447C177.05 53.3529 180.463 51.51 180.463 47.0822C180.463 45.3057 180.394 45.1688 178.64 43.482C177.384 42.2747 175.272 40.9237 171.86 39.1451C159.647 32.7791 155.236 28.1461 154.142 20.5346C152.866 11.6482 157.955 4.48801 167.855 1.24089C172.093 -0.148911 183.436 0.10846 190.544 1.7557L192.208 2.14121L192.207 4.42243C192.206 5.67708 192.106 8.89369 191.984 11.5704L191.762 16.4373L190.148 15.6619C189.261 15.2355 187.146 14.4655 185.449 13.9509C182.796 13.1461 181.711 13.0102 177.7 12.9804C173.495 12.9491 172.895 13.0218 171.592 13.7213C169.928 14.6142 169.153 15.5842 168.863 17.1397C168.377 19.7374 170.597 21.7771 177.83 25.3807C180.732 26.8264 184.26 28.7697 185.671 29.6992C190.762 33.0531 193.816 37.1001 194.81 41.8083C196.991 52.1407 190.964 61.8493 180.636 64.641C178.595 65.1928 171.207 65.5773 168.719 65.2612H168.719Z" fill="#2A2A4B" stroke="#2A2A4B" stroke-width="0.0149125"></path><path fill-rule="evenodd" clip-rule="evenodd" d="M168.719 65.2612C164.398 64.7122 158.913 62.7668 155.516 60.5789L153.865 59.5153V51.4161V43.3168L156.101 45.0155C161.026 48.7581 165.963 51.1069 171.086 52.1447C177.05 53.3529 180.463 51.51 180.463 47.0822C180.463 45.3057 180.394 45.1688 178.64 43.482C177.384 42.2747 175.272 40.9237 171.86 39.1451C159.647 32.7791 155.236 28.1461 154.142 20.5346C152.866 11.6482 157.955 4.48801 167.855 1.24089C172.093 -0.148911 183.436 0.10846 190.544 1.7557L192.208 2.14121L192.207 4.42243C192.206 5.67708 192.106 8.89369 191.984 11.5704L191.762 16.4373L190.148 15.6619C189.261 15.2355 187.146 14.4655 185.449 13.9509C182.796 13.1461 181.711 13.0102 177.7 12.9804C173.495 12.9491 172.895 13.0218 171.592 13.7213C169.928 14.6142 169.153 15.5842 168.863 17.1397C168.377 19.7374 170.597 21.7771 177.83 25.3807C180.732 26.8264 184.26 28.7697 185.671 29.6992C190.762 33.0531 193.816 37.1001 194.81 41.8083C196.991 52.1407 190.964 61.8493 180.636 64.641C178.595 65.1928 171.207 65.5773 168.719 65.2612H168.719Z" fill="#2A2A4B"></path><path fill-rule="evenodd" clip-rule="evenodd" d="M168.719 65.2612C164.398 64.7122 158.913 62.7668 155.516 60.5789L153.865 59.5153V51.4161V43.3168L156.101 45.0155C161.026 48.7581 165.963 51.1069 171.086 52.1447C177.05 53.3529 180.463 51.51 180.463 47.0822C180.463 45.3057 180.394 45.1688 178.64 43.482C177.384 42.2747 175.272 40.9237 171.86 39.1451C159.647 32.7791 155.236 28.1461 154.142 20.5346C152.866 11.6482 157.955 4.48801 167.855 1.24089C172.093 -0.148911 183.436 0.10846 190.544 1.7557L192.208 2.14121L192.207 4.42243C192.206 5.67708 192.106 8.89369 191.984 11.5704L191.762 16.4373L190.148 15.6619C189.261 15.2355 187.146 14.4655 185.449 13.9509C182.796 13.1461 181.711 13.0102 177.7 12.9804C173.495 12.9491 172.895 13.0218 171.592 13.7213C169.928 14.6142 169.153 15.5842 168.863 17.1397C168.377 19.7374 170.597 21.7771 177.83 25.3807C180.732 26.8264 184.26 28.7697 185.671 29.6992C190.762 33.0531 193.816 37.1001 194.81 41.8083C196.991 52.1407 190.964 61.8493 180.636 64.641C178.595 65.1928 171.207 65.5773 168.719 65.2612H168.719Z" fill="#2A2A4B"></path><path fill-rule="evenodd" clip-rule="evenodd" d="M168.719 65.2612C164.398 64.7122 158.913 62.7668 155.516 60.5789L153.865 59.5153V51.4161V43.3168L156.101 45.0155C161.026 48.7581 165.963 51.1069 171.086 52.1447C177.05 53.3529 180.463 51.51 180.463 47.0822C180.463 45.3057 180.394 45.1688 178.64 43.482C177.384 42.2747 175.272 40.9237 171.86 39.1451C159.647 32.7791 155.236 28.1461 154.142 20.5346C152.866 11.6482 157.955 4.48801 167.855 1.24089C172.093 -0.148911 183.436 0.10846 190.544 1.7557L192.208 2.14121L192.207 4.42243C192.206 5.67708 192.106 8.89369 191.984 11.5704L191.762 16.4373L190.148 15.6619C189.261 15.2355 187.146 14.4655 185.449 13.9509C182.796 13.1461 181.711 13.0102 177.7 12.9804C173.495 12.9491 172.895 13.0218 171.592 13.7213C169.928 14.6142 169.153 15.5842 168.863 17.1397C168.377 19.7374 170.597 21.7771 177.83 25.3807C180.732 26.8264 184.26 28.7697 185.671 29.6992C190.762 33.0531 193.816 37.1001 194.81 41.8083C196.991 52.1407 190.964 61.8493 180.636 64.641C178.595 65.1928 171.207 65.5773 168.719 65.2612H168.719Z" fill="#2A2A4B"></path><path fill-rule="evenodd" clip-rule="evenodd" d="M168.719 65.2612C164.398 64.7122 158.913 62.7668 155.516 60.5789L153.865 59.5153V51.4161V43.3168L156.101 45.0155C161.026 48.7581 165.963 51.1069 171.086 52.1447C177.05 53.3529 180.463 51.51 180.463 47.0822C180.463 45.3057 180.394 45.1688 178.64 43.482C177.384 42.2747 175.272 40.9237 171.86 39.1451C159.647 32.7791 155.236 28.1461 154.142 20.5346C152.866 11.6482 157.955 4.48801 167.855 1.24089C172.093 -0.148911 183.436 0.10846 190.544 1.7557L192.208 2.14121L192.207 4.42243C192.206 5.67708 192.106 8.89369 191.984 11.5704L191.762 16.4373L190.148 15.6619C189.261 15.2355 187.146 14.4655 185.449 13.9509C182.796 13.1461 181.711 13.0102 177.7 12.9804C173.495 12.9491 172.895 13.0218 171.592 13.7213C169.928 14.6142 169.153 15.5842 168.863 17.1397C168.377 19.7374 170.597 21.7771 177.83 25.3807C180.732 26.8264 184.26 28.7697 185.671 29.6992C190.762 33.0531 193.816 37.1001 194.81 41.8083C196.991 52.1407 190.964 61.8493 180.636 64.641C178.595 65.1928 171.207 65.5773 168.719 65.2612H168.719Z" fill="#2A2A4B"></path></svg>