<svg xmlns="http://www.w3.org/2000/svg" width="560" height="140" viewBox="0 0 560 140" fill="none"><path d="M227.834 24.1264C225.869 22.5179 223.366 21.4455 220.686 21.4455C218.72 21.4455 216.039 22.6966 216.039 24.8412C216.039 27.1646 218.898 28.0582 220.864 28.7731L223.545 29.6667C229.264 31.4539 233.732 34.3135 233.732 40.9262C233.732 45.0368 232.839 49.1474 229.443 52.0069C226.226 54.6877 221.937 55.9388 217.826 55.9388C212.643 55.9388 207.639 54.1516 203.35 51.292L207.996 42.7134C210.677 45.0368 213.715 47.0027 217.469 47.0027C219.971 47.0027 222.652 45.7516 222.652 42.8921C222.652 39.8538 218.362 38.7815 216.218 38.2453C209.605 36.4581 205.137 34.6709 205.137 26.6285C205.137 18.2285 211.035 12.8669 219.256 12.8669C223.366 12.8669 228.371 14.1179 232.124 16.2626L227.834 24.1264ZM247.851 9.47119V30.2029H248.03C250.353 27.1646 253.034 25.7348 256.966 25.7348C264.115 25.7348 267.511 30.3816 267.511 37.5305V54.509H257.681V40.2113C257.681 36.9943 257.145 33.5986 253.213 33.5986C249.281 33.5986 248.03 36.9943 248.03 40.2113V54.509H238.2V9.47119H247.851ZM302.183 42.1772H281.272C281.272 46.1091 283.417 48.4325 287.527 48.4325C289.672 48.4325 291.102 47.7176 292.174 45.9304H301.646C300.038 52.5431 293.783 55.5813 287.527 55.5813C278.234 55.5813 271.442 50.3984 271.442 40.7474C271.442 31.4539 277.698 25.9136 286.813 25.9136C296.463 25.9136 302.183 31.8114 302.183 41.4623V42.1772ZM292.889 36.4581C292.353 33.7773 290.03 31.9901 287.349 31.9901C284.489 31.9901 282.166 33.5986 281.451 36.4581H292.889ZM306.114 9.47119H315.944V54.6877H306.114V9.47119ZM321.842 9.47119H331.85V54.6877H321.842V9.47119Z" fill="#2A2A4B"></path><path d="M245.17 67.7345H260.719L289.135 104.194H289.314V67.7345H304.863V127.249H289.314L260.897 90.7896H260.719V127.249H245.17V67.7345ZM452.666 67.7345H471.253L482.333 83.9981L493.414 67.7345H512.001L490.018 98.6533V127.249H474.47V98.6533L452.666 67.7345ZM459.993 94.0065C459.814 102.764 459.278 110.091 453.917 117.598C448.019 125.64 439.261 129.215 429.432 129.215C410.666 129.215 397.619 116.525 397.619 97.7597C397.619 78.4578 410.666 65.7686 429.968 65.7686C442.121 65.7686 451.593 71.3089 456.776 82.3896L442.121 88.4662C439.976 82.7471 435.508 78.9939 429.253 78.9939C419.066 78.9939 413.704 88.6449 413.704 97.7597C413.704 107.053 419.245 116.347 429.432 116.347C436.223 116.347 441.227 112.951 441.942 105.981H429.253V93.8278H459.993V94.0065Z" fill="#2A2A4B"></path><path d="M382.248 102.943C390.648 101.513 395.294 94.3639 395.294 86.1427C395.294 73.4535 386.358 67.9131 374.563 67.9131H351.508V80.9598H366.52V73.9896L385.107 86.1427L366.52 98.117V90.7894H351.508V127.249H367.056V104.372H367.235L381.89 127.249H401.192L382.248 102.943ZM220.505 80.781V90.7894H238.019V103.836H220.505V114.202H238.913V127.249H205.135V67.7344H238.913V80.781H220.505ZM326.844 80.781V90.7894H344.359V103.836H326.844V114.202H345.252V127.249H311.474V67.7344H345.252V80.781H326.844Z" fill="#2A2A4B"></path><path d="M104.548 126.891H71.4848L68.4466 102.406L48.2511 87.5725C47.3574 83.2832 47 78.8151 47 74.5258C47 38.4241 76.3103 9.29248 112.233 9.29248C148.335 9.29248 177.467 38.6028 177.467 74.5258C177.467 78.9939 177.109 83.2832 176.216 87.5725L156.199 102.228L153.161 126.712H119.918L117.952 128.142C116.344 129.393 114.199 129.929 112.233 129.929C110.089 129.929 108.123 129.215 106.514 128.142L104.548 126.891Z" stroke="white" stroke-width="4.57169" stroke-miterlimit="40"></path><path d="M104.548 126.891H71.4848L68.4466 102.406L48.2511 87.5725C47.3574 83.2832 47 78.8151 47 74.5258C47 38.4241 76.3103 9.29248 112.233 9.29248C148.335 9.29248 177.467 38.6028 177.467 74.5258C177.467 78.9939 177.109 83.2832 176.216 87.5725L156.199 102.228L153.161 126.712H119.918L117.952 128.142C116.344 129.393 114.199 129.929 112.233 129.929C110.089 129.929 108.123 129.215 106.514 128.142L104.548 126.891Z" fill="white"></path><path fill-rule="evenodd" clip-rule="evenodd" d="M104.548 126.891H71.4848L68.4466 102.406L48.2511 87.5725C47.3574 83.2832 47 78.8151 47 74.5258C47 38.4241 76.3103 9.29248 112.233 9.29248C148.335 9.29248 177.467 38.6028 177.467 74.5258C177.467 78.9939 177.109 83.2832 176.216 87.5725L156.199 102.228L153.161 126.712H119.918L117.952 128.142C116.344 129.393 114.199 129.929 112.233 129.929C110.089 129.929 108.123 129.215 106.514 128.142L104.548 126.891ZM105.621 115.453H81.4932L78.9911 95.9724L59.3318 81.496C58.7956 79.1726 58.4382 76.8492 58.4382 74.5258C58.4382 70.5939 59.3318 66.8408 60.7616 63.2664L95.9697 98.8319L61.8339 56.6537C63.2637 51.1133 66.1232 46.2878 70.4125 42.5347L100.974 95.4362L73.8082 37.5305C77.3826 32.8837 82.2081 29.488 87.7485 27.7008L106.514 93.2916L92.7527 24.8412C96.8633 22.5179 101.689 21.2668 106.336 21.2668C107.408 21.2668 108.301 21.2668 109.374 21.4455L112.233 92.398L115.093 21.4455C115.986 21.4455 117.059 21.2668 118.131 21.2668C122.957 21.2668 127.603 22.5179 131.714 24.8412L117.952 93.1128L136.718 27.5221C142.259 29.3093 147.263 32.705 150.658 37.3517L123.672 95.2575L154.233 42.356C158.522 46.1091 161.382 51.1133 162.812 56.4749L128.676 98.8319L163.884 63.2664C165.492 66.8408 166.207 70.5939 166.207 74.5258C166.207 76.8492 165.85 79.1726 165.314 81.496L145.476 95.9724L142.973 115.453H118.846L115.272 118.134C114.378 118.849 113.306 119.206 112.233 119.206C111.161 119.206 110.089 118.849 109.195 118.134L105.621 115.453Z" fill="#2A2A4B"></path></svg>