<svg xmlns="http://www.w3.org/2000/svg" width="560" height="140" viewBox="0 0 560 140" fill="none"><path fill-rule="evenodd" clip-rule="evenodd" d="M77.2525 99.8664V87.65C84.2353 89.8423 90.4136 90.9348 95.7947 90.9348C103.213 90.9348 106.919 88.9787 106.919 85.0813C106.919 83.6271 106.38 82.4092 105.302 81.4127C104.195 80.3645 101.353 78.903 96.8059 77.0429C88.6273 73.6917 83.2979 70.8425 80.8177 68.4804C77.592 65.3802 75.9902 61.4459 75.9902 56.707C75.9902 50.5877 78.3375 45.93 83.0174 42.7265C87.6382 39.5525 93.6688 37.9654 101.102 37.9654C105.199 37.9654 111.133 38.7184 118.884 40.2168V51.9681C113.112 49.6724 107.76 48.5283 102.807 48.5283C95.839 48.5283 92.3549 50.4401 92.3549 54.2563C92.3549 55.6883 93.0562 56.8398 94.4586 57.7478C95.6323 58.4785 98.858 60.0139 104.114 62.3759C111.694 65.7271 116.743 68.6354 119.26 71.1082C122.25 74.0534 123.741 77.8475 123.741 82.5125C123.741 89.2075 120.818 94.3155 114.957 97.8291C110.218 100.686 104.062 102.118 96.5181 102.118C90.1405 102.118 83.7112 101.365 77.2451 99.8664H77.2525ZM133.543 100.863V39.0431H150.897V100.863H133.543ZM166.826 100.863V39.0431H211.344V50.2187H183.553V64.177H207.757V74.3708H183.553V89.0451H212.067V100.855H166.834L166.826 100.863ZM223.398 100.863V39.0431H245.904L261.538 78.5413L277.556 39.0431H298.925V100.863H282.472V57.0982L264.247 101.49H253.492L235.614 57.0982V100.863H223.383H223.398ZM314.854 100.863V39.0431H359.372V50.2187H331.581V64.177H355.77V74.3708H331.581V89.0451H360.088V100.855H314.854V100.863ZM371.514 100.863V39.0431H391.629L412.969 80.4236V39.0431H425.192V100.863H405.646L383.738 58.9214V100.863H371.507H371.514ZM437.512 99.8664V87.65C444.443 89.8423 450.621 90.9348 456.054 90.9348C463.48 90.9348 467.193 88.9787 467.193 85.0813C467.193 83.6271 466.661 82.4092 465.613 81.4127C464.513 80.3645 461.657 78.903 457.073 77.0429C448.924 73.7286 443.58 70.8646 441.077 68.4804C437.866 65.3949 436.25 61.4532 436.25 56.6405C436.25 50.5582 438.597 45.9227 443.277 42.7117C447.905 39.5377 453.936 37.9507 461.376 37.9507C465.561 37.9507 470.972 38.6224 477.623 39.9437L479.158 40.202V51.9533C473.386 49.6577 468.012 48.5136 463.037 48.5136C456.091 48.5136 452.629 50.4253 452.629 54.2416C452.629 55.6736 453.323 56.8251 454.726 57.733C455.84 58.4268 459.081 59.977 464.425 62.3612C471.946 65.7123 476.988 68.6206 479.527 71.0934C482.509 74.0386 484 77.8327 484 82.4978C484 89.1928 481.092 94.3007 475.261 97.8143C470.492 100.671 464.336 102.103 456.785 102.103C450.4 102.103 443.971 101.35 437.505 99.8516L437.512 99.8664Z" fill="#2A2A4B"></path></svg>