<svg xmlns="http://www.w3.org/2000/svg" width="560" height="140" viewBox="0 0 560 140" fill="none"><path d="M193.696 90.5617C185.564 90.1099 178.141 85.721 173.817 78.815C176.399 58.3552 183.886 51.9655 193.761 51.9655C203.636 51.9655 211.187 59.646 211.187 71.1345C211.187 82.623 203.507 90.3035 193.761 90.3035M193.761 39.1862C179.368 38.6053 166.588 48.4157 163.49 62.4859C160.199 55.5799 157.746 48.3512 156.068 40.9288H131.671V71.1991C131.671 82.1712 126.701 90.3681 116.891 90.3681C107.081 90.3681 101.53 82.2358 101.53 71.1991V40.9288H87.5243V71.1991C87.2016 79.5895 90.106 87.7864 95.5921 94.1115C101.014 100.049 108.759 103.341 116.826 103.147C133.736 103.147 145.548 90.1745 145.548 71.5863V51.1265C148.388 62.1632 153.164 72.5544 159.553 81.9776L152.066 124.834H166.33L171.3 94.4988C172.914 95.9187 174.656 97.2095 176.528 98.3068C181.304 101.34 186.79 103.018 192.405 103.212H193.696C210.864 103.406 224.87 89.6581 225.064 72.4899C225.064 72.0381 225.064 71.5863 225.064 71.1991C225.451 54.0309 211.832 39.767 194.664 39.3798C194.342 39.3798 194.019 39.3798 193.632 39.3798M395.39 47.5766V41.1224H381.578V101.018H395.584V77.5887C395.584 63.1313 396.875 52.74 416.302 54.0954V40.477C407.266 39.767 400.166 41.6388 395.39 47.5766ZM298.448 41.1224L288.315 83.0748L277.536 41.1224H259.723L248.944 83.0748L238.811 41.1224H224.676L240.231 101.082H257.012L268.694 58.4843L280.247 101.082H297.028L313.422 41.1224H298.448ZM344.079 90.5617C334.14 90.5617 326.717 82.6876 326.717 71.3927C326.717 60.0978 334.398 52.2237 344.079 52.2237C353.761 52.2237 361.635 59.646 361.635 71.1345C361.635 82.623 353.954 90.3035 344.208 90.3035M344.273 39.1216C327.105 38.8634 313.034 52.6109 312.776 69.7146C312.776 70.1664 312.776 70.6182 312.776 71.1345C312.195 88.4318 325.685 102.954 343.047 103.599C360.344 104.18 374.866 90.6908 375.511 73.3289C375.511 72.619 375.511 71.8445 375.511 71.1345C375.963 53.9663 362.345 39.7025 345.176 39.3153C344.854 39.3153 344.467 39.3153 344.144 39.3153M436.31 71.6508H439.537L459.029 101.147H474.777L452.381 68.4237C463.418 63.9058 470.582 53.1273 470.582 41.187H456.641C456.641 54.0954 446.443 59.0006 436.31 59.0006V17.5H422.304V101.147H436.245L436.31 71.6508Z" fill="#2A2A4B"></path></svg>