<svg xmlns="http://www.w3.org/2000/svg" width="560" height="140" viewBox="0 0 560 140" fill="none"><path d="M96.6162 38.7734V50.9715H94.1827C92.9659 50.563 92.5574 51.38 92.5574 52.1882L80.7679 89.595L77.9215 98.134C77.9215 98.5425 77.1089 98.9466 76.7048 98.9466H57.9884L57.5799 97.7299L43.3481 52.1882C42.9396 50.9715 42.5355 50.9715 41.3144 50.9715H38.8809V38.7734H64.9022V50.9715H59.618L68.157 84.7192H68.5655L77.9172 50.9715H72.633V38.7734H96.6162ZM137.682 55.0346H155.164L155.573 61.1314C156.789 59.9147 157.606 58.6979 158.419 57.8809C163.299 53.8135 168.992 53.0009 175.089 55.0346C179.565 56.6598 181.594 60.3188 181.594 65.2032V86.7573H185.253V98.9553H165.737V71.7086C165.737 69.275 164.924 68.0496 163.303 67.6411C161.27 67.2326 159.644 67.6411 158.423 69.2664L157.611 70.4831L157.202 71.6999V86.7443H160.049V98.9423H137.686V86.7486H140.937V67.237H137.686L137.682 55.0346ZM244.205 66.8241H241.35V54.6261H260.471V86.7399H264.129V98.9379H246.239V94.462C245.426 95.2746 245.022 96.0872 244.205 96.4957C239.729 100.563 232.007 101.376 226.723 98.9293C222.655 96.8955 220.626 93.645 220.626 89.1734L220.217 68.8448V67.2196H216.558V55.0259H236.07V81.0472C236.07 82.264 236.07 83.4807 236.479 84.2977C236.887 85.9229 238.512 86.7312 240.138 86.7312C241.763 86.7312 242.984 85.9186 243.797 84.2977C244.205 83.8892 244.205 83.0809 244.205 82.264V66.8241ZM134.836 79.8348H107.589C107.589 82.2683 107.589 84.7149 108.806 86.7443C109.618 88.3695 111.652 89.1778 113.281 89.1778C114.911 89.1778 116.94 88.3652 117.757 86.3314C118.166 85.5188 118.166 84.7062 118.57 83.4851H133.614C133.206 88.3652 131.181 92.4283 127.109 95.2746C124.263 97.3084 121.012 98.5251 117.757 98.9336C113.281 99.7462 108.406 99.3421 103.938 98.121C97.8416 96.0872 93.7698 92.0241 92.1489 86.3314C90.1157 79.985 90.1157 73.1619 92.1489 66.8154C94.5825 59.089 100.275 54.6174 108.41 53.3963C112.069 52.9878 115.728 52.9878 119.387 54.2089C127.513 56.6424 131.989 61.9354 133.619 70.4701C134.431 73.7206 134.431 76.5669 134.836 79.8218V79.8348ZM108.002 71.2957H118.574C118.574 68.8622 118.574 66.8198 116.141 65.6465C114.107 64.4297 112.073 64.4297 110.492 65.6465C108.058 66.8632 108.058 68.897 108.058 71.2957H108.002ZM346.661 79.8348H319.414C319.414 82.2683 319.414 84.7149 320.631 86.7443C321.847 88.7736 323.477 89.1778 325.511 89.1778C326.448 89.1704 327.364 88.8996 328.155 88.3963C328.946 87.893 329.579 87.1775 329.982 86.3314L330.795 83.8979H345.839C345.027 92.8411 338.521 98.9423 329.578 99.7593C325.102 100.168 321.039 100.168 316.976 98.5425C310.879 96.5088 306.807 92.4457 304.778 86.3445C302.744 80.1377 302.744 73.4437 304.778 67.237C307.212 59.1107 313.317 55.0389 321.448 53.8178C325.107 53.4093 329.174 53.4093 332.833 54.6304C340.56 57.064 344.623 62.3569 346.252 69.6748C346.661 73.3338 346.661 76.5843 346.661 79.8435V79.8348ZM320.24 71.2957H330.812C330.812 66.8198 328.779 64.3863 325.163 64.7904C321.913 65.1989 319.879 67.6368 320.283 71.2957H320.24ZM187.287 54.6261H192.167V46.087C192.167 44.4618 192.575 44.0533 194.2 43.6535L206.803 40.8072V54.6261H213.712V66.8241H206.803V83.9023C207.211 86.7486 209.236 87.9697 211.683 87.5612C212.091 87.5612 212.495 87.5612 213.308 87.1527V94.8792C213.308 98.5382 213.308 98.5381 209.649 98.9466C205.99 99.3551 202.331 99.7593 198.264 98.9466C192.979 97.7299 190.537 94.4707 190.537 89.1908V66.8285H186.878C187.287 63.1695 187.287 59.102 187.287 54.6304V54.6261ZM267.38 98.9423V86.7486H271.039V67.237H267.38V55.0259H284.458C284.458 57.0596 284.867 59.5018 284.867 61.9354C285.275 61.5269 285.275 61.1227 285.275 60.7186C286.492 57.0596 289.343 55.0693 293.002 54.6218H298.651C299.059 54.6218 299.463 55.0302 299.463 55.4344V68.8535C297.43 68.8535 294.987 68.445 292.958 68.8535C288.482 69.6661 286.453 72.104 286.049 76.58V86.3358H290.929V98.5338L267.345 98.9423H267.38Z" fill="#2A2A4B"></path><path d="M381.772 39.2079C384.206 39.6163 386.652 39.6163 388.682 40.4246C398.033 42.8581 402.913 54.2435 398.033 62.7869C396.817 64.8207 395.187 66.0374 393.153 67.2629C392.341 67.6714 391.528 68.0755 390.307 68.8881C390.715 69.2966 391.12 69.2966 391.524 69.2966C398.029 71.3304 400.875 76.2061 401.28 82.3073C402.092 91.2505 396.399 97.7558 387.461 98.5684C384.614 98.9769 381.811 98.9769 379.334 98.9769H351.279V86.7789H356.564V51.0017H351.279V38.8037L381.772 39.2122V39.2079ZM372.829 74.985V86.7745C372.829 87.183 373.238 87.5871 373.642 87.5871H380.551C382.176 87.5871 383.802 86.7745 384.619 85.1536C386.652 81.4946 384.619 76.6146 380.551 75.8019C378.118 74.9893 375.671 74.9893 372.825 74.9893L372.829 74.985ZM372.829 63.5996C375.263 63.5996 377.305 63.5996 379.738 63.1911C382.585 62.7826 384.214 60.3447 384.214 57.5418C384.214 54.7389 382.589 52.2576 380.147 51.8926C377.705 51.5276 375.267 51.4841 372.829 51.4841V63.5996ZM521.635 67.667H515.538C515.129 67.667 514.725 68.0755 514.725 68.4797V83.8804C514.725 87.1309 516.759 88.7605 520.374 87.9478H521.187V97.7036C521.187 98.5163 521.187 98.9204 520.374 98.9204C515.898 99.733 511.431 100.137 506.555 99.3289C501.271 98.1121 498.829 95.2614 498.829 89.9772V67.2064H497.204C494.77 67.2064 495.17 67.6149 495.17 65.1727V55.004H500.05V46.8778C500.05 44.0314 499.642 44.4443 502.484 44.0314L514.682 41.1851V55.004H522C521.591 59.48 521.591 63.5431 521.591 67.6062L521.635 67.667ZM473.659 72.143V68.0755C473.659 65.642 472.034 64.0081 470 64.0081C467.967 64.0081 465.933 65.6333 465.933 67.667V69.2923H451.297C450.889 63.643 453.731 58.7195 459.024 56.2816C466.75 53.0311 474.885 53.0311 482.607 56.6901C487.487 59.1236 489.925 62.7869 489.925 68.0755V86.3269H493.584V98.525H475.332C475.332 96.8997 474.924 95.6786 474.924 93.6449C474.516 94.0534 474.111 94.4575 474.111 94.8616C469.231 100.511 460.292 100.511 455.408 98.1121C451.749 96.0784 450.124 92.4629 449.759 88.3563C449.35 79.4131 453.826 73.7204 463.178 72.0952L472.934 71.2825C472.525 72.0952 472.934 72.0952 473.746 72.0952L473.659 72.143ZM473.659 79.8694H470C466.341 80.2779 464.716 83.1199 465.12 86.3747C465.529 89.2211 467.967 90.8507 470.77 89.6252C472.395 89.2167 473.203 88 473.616 86.3747L473.659 79.8694ZM447.638 80.2779H420.391C420.391 83.1242 420.391 85.5621 422.017 87.5958C423.233 89.2211 424.863 89.6296 426.897 89.6296C428.93 89.6296 430.147 88.4128 430.964 86.7832L431.777 84.3497H446.821C446.413 89.2298 444.388 93.2929 440.316 96.1392C435.436 99.7982 430.147 100.615 424.454 100.207C422.021 100.207 419.979 99.7982 417.545 98.9899C411.448 97.3647 407.789 93.3407 405.755 87.6045C403.722 80.6951 403.322 73.7856 406.164 66.8674C409.01 59.5495 414.703 55.482 422.425 54.6694C426.084 54.2609 430.152 54.6694 433.811 55.482C441.537 57.9156 445.6 63.6083 447.23 71.3434L447.638 80.2866V80.2779ZM431.777 72.1517C431.777 69.7181 431.368 67.2716 429.343 66.0548C427.318 64.8381 425.276 64.8381 423.246 66.4633C421.621 67.6801 421.213 69.7138 421.213 72.1125L431.777 72.1517Z" fill="#2A2A4B"></path></svg>