<svg xmlns="http://www.w3.org/2000/svg" width="600" height="140" viewBox="0 0 600 140" fill="none"><path d="M179.225 40.4423C178.349 37.9427 177.349 34.8856 175.415 34.6991L173.605 34.5125V33.1373H189.148V34.5125L187.212 34.6991C186.215 34.8241 184.093 35.0107 184.093 36.2589C184.093 36.76 184.844 39.1305 185.155 40.0672L193.268 65.7843H193.393L203.818 34.8854C204.442 34.5738 204.814 34.3843 205.626 34.2018L217.303 65.7845H217.425C218.612 61.9178 225.726 39.3173 225.726 36.3841C225.726 35.3245 224.603 35.0713 223.479 34.8858L220.671 34.5127V33.1374H233.781V34.5127L232.158 34.8858C231.471 35.0713 230.785 35.3245 230.285 35.8225C229.222 36.8852 225.041 50.1176 224.168 52.7986L220.544 64.0356C218.926 69.0953 217.739 73.2769 217.363 74.4001C216.425 74.9002 216.176 75.0242 215.116 75.2722L203.566 44.1251C201.943 48.369 193.955 71.031 192.83 74.3996C192.332 74.8352 191.644 75.0237 190.771 75.2717L179.224 40.4414" fill="#2A2A4B"></path><path d="M239.966 58.5107C241.567 58.4051 243.218 58.2442 244.817 58.2442C246.521 58.2442 248.226 58.2965 249.934 58.5107L245.029 45.6162L239.966 58.5107ZM228.777 73.1662L229.789 73.0012C231.817 72.6856 232.081 72.1014 233.36 69.0095L244.441 42.0491C244.869 40.9822 245.295 39.9165 245.72 38.9049L247.268 38.372L259.152 69.2204C259.948 71.3541 260.482 72.5767 261.867 72.8452L263.997 73.166V74.3364H250.784V73.166L253.181 72.7376C254.142 72.5767 254.832 72.3133 254.832 71.7241C254.832 71.3541 254.62 70.98 254.512 70.6069L250.784 60.5381C248.816 60.164 246.844 60.0051 244.87 60.0051C243.007 60.0051 241.143 60.2163 239.273 60.5381L236.56 67.9415C235.919 69.6447 235.494 71.0857 235.494 71.512C235.494 72.5256 236.185 72.6854 236.773 72.7377L239.967 73.1661V74.3364H228.778V73.1661" fill="#2A2A4B"></path><path d="M267.189 73.1644L269.111 72.9994C271.187 72.7872 271.187 72.5239 271.187 66.0203V47.4792C271.187 40.9807 271.187 40.7132 269.111 40.499L267.189 40.3413V39.1678H280.14V40.3413L278.221 40.499C276.143 40.7132 276.143 40.9807 276.143 47.4792V55.5238H277.099C279.767 55.5238 280.673 54.5144 285.629 48.1204L289.143 43.5906C290.583 41.7787 290.583 41.461 290.583 41.1403C290.583 40.5551 289.998 40.5551 288.719 40.4465L286.745 40.3409V39.1674H298.734V40.3409L297.508 40.4465C296.285 40.5551 295.803 40.8185 294.845 41.5123C292.926 42.8989 286.586 50.1442 285.679 51.2626L283.123 54.5145C284.458 56.8029 287.971 62.131 290.21 65.2219C295.964 72.7872 295.911 73.1646 298.734 73.1646V74.335H295.431C292.872 74.335 291.117 73.8564 289.626 72.2013C287.437 69.8052 285.842 67.3548 284.458 65.2775L280.409 59.2556C279.13 57.3934 278.063 57.0184 277.048 57.0184H276.143V66.0202C276.143 72.5238 276.143 72.7871 278.221 72.9993L280.14 73.1643V74.3346H267.19V73.1643" fill="#2A2A4B"></path><path d="M303.373 73.1645L305.292 72.9995C307.369 72.7874 307.369 72.524 307.369 66.0204V47.4793C307.369 40.9808 307.369 40.7134 305.292 40.4992L303.373 40.3414V39.1679H326.334C326.55 40.3414 326.925 42.3675 326.925 44.8168C326.925 46.0446 326.816 46.4689 326.816 46.9474L325.537 47.1606C324.368 41.4615 324.258 40.6611 316.746 40.6611H312.325V55.3134H317.067C321.222 55.3134 322.183 55.2602 322.501 53.0752L322.767 51.2633H324.153V60.8555H322.767L322.501 59.0416C322.183 56.8587 321.222 56.8034 317.067 56.8034H312.325V72.1512C314.243 72.5243 316.214 72.844 318.134 72.844C326.604 72.844 327.138 69.6435 328.204 65.2777L329.535 65.4888C329.374 68.8995 328.681 71.4052 327.774 74.335H303.373V73.1646" fill="#2A2A4B"></path><path d="M350.047 72.959L352.295 72.7734C354.729 72.5234 354.729 72.2108 354.729 64.5944V42.8712C354.729 35.2588 354.729 34.9475 352.295 34.6962L350.047 34.5096V33.1343H377.574C377.826 34.5096 378.263 36.8821 378.263 39.7527C378.263 41.1885 378.136 41.6876 378.136 42.2492L376.635 42.4993C375.266 35.8194 375.139 34.8827 366.339 34.8827H360.534V53.0468H366.713C371.583 53.0468 372.704 52.9863 373.082 50.4263L373.394 48.3038H375.017V59.5409H373.394L373.082 57.4185C372.704 54.8584 371.583 54.7969 366.713 54.7969H360.534V64.5947C360.534 72.2112 360.534 72.5239 363.966 72.7737L366.213 72.9592V74.3345H350.047V72.9592" fill="#2A2A4B"></path><path d="M399.097 73.3781C408.153 73.3781 411.565 65.5986 411.565 57.8207C411.565 47.7511 406.555 40.1309 398.187 40.1309C390.198 40.1309 385.508 46.7923 385.508 56.0099C385.508 66.8802 391.05 73.3781 399.096 73.3781H399.097ZM379.914 57.0216C379.914 45.5135 388.811 38.3739 399.097 38.3739C408.9 38.3739 417.158 44.6079 417.158 56.4344C417.158 68.1567 408.631 75.1367 398.082 75.1367C387.534 75.1367 379.914 68.5296 379.914 57.0216Z" fill="#2A2A4B"></path><path d="M430.16 57.4989H433.194C437.673 57.4989 441.721 55.1018 441.721 49.0796C441.721 42.8455 437.616 40.9291 433.465 40.9291C432.345 40.9291 431.226 41.1422 430.16 41.3544V57.499L430.16 57.4989ZM421.207 73.1669L423.129 73.0019C425.204 72.7897 425.204 72.5264 425.204 66.0228V47.4817C425.204 40.9832 425.204 40.7157 423.129 40.5015L421.207 40.3438V39.1703H435.116C440.174 39.1703 447.319 39.9174 447.319 48.0148C447.319 52.9719 442.893 55.8999 439.962 57.2877C440.765 58.7789 442.521 62.1905 443.965 64.7464C446.195 68.7443 448.542 71.8885 449.872 72.6346C450.405 72.9534 451.364 73.1675 452.539 73.1675V74.3379H448.44C444.916 74.3379 442.469 71.9397 440.867 69.0108L438.742 64.9074C437.353 62.295 436.129 60.27 435.436 59.6859C434.582 58.9921 433.253 58.992 432.135 58.992H430.161V66.0234C430.161 72.527 430.161 72.7904 432.185 73.0025L434.102 73.1675V74.3379H421.208V73.1675" fill="#2A2A4B"></path><path d="M455.309 73.1645L457.224 72.9995C459.306 72.7874 459.306 72.524 459.306 66.0204V47.4793C459.306 40.9808 459.306 40.7134 457.224 40.4992L455.309 40.3414V39.1679H478.271C478.485 40.3414 478.858 42.3675 478.858 44.8168C478.858 46.0446 478.754 46.4689 478.754 46.9474L477.475 47.1606C476.3 41.4615 476.196 40.6611 468.684 40.6611H464.262V55.3134H469C473.157 55.3134 474.117 55.2602 474.436 53.0752L474.705 51.2633H476.087V60.8555H474.705L474.436 59.0416C474.117 56.8587 473.157 56.8034 469 56.8034H464.262V72.1512C466.178 72.5243 468.151 72.844 470.066 72.844C478.538 72.844 479.07 69.6435 480.137 65.2777L481.472 65.4888C481.306 68.8995 480.613 71.4052 479.713 74.335H455.309V73.1646" fill="#2A2A4B"></path><path d="M499.906 54.1397C504.115 56.5379 508.485 58.7751 508.485 65.1697C508.485 72.362 501.823 75.1318 496.172 75.1318C492.018 75.1318 489.456 74.0138 487.811 72.9981C486.852 70.9208 486.102 66.9813 486.102 63.6232L487.811 63.1959C488.395 67.035 490.368 73.3739 497.664 73.3739C501.344 73.3739 504.058 70.9778 504.058 66.8221C504.058 62.9328 500.811 60.2662 496.655 58.4028L493.242 56.5377C490.207 54.8866 487.386 51.5826 487.386 47.5856C487.386 41.0871 492.818 38.3696 498.466 38.3696C501.77 38.3696 504.431 39.2182 505.818 40.0728C506.244 41.7782 506.353 46.0948 506.353 47.426H505.022C504.488 44.7625 503.634 40.1272 497.611 40.1272C494.527 40.1272 491.802 42.3665 491.802 45.9339C491.802 49.0771 494.096 50.7824 496.968 52.4888L499.906 54.1397" fill="#2A2A4B"></path><path d="M519.191 73.1644L521.163 72.9994C524.094 72.7872 524.094 72.5239 524.094 66.0203V40.6604H521.323C513.816 40.6604 513.707 41.4608 512.532 47.6405H511.257C511.257 47.4264 511.148 45.9865 511.148 45.2958C511.148 42.8433 511.524 40.3407 511.735 39.1672H541.414C541.626 40.3407 541.998 42.8433 541.998 45.2958C541.998 45.9865 541.891 47.4264 541.891 47.6405H540.617C539.441 41.4608 539.338 40.6604 531.824 40.6604H529.049V66.0203C529.049 72.5239 529.049 72.7872 532.036 72.9994L533.953 73.1644V74.3347H519.192V73.1644" fill="#2A2A4B"></path><path d="M190.702 92.5134V93.28C188.976 93.4245 188.783 93.5905 188.783 96.1834V101.123C188.783 104.888 190.005 106.924 192.62 106.924C195.451 106.924 196.767 104.792 196.767 100.667V99.0857C196.767 96.5656 196.623 95.2476 196.526 94.5036C196.409 93.6643 195.81 93.3507 194.224 93.28V92.5134H200.173V93.28C198.977 93.3302 198.399 93.6643 198.28 94.5036C198.185 95.2476 198.04 96.5656 198.04 99.0857V100.835C198.04 103.139 197.677 105.273 196.339 106.686C195.281 107.816 193.554 108.463 191.876 108.463C190.293 108.463 188.663 108.15 187.489 107.163C186.219 106.135 185.664 104.408 185.664 101.602V96.1834C185.664 93.5905 185.475 93.4245 183.65 93.28V92.5134H190.702Z" fill="#2A2A4B"></path><path d="M217.299 107.475L218.017 107.379C219.071 107.236 219.071 106.346 219.071 103.183V92.2689C219.336 92.1971 220.077 92.1028 220.247 92.1028L230.986 103.636V97.187C230.986 93.2773 230.799 93.1112 229.528 92.9657L228.829 92.895V92.2688H234.201V92.895L233.483 92.9893C232.428 93.1337 232.428 94.0223 232.428 97.187V108.098C232.164 108.172 231.492 108.29 231.18 108.29L220.511 96.9015V103.278C220.511 107.043 220.703 107.213 221.97 107.402L222.666 107.476V108.098H217.299V107.476" fill="#2A2A4B"></path><path d="M257.363 104.575C257.363 106.946 257.363 107.235 258.49 107.401L259.069 107.475V108.097H252.543V107.475L253.12 107.401C254.243 107.235 254.243 106.946 254.243 104.575V95.822C254.243 93.4219 254.243 93.1339 253.12 92.9659L252.543 92.8951V92.269H259.069V92.8951L258.49 92.9659C257.363 93.1339 257.363 93.4219 257.363 95.7964V104.575" fill="#2A2A4B"></path><path d="M278.371 94.9793C277.914 93.8284 277.868 93.3713 276.91 93.0619L276.311 92.8927V92.2666H283.311V92.8927L282.28 93.0619C281.776 93.1571 281.367 93.2751 281.367 93.7096C281.367 93.9237 281.583 94.5243 281.681 94.7631L285.252 104.573H285.302L288.585 95.3155C288.851 94.5972 289.016 93.9463 289.016 93.7096C289.016 93.2751 288.683 93.1316 288.106 93.062L287.074 92.8928V92.2667H292.615V92.8928L292.066 93.0333C291.081 93.2997 290.577 94.6207 289.69 96.8241L285.182 108.095C284.607 108.311 284.295 108.336 283.67 108.386L278.371 94.9795" fill="#2A2A4B"></path><path d="M308.684 107.476L309.262 107.402C310.386 107.188 310.386 107.261 310.386 104.548V95.8224C310.386 93.1118 310.386 93.2306 309.262 92.9663L308.684 92.8955V92.2694H319.738C320.026 93.4961 320.026 94.936 320.026 96.1565L319.161 96.2744C318.539 93.2307 317.749 93.1846 315.23 93.1846H313.504V99.3469H315.137C317.271 99.3469 317.605 99.3213 317.749 98.3128L317.869 97.4735H318.491V102.247H317.869L317.749 101.481C317.581 100.426 317.22 100.426 315.23 100.426H313.504V106.827C314.296 107.02 315.111 107.188 315.927 107.188C319.524 107.188 319.789 105.34 320.266 103.543L321.129 103.713C321.013 105.39 320.819 106.636 320.338 108.098H308.684V107.476" fill="#2A2A4B"></path><path d="M343.674 100.33H344.849C348.231 100.33 348.301 97.6689 348.301 96.6379C348.301 94.4304 346.838 93.1853 344.919 93.1853C344.484 93.1853 344.08 93.2314 343.674 93.3492V100.33ZM343.674 104.576C343.674 106.948 343.674 107.237 344.799 107.403L345.375 107.477V108.099H338.854V107.477L339.426 107.403C340.555 107.237 340.555 106.948 340.555 104.549V95.7974C340.555 93.3747 340.555 93.1349 339.404 92.9668L338.854 92.8961V92.2699H345.758C347.963 92.2699 351.418 92.5118 351.418 96.275C351.418 98.3852 349.717 99.7522 348.352 100.376C348.707 101.193 350.459 104.646 352.185 106.828C352.617 107.38 353.291 107.428 353.72 107.476V108.098H351.632C349.215 108.098 348.276 106.563 347.749 105.511L346.838 103.738C346.002 102.126 345.95 101.239 344.438 101.239H343.674V104.576" fill="#2A2A4B"></path><path d="M379.289 96.4733C378.979 95.2496 378.52 92.8259 375.908 92.8259C374.539 92.8259 373.508 93.739 373.508 95.226C373.508 98.9175 381.182 98.6787 381.182 103.811C381.182 107.218 378.16 108.465 375.282 108.465C373.196 108.465 371.833 107.913 371.064 107.504C370.487 105.991 370.367 104.914 370.367 102.997L371.495 102.755C371.833 104.194 372.622 107.552 375.688 107.552C377.201 107.552 378.209 106.497 378.209 104.891C378.209 100.837 370.774 101.149 370.774 96.2309C370.774 93.1893 373.032 91.9164 376.123 91.9164C377.92 91.9164 379 92.3007 379.888 92.8029C380.082 93.9794 380.151 95.2502 380.151 96.4738H379.289" fill="#2A2A4B"></path><path d="M404.631 104.575C404.631 106.946 404.631 107.235 405.76 107.401L406.335 107.475V108.097H399.811V107.475L400.388 107.401C401.513 107.235 401.513 106.946 401.513 104.575V95.822C401.513 93.4219 401.513 93.1339 400.388 92.9659L399.811 92.8951V92.269H406.335V92.8951L405.76 92.9659C404.631 93.1339 404.631 93.4219 404.631 95.7964V104.575" fill="#2A2A4B"></path><path d="M429.197 93.1851H428.232C425.524 93.1851 425.266 93.8071 424.636 96.3968H423.773C423.773 96.0125 423.992 92.7986 424.09 92.2699H437.422C437.516 92.7986 437.734 96.0125 437.734 96.3968H436.87C436.247 93.8071 435.983 93.1851 433.268 93.1851H432.312V104.624C432.312 107.069 432.312 107.162 433.872 107.403L434.449 107.477V108.099H427.063V107.477L427.634 107.403C429.197 107.162 429.197 107.069 429.197 104.624V93.1851" fill="#2A2A4B"></path><path d="M457.657 107.475L458.616 107.355C459.743 107.187 459.743 106.709 459.743 106.014V104.523C459.743 102.009 459.479 101.358 458.588 99.7286L455.209 93.5663C455.015 93.2301 454.803 93.1338 454.274 93.0139L453.744 92.895V92.2689H460.648V92.895L459.479 93.0898C459.092 93.1594 458.758 93.2302 458.758 93.5417C458.758 93.7343 459.02 94.4046 459.404 95.2214L462.117 100.545L464.732 95.0534C465.015 94.4046 465.231 93.7826 465.231 93.5417C465.231 93.2076 464.944 93.1338 464.467 93.0642L463.34 92.895V92.2689H468.852V92.895L468.135 93.0139C467.705 93.1113 467.346 93.4218 466.576 94.6229L464.373 98.5061C462.953 101.169 462.858 101.839 462.858 104.523V106.014C462.858 106.709 462.858 107.187 463.985 107.355L464.944 107.475V108.097H457.657V107.475" fill="#2A2A4B"></path><path d="M106.621 117.427C133.997 107.752 154.21 81.7849 154.21 44.6482C154.21 33.1353 154.206 27.6278 154.206 27.6278C154.206 27.6278 130.629 22.3725 106.622 22.3725C82.6154 22.3725 59 27.6286 59 27.6286V44.649C59 81.7857 79.2278 107.752 106.621 117.427Z" fill="#2A2A4B"></path><path d="M106.621 48.7571C109.495 45.2429 112.653 41.9511 116.072 38.9261C119.931 35.5093 124.057 32.4902 128.387 29.8832C121.662 29.1536 114.143 28.6125 106.622 28.6125L106.621 48.7573" fill="white"></path><path d="M110.502 53.879C115.787 61.428 119.865 69.8253 122.554 78.7449C125.925 67.1 132.482 56.6138 141.513 48.6189C143.57 46.7999 145.729 45.1314 147.973 43.6198C147.973 38.964 147.972 35.3515 147.971 32.7471C145.665 32.3208 142.632 31.796 139.091 31.2652C128.016 36.3545 118.194 44.1178 110.502 53.8792" fill="white"></path><path d="M135.533 87.8108C142.513 77.6495 146.668 65.2269 147.71 51.5601C136.884 60.2537 129.108 73.1039 126.859 88.2052C126.342 91.6876 126.143 95.1414 126.234 98.5349C129.699 95.3507 132.817 91.7608 135.533 87.8108" fill="white"></path><path d="M106.621 110.772C111.442 108.879 115.942 106.438 120.089 103.501C120.049 99.7682 119.76 95.9896 119.193 92.1837C117.376 79.9729 112.957 68.8188 106.621 59.24V110.772" fill="white"></path><path d="M77.6759 87.8107C70.692 77.6384 66.5361 65.2054 65.4975 51.5237C76.3386 60.2181 84.1398 73.0857 86.3892 88.198C86.9078 91.6866 87.1056 95.1628 87.0123 98.5641C83.533 95.3675 80.4022 91.7673 77.6762 87.8036L77.6759 87.8107ZM74.1495 31.2675C85.2221 36.3578 95.057 44.1248 102.745 53.8846C97.4602 61.4335 93.3853 69.8308 90.6933 78.7504C87.3236 67.1055 80.7659 56.6194 71.7348 48.6245C69.6698 46.7982 67.4899 45.1145 65.2364 43.5987V32.7553C67.5505 32.3269 70.5942 31.8001 74.1497 31.2682L74.1495 31.2675ZM106.621 59.2451V48.7597C103.75 45.2455 100.596 41.9538 97.1777 38.9288C93.3212 35.5161 89.1836 32.4897 84.8594 29.8835C91.5864 29.1548 99.1046 28.6147 106.622 28.6147V22.3776C82.6154 22.3776 59 27.6337 59 27.6337V44.6541C59 81.7908 79.2294 107.758 106.622 117.433V110.778C101.798 108.892 97.2939 106.459 93.1585 103.534C93.1964 99.7944 93.4875 96.0015 94.0552 92.1894C95.8722 79.9786 100.288 68.8246 106.622 59.2458" fill="white"></path><path d="M62.1556 44.649C62.1556 80.035 81.0843 104.576 106.621 114.07C132.139 104.576 151.055 80.0353 151.055 44.6482C151.055 38.8921 151.054 34.6374 151.053 31.8218C151.052 31.2132 151.052 30.6719 151.052 30.1971C150.608 30.109 150.108 30.0116 149.556 29.9065C147.007 29.4207 143.353 28.7714 138.956 28.1219C130.146 26.8207 118.415 25.5281 106.622 25.5281C94.8286 25.5281 83.0887 26.8209 74.2692 28.1224C69.8667 28.772 66.2082 29.4214 63.655 29.9073C63.1019 30.0126 62.6009 30.1101 62.1556 30.1983V44.649Z" stroke="#2A2A4B" stroke-width="6.31118"></path></svg>